  0
SECTION
  2
HEADER
  9
$ANGBASE
  50
0.0
  9
$ANGDIR
  70
1
  9
$MEASUREMENT
  70
1
  0
ENDSEC
  0
SECTION
  2
TABLES
  0
TABLE
  2
LTYPE
  70
4
  0
LTYPE
  5
40F
  2
CONTINUOUS
  70
0
  3
Solid line
  72
65
  73
0
  40
0.0
  0
LTYPE
  5
410
  2
DASHDOT
 70
0
  3
Dash Dot ____ _ ____ _
 72
65
 73
4
 40
2.0
 49
1.25
 49
-0.25
 49
0.25
 49
-0.25
  0
LTYPE
  5
411
  2
DASHED
 70
0
  3
Dashed __ __ __ __ __
 72
65
 73
2
 40
0.75
 49
0.5
 49
-0.25
  0
LTYPE
  5
43B
  2
DOTTED
 70
0
  3
Dotted .  .  .  .
 72
65
 73
2
 40
0.2
 49
0.0
 49
-0.2
  0
ENDTAB
  0
TABLE
  2
STYLE
  70
4
  0
STYLE
  2
KICAD
  70
0
  40
0
  41
1
  42
1
  50
0
  71
0
  3
isocp.shx
  0
STYLE
  2
KICADB
  70
0
  40
0
  41
1
  42
1
  50
0
  71
0
  3
isocp.shx
  0
STYLE
  2
KICADI
  70
0
  40
0
  41
1
  42
1
  50
15
  71
0
  3
isocp.shx
  0
STYLE
  2
KICADBI
  70
0
  40
0
  41
1
  42
1
  50
15
  71
0
  3
isocp.shx
  0
ENDTAB
  0
TABLE
  2
LAYER
  70
1
  0
LAYER
  2
BLACK
  70
0
  62
7
  6
CONTINUOUS
  0
ENDTAB
  0
ENDSEC
  0
SECTION
  2
ENTITIES
0
LINE
8
BLACK
6
CONTINUOUS
10
116.549
20
-62.5838
11
116.549
21
-107.73
0
LINE
8
BLACK
6
CONTINUOUS
10
116.549
20
-107.73
11
122.226
21
-113.407
0
LINE
8
BLACK
6
CONTINUOUS
10
122.226
20
-113.407
11
175.122
21
-113.407
0
LINE
8
BLACK
6
CONTINUOUS
10
175.122
20
-113.407
11
180.799
21
-107.73
0
LINE
8
BLACK
6
CONTINUOUS
10
180.799
20
-107.73
11
180.799
21
-62.8338
0
LINE
8
BLACK
6
CONTINUOUS
10
180.799
20
-62.8338
11
175.122
21
-57.157
0
LINE
8
BLACK
6
CONTINUOUS
10
175.122
20
-57.157
11
122.726
21
-57.157
0
LINE
8
BLACK
6
CONTINUOUS
10
122.726
20
-57.157
11
117.049
21
-62.8338
0
LINE
8
BLACK
6
CONTINUOUS
10
117.049
20
-62.8338
11
117.049
21
-107.48
0
LINE
8
BLACK
6
CONTINUOUS
10
117.049
20
-107.48
11
122.476
21
-112.907
0
LINE
8
BLACK
6
CONTINUOUS
10
122.476
20
-112.907
11
174.872
21
-112.907
0
LINE
8
BLACK
6
CONTINUOUS
10
174.872
20
-112.907
11
180.299
21
-107.48
0
LINE
8
BLACK
6
CONTINUOUS
10
180.299
20
-107.48
11
180.299
21
-63.0838
0
LINE
8
BLACK
6
CONTINUOUS
10
180.299
20
-63.0838
11
174.872
21
-57.657
0
LINE
8
BLACK
6
CONTINUOUS
10
174.872
20
-57.657
11
122.976
21
-57.657
0
LINE
8
BLACK
6
CONTINUOUS
10
122.976
20
-57.657
11
117.549
21
-63.0838
0
LINE
8
BLACK
6
CONTINUOUS
10
117.549
20
-63.0838
11
117.549
21
-107.23
0
LINE
8
BLACK
6
CONTINUOUS
10
117.549
20
-107.23
11
122.726
21
-112.407
0
LINE
8
BLACK
6
CONTINUOUS
10
122.726
20
-112.407
11
174.622
21
-112.407
0
LINE
8
BLACK
6
CONTINUOUS
10
174.622
20
-112.407
11
179.799
21
-107.23
0
LINE
8
BLACK
6
CONTINUOUS
10
179.799
20
-107.23
11
179.799
21
-63.3338
0
LINE
8
BLACK
6
CONTINUOUS
10
179.799
20
-63.3338
11
174.622
21
-58.157
0
LINE
8
BLACK
6
CONTINUOUS
10
174.622
20
-58.157
11
123.226
21
-58.157
0
LINE
8
BLACK
6
CONTINUOUS
10
123.226
20
-58.157
11
118.049
21
-63.3338
0
LINE
8
BLACK
6
CONTINUOUS
10
118.049
20
-63.3338
11
118.049
21
-106.98
0
LINE
8
BLACK
6
CONTINUOUS
10
118.049
20
-106.98
11
122.976
21
-111.907
0
LINE
8
BLACK
6
CONTINUOUS
10
122.976
20
-111.907
11
174.372
21
-111.907
0
LINE
8
BLACK
6
CONTINUOUS
10
174.372
20
-111.907
11
179.299
21
-106.98
0
LINE
8
BLACK
6
CONTINUOUS
10
179.299
20
-106.98
11
179.299
21
-63.5838
0
LINE
8
BLACK
6
CONTINUOUS
10
179.299
20
-63.5838
11
174.372
21
-58.657
0
LINE
8
BLACK
6
CONTINUOUS
10
174.372
20
-58.657
11
123.476
21
-58.657
0
LINE
8
BLACK
6
CONTINUOUS
10
123.476
20
-58.657
11
118.549
21
-63.5838
0
LINE
8
BLACK
6
CONTINUOUS
10
118.549
20
-63.5838
11
118.549
21
-106.73
0
LINE
8
BLACK
6
CONTINUOUS
10
118.549
20
-106.73
11
123.226
21
-111.407
0
LINE
8
BLACK
6
CONTINUOUS
10
123.226
20
-111.407
11
174.122
21
-111.407
0
LINE
8
BLACK
6
CONTINUOUS
10
174.122
20
-111.407
11
178.799
21
-106.73
0
LINE
8
BLACK
6
CONTINUOUS
10
178.799
20
-106.73
11
178.799
21
-63.8338
0
LINE
8
BLACK
6
CONTINUOUS
10
178.799
20
-63.8338
11
174.122
21
-59.157
0
LINE
8
BLACK
6
CONTINUOUS
10
174.122
20
-59.157
11
123.726
21
-59.157
0
LINE
8
BLACK
6
CONTINUOUS
10
123.726
20
-59.157
11
119.049
21
-63.8338
0
LINE
8
BLACK
6
CONTINUOUS
10
119.049
20
-63.8338
11
119.049
21
-106.48
0
LINE
8
BLACK
6
CONTINUOUS
10
119.049
20
-106.48
11
123.476
21
-110.907
0
LINE
8
BLACK
6
CONTINUOUS
10
123.476
20
-110.907
11
173.872
21
-110.907
0
LINE
8
BLACK
6
CONTINUOUS
10
173.872
20
-110.907
11
178.299
21
-106.48
0
LINE
8
BLACK
6
CONTINUOUS
10
178.299
20
-106.48
11
178.299
21
-64.0838
0
LINE
8
BLACK
6
CONTINUOUS
10
178.299
20
-64.0838
11
173.872
21
-59.657
0
LINE
8
BLACK
6
CONTINUOUS
10
173.872
20
-59.657
11
123.976
21
-59.657
0
LINE
8
BLACK
6
CONTINUOUS
10
123.976
20
-59.657
11
119.549
21
-64.0838
0
LINE
8
BLACK
6
CONTINUOUS
10
119.549
20
-64.0838
11
119.549
21
-106.23
0
LINE
8
BLACK
6
CONTINUOUS
10
119.549
20
-106.23
11
123.726
21
-110.407
0
LINE
8
BLACK
6
CONTINUOUS
10
123.726
20
-110.407
11
173.622
21
-110.407
0
LINE
8
BLACK
6
CONTINUOUS
10
173.622
20
-110.407
11
177.799
21
-106.23
0
LINE
8
BLACK
6
CONTINUOUS
10
177.799
20
-106.23
11
177.799
21
-64.3338
0
LINE
8
BLACK
6
CONTINUOUS
10
177.799
20
-64.3338
11
173.622
21
-60.157
0
LINE
8
BLACK
6
CONTINUOUS
10
173.622
20
-60.157
11
124.226
21
-60.157
0
LINE
8
BLACK
6
CONTINUOUS
10
124.226
20
-60.157
11
120.049
21
-64.3338
0
LINE
8
BLACK
6
CONTINUOUS
10
120.049
20
-64.3338
11
120.049
21
-105.98
0
LINE
8
BLACK
6
CONTINUOUS
10
120.049
20
-105.98
11
123.976
21
-109.907
0
LINE
8
BLACK
6
CONTINUOUS
10
123.976
20
-109.907
11
173.372
21
-109.907
0
LINE
8
BLACK
6
CONTINUOUS
10
173.372
20
-109.907
11
177.299
21
-105.98
0
LINE
8
BLACK
6
CONTINUOUS
10
177.299
20
-105.98
11
177.299
21
-64.5838
0
LINE
8
BLACK
6
CONTINUOUS
10
177.299
20
-64.5838
11
173.372
21
-60.657
0
LINE
8
BLACK
6
CONTINUOUS
10
173.372
20
-60.657
11
124.476
21
-60.657
0
LINE
8
BLACK
6
CONTINUOUS
10
124.476
20
-60.657
11
120.549
21
-64.5838
0
LINE
8
BLACK
6
CONTINUOUS
10
120.549
20
-64.5838
11
120.549
21
-105.73
0
LINE
8
BLACK
6
CONTINUOUS
10
120.549
20
-105.73
11
124.226
21
-109.407
0
LINE
8
BLACK
6
CONTINUOUS
10
124.226
20
-109.407
11
173.122
21
-109.407
0
LINE
8
BLACK
6
CONTINUOUS
10
173.122
20
-109.407
11
176.799
21
-105.73
0
LINE
8
BLACK
6
CONTINUOUS
10
176.799
20
-105.73
11
176.799
21
-64.8338
0
LINE
8
BLACK
6
CONTINUOUS
10
176.799
20
-64.8338
11
173.122
21
-61.157
0
LINE
8
BLACK
6
CONTINUOUS
10
173.122
20
-61.157
11
124.726
21
-61.157
0
LINE
8
BLACK
6
CONTINUOUS
10
124.726
20
-61.157
11
121.049
21
-64.8338
0
LINE
8
BLACK
6
CONTINUOUS
10
121.049
20
-64.8338
11
121.049
21
-105.48
0
LINE
8
BLACK
6
CONTINUOUS
10
121.049
20
-105.48
11
124.476
21
-108.907
0
LINE
8
BLACK
6
CONTINUOUS
10
124.476
20
-108.907
11
172.872
21
-108.907
0
LINE
8
BLACK
6
CONTINUOUS
10
172.872
20
-108.907
11
176.299
21
-105.48
0
LINE
8
BLACK
6
CONTINUOUS
10
176.299
20
-105.48
11
176.299
21
-65.0838
0
LINE
8
BLACK
6
CONTINUOUS
10
176.299
20
-65.0838
11
172.872
21
-61.657
0
LINE
8
BLACK
6
CONTINUOUS
10
172.872
20
-61.657
11
124.976
21
-61.657
0
LINE
8
BLACK
6
CONTINUOUS
10
124.976
20
-61.657
11
121.549
21
-65.0838
0
LINE
8
BLACK
6
CONTINUOUS
10
121.549
20
-65.0838
11
121.549
21
-105.23
0
LINE
8
BLACK
6
CONTINUOUS
10
121.549
20
-105.23
11
124.726
21
-108.407
0
LINE
8
BLACK
6
CONTINUOUS
10
124.726
20
-108.407
11
172.622
21
-108.407
0
LINE
8
BLACK
6
CONTINUOUS
10
172.622
20
-108.407
11
175.799
21
-105.23
0
LINE
8
BLACK
6
CONTINUOUS
10
175.799
20
-105.23
11
175.799
21
-65.3338
0
LINE
8
BLACK
6
CONTINUOUS
10
175.799
20
-65.3338
11
172.622
21
-62.157
0
LINE
8
BLACK
6
CONTINUOUS
10
172.622
20
-62.157
11
125.226
21
-62.157
0
LINE
8
BLACK
6
CONTINUOUS
10
125.226
20
-62.157
11
122.049
21
-65.3338
0
LINE
8
BLACK
6
CONTINUOUS
10
122.049
20
-65.3338
11
122.049
21
-104.98
0
LINE
8
BLACK
6
CONTINUOUS
10
122.049
20
-104.98
11
124.976
21
-107.907
0
LINE
8
BLACK
6
CONTINUOUS
10
124.976
20
-107.907
11
172.372
21
-107.907
0
LINE
8
BLACK
6
CONTINUOUS
10
172.372
20
-107.907
11
175.299
21
-104.98
0
LINE
8
BLACK
6
CONTINUOUS
10
175.299
20
-104.98
11
175.299
21
-65.5838
0
LINE
8
BLACK
6
CONTINUOUS
10
175.299
20
-65.5838
11
172.372
21
-62.657
0
LINE
8
BLACK
6
CONTINUOUS
10
172.372
20
-62.657
11
125.476
21
-62.657
0
LINE
8
BLACK
6
CONTINUOUS
10
125.476
20
-62.657
11
122.549
21
-65.5838
0
LINE
8
BLACK
6
CONTINUOUS
10
122.549
20
-65.5838
11
122.549
21
-104.73
0
LINE
8
BLACK
6
CONTINUOUS
10
122.549
20
-104.73
11
125.226
21
-107.407
0
LINE
8
BLACK
6
CONTINUOUS
10
125.226
20
-107.407
11
172.122
21
-107.407
0
LINE
8
BLACK
6
CONTINUOUS
10
172.122
20
-107.407
11
174.799
21
-104.73
0
LINE
8
BLACK
6
CONTINUOUS
10
174.799
20
-104.73
11
174.799
21
-65.8338
0
LINE
8
BLACK
6
CONTINUOUS
10
174.799
20
-65.8338
11
172.122
21
-63.157
0
LINE
8
BLACK
6
CONTINUOUS
10
172.122
20
-63.157
11
125.726
21
-63.157
0
LINE
8
BLACK
6
CONTINUOUS
10
125.726
20
-63.157
11
123.049
21
-65.8338
0
LINE
8
BLACK
6
CONTINUOUS
10
123.049
20
-65.8338
11
123.049
21
-104.48
0
LINE
8
BLACK
6
CONTINUOUS
10
123.049
20
-104.48
11
125.476
21
-106.907
0
LINE
8
BLACK
6
CONTINUOUS
10
125.476
20
-106.907
11
171.872
21
-106.907
0
LINE
8
BLACK
6
CONTINUOUS
10
171.872
20
-106.907
11
174.299
21
-104.48
0
LINE
8
BLACK
6
CONTINUOUS
10
174.299
20
-104.48
11
174.299
21
-66.0838
0
LINE
8
BLACK
6
CONTINUOUS
10
174.299
20
-66.0838
11
171.872
21
-63.657
0
LINE
8
BLACK
6
CONTINUOUS
10
171.872
20
-63.657
11
125.976
21
-63.657
0
LINE
8
BLACK
6
CONTINUOUS
10
125.976
20
-63.657
11
123.549
21
-66.0838
0
LINE
8
BLACK
6
CONTINUOUS
10
123.549
20
-66.0838
11
123.549
21
-104.23
0
LINE
8
BLACK
6
CONTINUOUS
10
123.549
20
-104.23
11
125.726
21
-106.407
0
LINE
8
BLACK
6
CONTINUOUS
10
125.726
20
-106.407
11
171.622
21
-106.407
0
LINE
8
BLACK
6
CONTINUOUS
10
171.622
20
-106.407
11
173.799
21
-104.23
0
LINE
8
BLACK
6
CONTINUOUS
10
173.799
20
-104.23
11
173.799
21
-66.3338
0
LINE
8
BLACK
6
CONTINUOUS
10
173.799
20
-66.3338
11
171.622
21
-64.157
0
LINE
8
BLACK
6
CONTINUOUS
10
171.622
20
-64.157
11
126.226
21
-64.157
0
LINE
8
BLACK
6
CONTINUOUS
10
126.226
20
-64.157
11
124.049
21
-66.3338
0
LINE
8
BLACK
6
CONTINUOUS
10
124.049
20
-66.3338
11
124.049
21
-103.98
0
LINE
8
BLACK
6
CONTINUOUS
10
124.049
20
-103.98
11
125.976
21
-105.907
0
LINE
8
BLACK
6
CONTINUOUS
10
125.976
20
-105.907
11
171.372
21
-105.907
0
LINE
8
BLACK
6
CONTINUOUS
10
171.372
20
-105.907
11
173.299
21
-103.98
0
LINE
8
BLACK
6
CONTINUOUS
10
173.299
20
-103.98
11
173.299
21
-66.5838
0
LINE
8
BLACK
6
CONTINUOUS
10
173.299
20
-66.5838
11
171.372
21
-64.657
0
LINE
8
BLACK
6
CONTINUOUS
10
171.372
20
-64.657
11
126.476
21
-64.657
0
LINE
8
BLACK
6
CONTINUOUS
10
126.476
20
-64.657
11
124.549
21
-66.5838
0
LINE
8
BLACK
6
CONTINUOUS
10
124.549
20
-66.5838
11
124.549
21
-103.73
0
LINE
8
BLACK
6
CONTINUOUS
10
124.549
20
-103.73
11
126.226
21
-105.407
0
LINE
8
BLACK
6
CONTINUOUS
10
126.226
20
-105.407
11
171.122
21
-105.407
0
LINE
8
BLACK
6
CONTINUOUS
10
171.122
20
-105.407
11
172.799
21
-103.73
0
LINE
8
BLACK
6
CONTINUOUS
10
172.799
20
-103.73
11
172.799
21
-66.8338
0
LINE
8
BLACK
6
CONTINUOUS
10
172.799
20
-66.8338
11
171.122
21
-65.157
0
LINE
8
BLACK
6
CONTINUOUS
10
171.122
20
-65.157
11
126.726
21
-65.157
0
LINE
8
BLACK
6
CONTINUOUS
10
126.726
20
-65.157
11
125.049
21
-66.8338
0
LINE
8
BLACK
6
CONTINUOUS
10
125.049
20
-66.8338
11
125.049
21
-103.48
0
LINE
8
BLACK
6
CONTINUOUS
10
125.049
20
-103.48
11
126.476
21
-104.907
0
LINE
8
BLACK
6
CONTINUOUS
10
126.476
20
-104.907
11
170.872
21
-104.907
0
LINE
8
BLACK
6
CONTINUOUS
10
170.872
20
-104.907
11
172.299
21
-103.48
0
LINE
8
BLACK
6
CONTINUOUS
10
172.299
20
-103.48
11
172.299
21
-67.0838
0
LINE
8
BLACK
6
CONTINUOUS
10
172.299
20
-67.0838
11
170.872
21
-65.657
0
LINE
8
BLACK
6
CONTINUOUS
10
170.872
20
-65.657
11
126.976
21
-65.657
0
LINE
8
BLACK
6
CONTINUOUS
10
126.976
20
-65.657
11
125.549
21
-67.0838
0
LINE
8
BLACK
6
CONTINUOUS
10
125.549
20
-67.0838
11
125.549
21
-103.23
0
LINE
8
BLACK
6
CONTINUOUS
10
125.549
20
-103.23
11
126.726
21
-104.407
0
LINE
8
BLACK
6
CONTINUOUS
10
126.726
20
-104.407
11
170.622
21
-104.407
0
LINE
8
BLACK
6
CONTINUOUS
10
170.622
20
-104.407
11
171.799
21
-103.23
0
LINE
8
BLACK
6
CONTINUOUS
10
171.799
20
-103.23
11
171.799
21
-67.3338
0
LINE
8
BLACK
6
CONTINUOUS
10
171.799
20
-67.3338
11
170.622
21
-66.157
0
LINE
8
BLACK
6
CONTINUOUS
10
170.622
20
-66.157
11
127.226
21
-66.157
0
LINE
8
BLACK
6
CONTINUOUS
10
127.226
20
-66.157
11
126.049
21
-67.3338
0
LINE
8
BLACK
6
CONTINUOUS
10
126.049
20
-67.3338
11
126.049
21
-102.98
0
LINE
8
BLACK
6
CONTINUOUS
10
126.049
20
-102.98
11
126.976
21
-103.907
0
LINE
8
BLACK
6
CONTINUOUS
10
126.976
20
-103.907
11
170.372
21
-103.907
0
LINE
8
BLACK
6
CONTINUOUS
10
170.372
20
-103.907
11
171.299
21
-102.98
0
LINE
8
BLACK
6
CONTINUOUS
10
171.299
20
-102.98
11
171.299
21
-67.5838
0
LINE
8
BLACK
6
CONTINUOUS
10
171.299
20
-67.5838
11
170.372
21
-66.657
0
LINE
8
BLACK
6
CONTINUOUS
10
170.372
20
-66.657
11
127.476
21
-66.657
0
LINE
8
BLACK
6
CONTINUOUS
10
127.476
20
-66.657
11
126.549
21
-67.5838
0
LINE
8
BLACK
6
CONTINUOUS
10
126.549
20
-67.5838
11
126.549
21
-102.73
0
LINE
8
BLACK
6
CONTINUOUS
10
126.549
20
-102.73
11
127.226
21
-103.407
0
LINE
8
BLACK
6
CONTINUOUS
10
127.226
20
-103.407
11
170.122
21
-103.407
0
LINE
8
BLACK
6
CONTINUOUS
10
170.122
20
-103.407
11
170.799
21
-102.73
0
LINE
8
BLACK
6
CONTINUOUS
10
170.799
20
-102.73
11
170.799
21
-67.8338
0
LINE
8
BLACK
6
CONTINUOUS
10
170.799
20
-67.8338
11
170.122
21
-67.157
0
LINE
8
BLACK
6
CONTINUOUS
10
170.122
20
-67.157
11
127.726
21
-67.157
0
LINE
8
BLACK
6
CONTINUOUS
10
127.726
20
-67.157
11
127.049
21
-67.8338
0
LINE
8
BLACK
6
CONTINUOUS
10
127.049
20
-67.8338
11
127.049
21
-102.48
0
LINE
8
BLACK
6
CONTINUOUS
10
127.049
20
-102.48
11
127.476
21
-102.907
0
LINE
8
BLACK
6
CONTINUOUS
10
127.476
20
-102.907
11
169.872
21
-102.907
0
LINE
8
BLACK
6
CONTINUOUS
10
169.872
20
-102.907
11
170.299
21
-102.48
0
LINE
8
BLACK
6
CONTINUOUS
10
170.299
20
-102.48
11
170.299
21
-68.0838
0
LINE
8
BLACK
6
CONTINUOUS
10
170.299
20
-68.0838
11
169.872
21
-67.657
0
LINE
8
BLACK
6
CONTINUOUS
10
169.872
20
-67.657
11
127.976
21
-67.657
0
LINE
8
BLACK
6
CONTINUOUS
10
127.976
20
-67.657
11
127.549
21
-68.0838
0
LINE
8
BLACK
6
CONTINUOUS
10
127.549
20
-68.0838
11
127.549
21
-102.23
0
LINE
8
BLACK
6
CONTINUOUS
10
127.549
20
-102.23
11
127.726
21
-102.407
0
LINE
8
BLACK
6
CONTINUOUS
10
127.726
20
-102.407
11
169.622
21
-102.407
0
LINE
8
BLACK
6
CONTINUOUS
10
169.622
20
-102.407
11
169.799
21
-102.23
0
LINE
8
BLACK
6
CONTINUOUS
10
169.799
20
-102.23
11
169.799
21
-68.3338
0
LINE
8
BLACK
6
CONTINUOUS
10
169.799
20
-68.3338
11
169.622
21
-68.157
0
LINE
8
BLACK
6
CONTINUOUS
10
169.622
20
-68.157
11
128.226
21
-68.157
0
LINE
8
BLACK
6
CONTINUOUS
10
128.226
20
-68.157
11
128.049
21
-68.3338
0
LINE
8
BLACK
6
CONTINUOUS
10
128.049
20
-68.3338
11
128.049
21
-93.7759
0
LINE
8
BLACK
6
CONTINUOUS
10
128.049
20
-93.7759
11
128.05
21
-93.782
0
LINE
8
BLACK
6
CONTINUOUS
10
128.05
20
-93.782
11
128.049
21
-93.7881
0
LINE
8
BLACK
6
CONTINUOUS
10
128.049
20
-93.7881
11
128.049
21
-95.8774
0
LINE
8
BLACK
6
CONTINUOUS
10
128.049
20
-95.8774
11
128.069
21
-95.8814
0
LINE
8
BLACK
6
CONTINUOUS
10
128.069
20
-95.8814
11
128.142
21
-95.9115
0
LINE
8
BLACK
6
CONTINUOUS
10
128.142
20
-95.9115
11
128.207
21
-95.9553
0
LINE
8
BLACK
6
CONTINUOUS
10
128.207
20
-95.9553
11
128.263
21
-96.011
0
LINE
8
BLACK
6
CONTINUOUS
10
128.263
20
-96.011
11
128.307
21
-96.0765
0
LINE
8
BLACK
6
CONTINUOUS
10
128.307
20
-96.0765
11
128.337
21
-96.1493
0
LINE
8
BLACK
6
CONTINUOUS
10
128.337
20
-96.1493
11
128.352
21
-96.2266
0
LINE
8
BLACK
6
CONTINUOUS
10
128.352
20
-96.2266
11
128.352
21
-96.3054
0
LINE
8
BLACK
6
CONTINUOUS
10
128.352
20
-96.3054
11
128.337
21
-96.3827
0
LINE
8
BLACK
6
CONTINUOUS
10
128.337
20
-96.3827
11
128.307
21
-96.4555
0
LINE
8
BLACK
6
CONTINUOUS
10
128.307
20
-96.4555
11
128.263
21
-96.521
0
LINE
8
BLACK
6
CONTINUOUS
10
128.263
20
-96.521
11
128.207
21
-96.5767
0
LINE
8
BLACK
6
CONTINUOUS
10
128.207
20
-96.5767
11
128.142
21
-96.6205
0
LINE
8
BLACK
6
CONTINUOUS
10
128.142
20
-96.6205
11
128.069
21
-96.6506
0
LINE
8
BLACK
6
CONTINUOUS
10
128.069
20
-96.6506
11
127.992
21
-96.666
0
LINE
8
BLACK
6
CONTINUOUS
10
127.992
20
-96.666
11
127.913
21
-96.666
0
LINE
8
BLACK
6
CONTINUOUS
10
127.913
20
-96.666
11
127.836
21
-96.6506
0
LINE
8
BLACK
6
CONTINUOUS
10
127.836
20
-96.6506
11
127.763
21
-96.6205
0
LINE
8
BLACK
6
CONTINUOUS
10
127.763
20
-96.6205
11
127.698
21
-96.5767
0
LINE
8
BLACK
6
CONTINUOUS
10
127.698
20
-96.5767
11
127.642
21
-96.521
0
LINE
8
BLACK
6
CONTINUOUS
10
127.642
20
-96.521
11
127.598
21
-96.4555
0
LINE
8
BLACK
6
CONTINUOUS
10
127.598
20
-96.4555
11
127.568
21
-96.3827
0
LINE
8
BLACK
6
CONTINUOUS
10
127.568
20
-96.3827
11
127.552
21
-96.3054
0
LINE
8
BLACK
6
CONTINUOUS
10
127.552
20
-96.3054
11
127.552
21
-96.2266
0
LINE
8
BLACK
6
CONTINUOUS
10
127.552
20
-96.2266
11
127.568
21
-96.1493
0
LINE
8
BLACK
6
CONTINUOUS
10
127.568
20
-96.1493
11
127.598
21
-96.0765
0
LINE
8
BLACK
6
CONTINUOUS
10
127.598
20
-96.0765
11
127.642
21
-96.011
0
LINE
8
BLACK
6
CONTINUOUS
10
127.642
20
-96.011
11
127.698
21
-95.9553
0
LINE
8
BLACK
6
CONTINUOUS
10
127.698
20
-95.9553
11
127.763
21
-95.9115
0
LINE
8
BLACK
6
CONTINUOUS
10
127.763
20
-95.9115
11
127.799
21
-95.8966
0
LINE
8
BLACK
6
CONTINUOUS
10
127.799
20
-95.8966
11
127.799
21
-93.7881
0
LINE
8
BLACK
6
CONTINUOUS
10
127.799
20
-93.7881
11
127.798
21
-93.782
0
LINE
8
BLACK
6
CONTINUOUS
10
127.798
20
-93.782
11
127.799
21
-93.7759
0
LINE
8
BLACK
6
CONTINUOUS
10
127.799
20
-93.7759
11
127.799
21
-68.2881
0
LINE
8
BLACK
6
CONTINUOUS
10
127.799
20
-68.2881
11
127.798
21
-68.282
0
LINE
8
BLACK
6
CONTINUOUS
10
127.798
20
-68.282
11
127.799
21
-68.2759
0
LINE
8
BLACK
6
CONTINUOUS
10
127.799
20
-68.2759
11
127.799
21
-68.2759
0
LINE
8
BLACK
6
CONTINUOUS
10
127.799
20
-68.2759
11
127.801
21
-68.2575
0
LINE
8
BLACK
6
CONTINUOUS
10
127.801
20
-68.2575
11
127.808
21
-68.2339
0
LINE
8
BLACK
6
CONTINUOUS
10
127.808
20
-68.2339
11
127.82
21
-68.2122
0
LINE
8
BLACK
6
CONTINUOUS
10
127.82
20
-68.2122
11
127.835
21
-68.1932
0
LINE
8
BLACK
6
CONTINUOUS
10
127.835
20
-68.1932
11
127.84
21
-68.1893
0
LINE
8
BLACK
6
CONTINUOUS
10
127.84
20
-68.1893
11
128.081
21
-67.9479
0
LINE
8
BLACK
6
CONTINUOUS
10
128.081
20
-67.9479
11
128.085
21
-67.9432
0
LINE
8
BLACK
6
CONTINUOUS
10
128.085
20
-67.9432
11
128.09
21
-67.9393
0
LINE
8
BLACK
6
CONTINUOUS
10
128.09
20
-67.9393
11
128.09
21
-67.9393
0
LINE
8
BLACK
6
CONTINUOUS
10
128.09
20
-67.9393
11
128.104
21
-67.9276
0
LINE
8
BLACK
6
CONTINUOUS
10
128.104
20
-67.9276
11
128.104
21
-67.9276
0
LINE
8
BLACK
6
CONTINUOUS
10
128.104
20
-67.9276
11
128.104
21
-67.9276
0
LINE
8
BLACK
6
CONTINUOUS
10
128.104
20
-67.9276
11
128.126
21
-67.916
0
LINE
8
BLACK
6
CONTINUOUS
10
128.126
20
-67.916
11
128.149
21
-67.9088
0
LINE
8
BLACK
6
CONTINUOUS
10
128.149
20
-67.9088
11
128.168
21
-67.907
0
LINE
8
BLACK
6
CONTINUOUS
10
128.168
20
-67.907
11
128.168
21
-67.907
0
LINE
8
BLACK
6
CONTINUOUS
10
128.168
20
-67.907
11
128.174
21
-67.9064
0
LINE
8
BLACK
6
CONTINUOUS
10
128.174
20
-67.9064
11
128.18
21
-67.907
0
LINE
8
BLACK
6
CONTINUOUS
10
128.18
20
-67.907
11
169.668
21
-67.907
0
LINE
8
BLACK
6
CONTINUOUS
10
169.668
20
-67.907
11
169.674
21
-67.9064
0
LINE
8
BLACK
6
CONTINUOUS
10
169.674
20
-67.9064
11
169.68
21
-67.907
0
LINE
8
BLACK
6
CONTINUOUS
10
169.68
20
-67.907
11
169.68
21
-67.907
0
LINE
8
BLACK
6
CONTINUOUS
10
169.68
20
-67.907
11
169.699
21
-67.9088
0
LINE
8
BLACK
6
CONTINUOUS
10
169.699
20
-67.9088
11
169.722
21
-67.916
0
LINE
8
BLACK
6
CONTINUOUS
10
169.722
20
-67.916
11
169.744
21
-67.9276
0
LINE
8
BLACK
6
CONTINUOUS
10
169.744
20
-67.9276
11
169.763
21
-67.9432
0
LINE
8
BLACK
6
CONTINUOUS
10
169.763
20
-67.9432
11
169.767
21
-67.948
0
LINE
8
BLACK
6
CONTINUOUS
10
169.767
20
-67.948
11
170.008
21
-68.1893
0
LINE
8
BLACK
6
CONTINUOUS
10
170.008
20
-68.1893
11
170.013
21
-68.1932
0
LINE
8
BLACK
6
CONTINUOUS
10
170.013
20
-68.1932
11
170.017
21
-68.1979
0
LINE
8
BLACK
6
CONTINUOUS
10
170.017
20
-68.1979
11
170.017
21
-68.1979
0
LINE
8
BLACK
6
CONTINUOUS
10
170.017
20
-68.1979
11
170.026
21
-68.2097
0
LINE
8
BLACK
6
CONTINUOUS
10
170.026
20
-68.2097
11
170.028
21
-68.2122
0
LINE
8
BLACK
6
CONTINUOUS
10
170.028
20
-68.2122
11
170.04
21
-68.2339
0
LINE
8
BLACK
6
CONTINUOUS
10
170.04
20
-68.2339
11
170.047
21
-68.2575
0
LINE
8
BLACK
6
CONTINUOUS
10
170.047
20
-68.2575
11
170.049
21
-68.2759
0
LINE
8
BLACK
6
CONTINUOUS
10
170.049
20
-68.2759
11
170.049
21
-68.2759
0
LINE
8
BLACK
6
CONTINUOUS
10
170.049
20
-68.2759
11
170.05
21
-68.282
0
LINE
8
BLACK
6
CONTINUOUS
10
170.05
20
-68.282
11
170.049
21
-68.2881
0
LINE
8
BLACK
6
CONTINUOUS
10
170.049
20
-68.2881
11
170.049
21
-102.276
0
LINE
8
BLACK
6
CONTINUOUS
10
170.049
20
-102.276
11
170.05
21
-102.282
0
LINE
8
BLACK
6
CONTINUOUS
10
170.05
20
-102.282
11
170.049
21
-102.288
0
LINE
8
BLACK
6
CONTINUOUS
10
170.049
20
-102.288
11
170.049
21
-102.288
0
LINE
8
BLACK
6
CONTINUOUS
10
170.049
20
-102.288
11
170.047
21
-102.307
0
LINE
8
BLACK
6
CONTINUOUS
10
170.047
20
-102.307
11
170.04
21
-102.33
0
LINE
8
BLACK
6
CONTINUOUS
10
170.04
20
-102.33
11
170.04
21
-102.33
0
LINE
8
BLACK
6
CONTINUOUS
10
170.04
20
-102.33
11
170.028
21
-102.352
0
LINE
8
BLACK
6
CONTINUOUS
10
170.028
20
-102.352
11
170.017
21
-102.366
0
LINE
8
BLACK
6
CONTINUOUS
10
170.017
20
-102.366
11
170.017
21
-102.366
0
LINE
8
BLACK
6
CONTINUOUS
10
170.017
20
-102.366
11
170.013
21
-102.371
0
LINE
8
BLACK
6
CONTINUOUS
10
170.013
20
-102.371
11
170.008
21
-102.375
0
LINE
8
BLACK
6
CONTINUOUS
10
170.008
20
-102.375
11
169.767
21
-102.616
0
LINE
8
BLACK
6
CONTINUOUS
10
169.767
20
-102.616
11
169.763
21
-102.621
0
LINE
8
BLACK
6
CONTINUOUS
10
169.763
20
-102.621
11
169.744
21
-102.636
0
LINE
8
BLACK
6
CONTINUOUS
10
169.744
20
-102.636
11
169.722
21
-102.648
0
LINE
8
BLACK
6
CONTINUOUS
10
169.722
20
-102.648
11
169.699
21
-102.655
0
LINE
8
BLACK
6
CONTINUOUS
10
169.699
20
-102.655
11
169.68
21
-102.657
0
LINE
8
BLACK
6
CONTINUOUS
10
169.68
20
-102.657
11
169.68
21
-102.657
0
LINE
8
BLACK
6
CONTINUOUS
10
169.68
20
-102.657
11
169.674
21
-102.658
0
LINE
8
BLACK
6
CONTINUOUS
10
169.674
20
-102.658
11
169.668
21
-102.657
0
LINE
8
BLACK
6
CONTINUOUS
10
169.668
20
-102.657
11
127.68
21
-102.657
0
LINE
8
BLACK
6
CONTINUOUS
10
127.68
20
-102.657
11
127.674
21
-102.658
0
LINE
8
BLACK
6
CONTINUOUS
10
127.674
20
-102.658
11
127.668
21
-102.657
0
LINE
8
BLACK
6
CONTINUOUS
10
127.668
20
-102.657
11
127.668
21
-102.657
0
LINE
8
BLACK
6
CONTINUOUS
10
127.668
20
-102.657
11
127.649
21
-102.655
0
LINE
8
BLACK
6
CONTINUOUS
10
127.649
20
-102.655
11
127.626
21
-102.648
0
LINE
8
BLACK
6
CONTINUOUS
10
127.626
20
-102.648
11
127.604
21
-102.636
0
LINE
8
BLACK
6
CONTINUOUS
10
127.604
20
-102.636
11
127.602
21
-102.634
0
LINE
8
BLACK
6
CONTINUOUS
10
127.602
20
-102.634
11
127.59
21
-102.625
0
LINE
8
BLACK
6
CONTINUOUS
10
127.59
20
-102.625
11
127.59
21
-102.625
0
LINE
8
BLACK
6
CONTINUOUS
10
127.59
20
-102.625
11
127.585
21
-102.621
0
LINE
8
BLACK
6
CONTINUOUS
10
127.585
20
-102.621
11
127.581
21
-102.616
0
LINE
8
BLACK
6
CONTINUOUS
10
127.581
20
-102.616
11
127.34
21
-102.375
0
LINE
8
BLACK
6
CONTINUOUS
10
127.34
20
-102.375
11
127.335
21
-102.371
0
LINE
8
BLACK
6
CONTINUOUS
10
127.335
20
-102.371
11
127.331
21
-102.366
0
LINE
8
BLACK
6
CONTINUOUS
10
127.331
20
-102.366
11
127.32
21
-102.352
0
LINE
8
BLACK
6
CONTINUOUS
10
127.32
20
-102.352
11
127.308
21
-102.33
0
LINE
8
BLACK
6
CONTINUOUS
10
127.308
20
-102.33
11
127.301
21
-102.307
0
LINE
8
BLACK
6
CONTINUOUS
10
127.301
20
-102.307
11
127.298
21
-102.282
0
LINE
8
BLACK
6
CONTINUOUS
10
127.298
20
-102.282
11
127.299
21
-102.276
0
LINE
8
BLACK
6
CONTINUOUS
10
127.299
20
-102.276
11
127.299
21
-68.0381
0
LINE
8
BLACK
6
CONTINUOUS
10
127.299
20
-68.0381
11
127.298
21
-68.032
0
LINE
8
BLACK
6
CONTINUOUS
10
127.298
20
-68.032
11
127.299
21
-68.0259
0
LINE
8
BLACK
6
CONTINUOUS
10
127.299
20
-68.0259
11
127.299
21
-68.0259
0
LINE
8
BLACK
6
CONTINUOUS
10
127.299
20
-68.0259
11
127.301
21
-68.0075
0
LINE
8
BLACK
6
CONTINUOUS
10
127.301
20
-68.0075
11
127.308
21
-67.9839
0
LINE
8
BLACK
6
CONTINUOUS
10
127.308
20
-67.9839
11
127.32
21
-67.9622
0
LINE
8
BLACK
6
CONTINUOUS
10
127.32
20
-67.9622
11
127.335
21
-67.9432
0
LINE
8
BLACK
6
CONTINUOUS
10
127.335
20
-67.9432
11
127.34
21
-67.9393
0
LINE
8
BLACK
6
CONTINUOUS
10
127.34
20
-67.9393
11
127.831
21
-67.4479
0
LINE
8
BLACK
6
CONTINUOUS
10
127.831
20
-67.4479
11
127.835
21
-67.4432
0
LINE
8
BLACK
6
CONTINUOUS
10
127.835
20
-67.4432
11
127.84
21
-67.4393
0
LINE
8
BLACK
6
CONTINUOUS
10
127.84
20
-67.4393
11
127.854
21
-67.4276
0
LINE
8
BLACK
6
CONTINUOUS
10
127.854
20
-67.4276
11
127.876
21
-67.416
0
LINE
8
BLACK
6
CONTINUOUS
10
127.876
20
-67.416
11
127.899
21
-67.4088
0
LINE
8
BLACK
6
CONTINUOUS
10
127.899
20
-67.4088
11
127.918
21
-67.407
0
LINE
8
BLACK
6
CONTINUOUS
10
127.918
20
-67.407
11
127.918
21
-67.407
0
LINE
8
BLACK
6
CONTINUOUS
10
127.918
20
-67.407
11
127.924
21
-67.4064
0
LINE
8
BLACK
6
CONTINUOUS
10
127.924
20
-67.4064
11
127.93
21
-67.407
0
LINE
8
BLACK
6
CONTINUOUS
10
127.93
20
-67.407
11
169.918
21
-67.407
0
LINE
8
BLACK
6
CONTINUOUS
10
169.918
20
-67.407
11
169.924
21
-67.4064
0
LINE
8
BLACK
6
CONTINUOUS
10
169.924
20
-67.4064
11
169.93
21
-67.407
0
LINE
8
BLACK
6
CONTINUOUS
10
169.93
20
-67.407
11
169.93
21
-67.407
0
LINE
8
BLACK
6
CONTINUOUS
10
169.93
20
-67.407
11
169.949
21
-67.4088
0
LINE
8
BLACK
6
CONTINUOUS
10
169.949
20
-67.4088
11
169.972
21
-67.416
0
LINE
8
BLACK
6
CONTINUOUS
10
169.972
20
-67.416
11
169.994
21
-67.4276
0
LINE
8
BLACK
6
CONTINUOUS
10
169.994
20
-67.4276
11
170.013
21
-67.4432
0
LINE
8
BLACK
6
CONTINUOUS
10
170.013
20
-67.4432
11
170.017
21
-67.448
0
LINE
8
BLACK
6
CONTINUOUS
10
170.017
20
-67.448
11
170.508
21
-67.9393
0
LINE
8
BLACK
6
CONTINUOUS
10
170.508
20
-67.9393
11
170.513
21
-67.9432
0
LINE
8
BLACK
6
CONTINUOUS
10
170.513
20
-67.9432
11
170.517
21
-67.9479
0
LINE
8
BLACK
6
CONTINUOUS
10
170.517
20
-67.9479
11
170.528
21
-67.9622
0
LINE
8
BLACK
6
CONTINUOUS
10
170.528
20
-67.9622
11
170.528
21
-67.9622
0
LINE
8
BLACK
6
CONTINUOUS
10
170.528
20
-67.9622
11
170.54
21
-67.9839
0
LINE
8
BLACK
6
CONTINUOUS
10
170.54
20
-67.9839
11
170.547
21
-68.0075
0
LINE
8
BLACK
6
CONTINUOUS
10
170.547
20
-68.0075
11
170.549
21
-68.0259
0
LINE
8
BLACK
6
CONTINUOUS
10
170.549
20
-68.0259
11
170.549
21
-68.0259
0
LINE
8
BLACK
6
CONTINUOUS
10
170.549
20
-68.0259
11
170.55
21
-68.032
0
LINE
8
BLACK
6
CONTINUOUS
10
170.55
20
-68.032
11
170.549
21
-68.0381
0
LINE
8
BLACK
6
CONTINUOUS
10
170.549
20
-68.0381
11
170.549
21
-102.526
0
LINE
8
BLACK
6
CONTINUOUS
10
170.549
20
-102.526
11
170.55
21
-102.532
0
LINE
8
BLACK
6
CONTINUOUS
10
170.55
20
-102.532
11
170.549
21
-102.538
0
LINE
8
BLACK
6
CONTINUOUS
10
170.549
20
-102.538
11
170.549
21
-102.538
0
LINE
8
BLACK
6
CONTINUOUS
10
170.549
20
-102.538
11
170.547
21
-102.557
0
LINE
8
BLACK
6
CONTINUOUS
10
170.547
20
-102.557
11
170.54
21
-102.58
0
LINE
8
BLACK
6
CONTINUOUS
10
170.54
20
-102.58
11
170.54
21
-102.58
0
LINE
8
BLACK
6
CONTINUOUS
10
170.54
20
-102.58
11
170.528
21
-102.602
0
LINE
8
BLACK
6
CONTINUOUS
10
170.528
20
-102.602
11
170.517
21
-102.616
0
LINE
8
BLACK
6
CONTINUOUS
10
170.517
20
-102.616
11
170.513
21
-102.621
0
LINE
8
BLACK
6
CONTINUOUS
10
170.513
20
-102.621
11
170.508
21
-102.625
0
LINE
8
BLACK
6
CONTINUOUS
10
170.508
20
-102.625
11
170.017
21
-103.116
0
LINE
8
BLACK
6
CONTINUOUS
10
170.017
20
-103.116
11
170.013
21
-103.121
0
LINE
8
BLACK
6
CONTINUOUS
10
170.013
20
-103.121
11
169.994
21
-103.136
0
LINE
8
BLACK
6
CONTINUOUS
10
169.994
20
-103.136
11
169.972
21
-103.148
0
LINE
8
BLACK
6
CONTINUOUS
10
169.972
20
-103.148
11
169.949
21
-103.155
0
LINE
8
BLACK
6
CONTINUOUS
10
169.949
20
-103.155
11
169.93
21
-103.157
0
LINE
8
BLACK
6
CONTINUOUS
10
169.93
20
-103.157
11
169.93
21
-103.157
0
LINE
8
BLACK
6
CONTINUOUS
10
169.93
20
-103.157
11
169.924
21
-103.158
0
LINE
8
BLACK
6
CONTINUOUS
10
169.924
20
-103.158
11
169.918
21
-103.157
0
LINE
8
BLACK
6
CONTINUOUS
10
169.918
20
-103.157
11
127.43
21
-103.157
0
LINE
8
BLACK
6
CONTINUOUS
10
127.43
20
-103.157
11
127.424
21
-103.158
0
LINE
8
BLACK
6
CONTINUOUS
10
127.424
20
-103.158
11
127.418
21
-103.157
0
LINE
8
BLACK
6
CONTINUOUS
10
127.418
20
-103.157
11
127.418
21
-103.157
0
LINE
8
BLACK
6
CONTINUOUS
10
127.418
20
-103.157
11
127.399
21
-103.155
0
LINE
8
BLACK
6
CONTINUOUS
10
127.399
20
-103.155
11
127.376
21
-103.148
0
LINE
8
BLACK
6
CONTINUOUS
10
127.376
20
-103.148
11
127.354
21
-103.136
0
LINE
8
BLACK
6
CONTINUOUS
10
127.354
20
-103.136
11
127.34
21
-103.125
0
LINE
8
BLACK
6
CONTINUOUS
10
127.34
20
-103.125
11
127.335
21
-103.121
0
LINE
8
BLACK
6
CONTINUOUS
10
127.335
20
-103.121
11
127.331
21
-103.116
0
LINE
8
BLACK
6
CONTINUOUS
10
127.331
20
-103.116
11
126.84
21
-102.625
0
LINE
8
BLACK
6
CONTINUOUS
10
126.84
20
-102.625
11
126.835
21
-102.621
0
LINE
8
BLACK
6
CONTINUOUS
10
126.835
20
-102.621
11
126.831
21
-102.616
0
LINE
8
BLACK
6
CONTINUOUS
10
126.831
20
-102.616
11
126.82
21
-102.602
0
LINE
8
BLACK
6
CONTINUOUS
10
126.82
20
-102.602
11
126.808
21
-102.58
0
LINE
8
BLACK
6
CONTINUOUS
10
126.808
20
-102.58
11
126.801
21
-102.557
0
LINE
8
BLACK
6
CONTINUOUS
10
126.801
20
-102.557
11
126.798
21
-102.532
0
LINE
8
BLACK
6
CONTINUOUS
10
126.798
20
-102.532
11
126.799
21
-102.526
0
LINE
8
BLACK
6
CONTINUOUS
10
126.799
20
-102.526
11
126.799
21
-67.7881
0
LINE
8
BLACK
6
CONTINUOUS
10
126.799
20
-67.7881
11
126.798
21
-67.782
0
LINE
8
BLACK
6
CONTINUOUS
10
126.798
20
-67.782
11
126.799
21
-67.7759
0
LINE
8
BLACK
6
CONTINUOUS
10
126.799
20
-67.7759
11
126.799
21
-67.7759
0
LINE
8
BLACK
6
CONTINUOUS
10
126.799
20
-67.7759
11
126.801
21
-67.7575
0
LINE
8
BLACK
6
CONTINUOUS
10
126.801
20
-67.7575
11
126.808
21
-67.7339
0
LINE
8
BLACK
6
CONTINUOUS
10
126.808
20
-67.7339
11
126.82
21
-67.7122
0
LINE
8
BLACK
6
CONTINUOUS
10
126.82
20
-67.7122
11
126.835
21
-67.6932
0
LINE
8
BLACK
6
CONTINUOUS
10
126.835
20
-67.6932
11
126.84
21
-67.6893
0
LINE
8
BLACK
6
CONTINUOUS
10
126.84
20
-67.6893
11
127.581
21
-66.9479
0
LINE
8
BLACK
6
CONTINUOUS
10
127.581
20
-66.9479
11
127.585
21
-66.9432
0
LINE
8
BLACK
6
CONTINUOUS
10
127.585
20
-66.9432
11
127.59
21
-66.9393
0
LINE
8
BLACK
6
CONTINUOUS
10
127.59
20
-66.9393
11
127.59
21
-66.9393
0
LINE
8
BLACK
6
CONTINUOUS
10
127.59
20
-66.9393
11
127.604
21
-66.9276
0
LINE
8
BLACK
6
CONTINUOUS
10
127.604
20
-66.9276
11
127.626
21
-66.916
0
LINE
8
BLACK
6
CONTINUOUS
10
127.626
20
-66.916
11
127.649
21
-66.9088
0
LINE
8
BLACK
6
CONTINUOUS
10
127.649
20
-66.9088
11
127.668
21
-66.907
0
LINE
8
BLACK
6
CONTINUOUS
10
127.668
20
-66.907
11
127.668
21
-66.907
0
LINE
8
BLACK
6
CONTINUOUS
10
127.668
20
-66.907
11
127.674
21
-66.9064
0
LINE
8
BLACK
6
CONTINUOUS
10
127.674
20
-66.9064
11
127.68
21
-66.907
0
LINE
8
BLACK
6
CONTINUOUS
10
127.68
20
-66.907
11
170.168
21
-66.907
0
LINE
8
BLACK
6
CONTINUOUS
10
170.168
20
-66.907
11
170.174
21
-66.9064
0
LINE
8
BLACK
6
CONTINUOUS
10
170.174
20
-66.9064
11
170.18
21
-66.907
0
LINE
8
BLACK
6
CONTINUOUS
10
170.18
20
-66.907
11
170.18
21
-66.907
0
LINE
8
BLACK
6
CONTINUOUS
10
170.18
20
-66.907
11
170.199
21
-66.9088
0
LINE
8
BLACK
6
CONTINUOUS
10
170.199
20
-66.9088
11
170.222
21
-66.916
0
LINE
8
BLACK
6
CONTINUOUS
10
170.222
20
-66.916
11
170.244
21
-66.9276
0
LINE
8
BLACK
6
CONTINUOUS
10
170.244
20
-66.9276
11
170.263
21
-66.9432
0
LINE
8
BLACK
6
CONTINUOUS
10
170.263
20
-66.9432
11
170.267
21
-66.948
0
LINE
8
BLACK
6
CONTINUOUS
10
170.267
20
-66.948
11
171.008
21
-67.6893
0
LINE
8
BLACK
6
CONTINUOUS
10
171.008
20
-67.6893
11
171.013
21
-67.6932
0
LINE
8
BLACK
6
CONTINUOUS
10
171.013
20
-67.6932
11
171.017
21
-67.6979
0
LINE
8
BLACK
6
CONTINUOUS
10
171.017
20
-67.6979
11
171.017
21
-67.6979
0
LINE
8
BLACK
6
CONTINUOUS
10
171.017
20
-67.6979
11
171.028
21
-67.7122
0
LINE
8
BLACK
6
CONTINUOUS
10
171.028
20
-67.7122
11
171.04
21
-67.7339
0
LINE
8
BLACK
6
CONTINUOUS
10
171.04
20
-67.7339
11
171.047
21
-67.7575
0
LINE
8
BLACK
6
CONTINUOUS
10
171.047
20
-67.7575
11
171.049
21
-67.7759
0
LINE
8
BLACK
6
CONTINUOUS
10
171.049
20
-67.7759
11
171.049
21
-67.7759
0
LINE
8
BLACK
6
CONTINUOUS
10
171.049
20
-67.7759
11
171.05
21
-67.782
0
LINE
8
BLACK
6
CONTINUOUS
10
171.05
20
-67.782
11
171.049
21
-67.7881
0
LINE
8
BLACK
6
CONTINUOUS
10
171.049
20
-67.7881
11
171.049
21
-102.776
0
LINE
8
BLACK
6
CONTINUOUS
10
171.049
20
-102.776
11
171.05
21
-102.782
0
LINE
8
BLACK
6
CONTINUOUS
10
171.05
20
-102.782
11
171.049
21
-102.788
0
LINE
8
BLACK
6
CONTINUOUS
10
171.049
20
-102.788
11
171.049
21
-102.788
0
LINE
8
BLACK
6
CONTINUOUS
10
171.049
20
-102.788
11
171.047
21
-102.807
0
LINE
8
BLACK
6
CONTINUOUS
10
171.047
20
-102.807
11
171.04
21
-102.83
0
LINE
8
BLACK
6
CONTINUOUS
10
171.04
20
-102.83
11
171.04
21
-102.83
0
LINE
8
BLACK
6
CONTINUOUS
10
171.04
20
-102.83
11
171.028
21
-102.852
0
LINE
8
BLACK
6
CONTINUOUS
10
171.028
20
-102.852
11
171.017
21
-102.866
0
LINE
8
BLACK
6
CONTINUOUS
10
171.017
20
-102.866
11
171.017
21
-102.866
0
LINE
8
BLACK
6
CONTINUOUS
10
171.017
20
-102.866
11
171.013
21
-102.871
0
LINE
8
BLACK
6
CONTINUOUS
10
171.013
20
-102.871
11
171.008
21
-102.875
0
LINE
8
BLACK
6
CONTINUOUS
10
171.008
20
-102.875
11
170.267
21
-103.616
0
LINE
8
BLACK
6
CONTINUOUS
10
170.267
20
-103.616
11
170.263
21
-103.621
0
LINE
8
BLACK
6
CONTINUOUS
10
170.263
20
-103.621
11
170.244
21
-103.636
0
LINE
8
BLACK
6
CONTINUOUS
10
170.244
20
-103.636
11
170.222
21
-103.648
0
LINE
8
BLACK
6
CONTINUOUS
10
170.222
20
-103.648
11
170.199
21
-103.655
0
LINE
8
BLACK
6
CONTINUOUS
10
170.199
20
-103.655
11
170.18
21
-103.657
0
LINE
8
BLACK
6
CONTINUOUS
10
170.18
20
-103.657
11
170.18
21
-103.657
0
LINE
8
BLACK
6
CONTINUOUS
10
170.18
20
-103.657
11
170.174
21
-103.658
0
LINE
8
BLACK
6
CONTINUOUS
10
170.174
20
-103.658
11
170.168
21
-103.657
0
LINE
8
BLACK
6
CONTINUOUS
10
170.168
20
-103.657
11
127.18
21
-103.657
0
LINE
8
BLACK
6
CONTINUOUS
10
127.18
20
-103.657
11
127.174
21
-103.658
0
LINE
8
BLACK
6
CONTINUOUS
10
127.174
20
-103.658
11
127.168
21
-103.657
0
LINE
8
BLACK
6
CONTINUOUS
10
127.168
20
-103.657
11
127.168
21
-103.657
0
LINE
8
BLACK
6
CONTINUOUS
10
127.168
20
-103.657
11
127.149
21
-103.655
0
LINE
8
BLACK
6
CONTINUOUS
10
127.149
20
-103.655
11
127.126
21
-103.648
0
LINE
8
BLACK
6
CONTINUOUS
10
127.126
20
-103.648
11
127.104
21
-103.636
0
LINE
8
BLACK
6
CONTINUOUS
10
127.104
20
-103.636
11
127.09
21
-103.625
0
LINE
8
BLACK
6
CONTINUOUS
10
127.09
20
-103.625
11
127.09
21
-103.625
0
LINE
8
BLACK
6
CONTINUOUS
10
127.09
20
-103.625
11
127.085
21
-103.621
0
LINE
8
BLACK
6
CONTINUOUS
10
127.085
20
-103.621
11
127.081
21
-103.616
0
LINE
8
BLACK
6
CONTINUOUS
10
127.081
20
-103.616
11
126.34
21
-102.875
0
LINE
8
BLACK
6
CONTINUOUS
10
126.34
20
-102.875
11
126.335
21
-102.871
0
LINE
8
BLACK
6
CONTINUOUS
10
126.335
20
-102.871
11
126.331
21
-102.866
0
LINE
8
BLACK
6
CONTINUOUS
10
126.331
20
-102.866
11
126.32
21
-102.852
0
LINE
8
BLACK
6
CONTINUOUS
10
126.32
20
-102.852
11
126.308
21
-102.83
0
LINE
8
BLACK
6
CONTINUOUS
10
126.308
20
-102.83
11
126.301
21
-102.807
0
LINE
8
BLACK
6
CONTINUOUS
10
126.301
20
-102.807
11
126.298
21
-102.782
0
LINE
8
BLACK
6
CONTINUOUS
10
126.298
20
-102.782
11
126.299
21
-102.776
0
LINE
8
BLACK
6
CONTINUOUS
10
126.299
20
-102.776
11
126.299
21
-67.5381
0
LINE
8
BLACK
6
CONTINUOUS
10
126.299
20
-67.5381
11
126.298
21
-67.532
0
LINE
8
BLACK
6
CONTINUOUS
10
126.298
20
-67.532
11
126.299
21
-67.5259
0
LINE
8
BLACK
6
CONTINUOUS
10
126.299
20
-67.5259
11
126.299
21
-67.5259
0
LINE
8
BLACK
6
CONTINUOUS
10
126.299
20
-67.5259
11
126.301
21
-67.5075
0
LINE
8
BLACK
6
CONTINUOUS
10
126.301
20
-67.5075
11
126.308
21
-67.4839
0
LINE
8
BLACK
6
CONTINUOUS
10
126.308
20
-67.4839
11
126.32
21
-67.4622
0
LINE
8
BLACK
6
CONTINUOUS
10
126.32
20
-67.4622
11
126.335
21
-67.4432
0
LINE
8
BLACK
6
CONTINUOUS
10
126.335
20
-67.4432
11
126.34
21
-67.4393
0
LINE
8
BLACK
6
CONTINUOUS
10
126.34
20
-67.4393
11
127.331
21
-66.4479
0
LINE
8
BLACK
6
CONTINUOUS
10
127.331
20
-66.4479
11
127.335
21
-66.4432
0
LINE
8
BLACK
6
CONTINUOUS
10
127.335
20
-66.4432
11
127.34
21
-66.4393
0
LINE
8
BLACK
6
CONTINUOUS
10
127.34
20
-66.4393
11
127.34
21
-66.4393
0
LINE
8
BLACK
6
CONTINUOUS
10
127.34
20
-66.4393
11
127.354
21
-66.4276
0
LINE
8
BLACK
6
CONTINUOUS
10
127.354
20
-66.4276
11
127.376
21
-66.416
0
LINE
8
BLACK
6
CONTINUOUS
10
127.376
20
-66.416
11
127.399
21
-66.4088
0
LINE
8
BLACK
6
CONTINUOUS
10
127.399
20
-66.4088
11
127.418
21
-66.407
0
LINE
8
BLACK
6
CONTINUOUS
10
127.418
20
-66.407
11
127.418
21
-66.407
0
LINE
8
BLACK
6
CONTINUOUS
10
127.418
20
-66.407
11
127.424
21
-66.4064
0
LINE
8
BLACK
6
CONTINUOUS
10
127.424
20
-66.4064
11
127.43
21
-66.407
0
LINE
8
BLACK
6
CONTINUOUS
10
127.43
20
-66.407
11
170.418
21
-66.407
0
LINE
8
BLACK
6
CONTINUOUS
10
170.418
20
-66.407
11
170.424
21
-66.4064
0
LINE
8
BLACK
6
CONTINUOUS
10
170.424
20
-66.4064
11
170.43
21
-66.407
0
LINE
8
BLACK
6
CONTINUOUS
10
170.43
20
-66.407
11
170.43
21
-66.407
0
LINE
8
BLACK
6
CONTINUOUS
10
170.43
20
-66.407
11
170.449
21
-66.4088
0
LINE
8
BLACK
6
CONTINUOUS
10
170.449
20
-66.4088
11
170.472
21
-66.416
0
LINE
8
BLACK
6
CONTINUOUS
10
170.472
20
-66.416
11
170.494
21
-66.4276
0
LINE
8
BLACK
6
CONTINUOUS
10
170.494
20
-66.4276
11
170.513
21
-66.4432
0
LINE
8
BLACK
6
CONTINUOUS
10
170.513
20
-66.4432
11
170.517
21
-66.448
0
LINE
8
BLACK
6
CONTINUOUS
10
170.517
20
-66.448
11
171.508
21
-67.4393
0
LINE
8
BLACK
6
CONTINUOUS
10
171.508
20
-67.4393
11
171.513
21
-67.4432
0
LINE
8
BLACK
6
CONTINUOUS
10
171.513
20
-67.4432
11
171.517
21
-67.4479
0
LINE
8
BLACK
6
CONTINUOUS
10
171.517
20
-67.4479
11
171.517
21
-67.4479
0
LINE
8
BLACK
6
CONTINUOUS
10
171.517
20
-67.4479
11
171.528
21
-67.4622
0
LINE
8
BLACK
6
CONTINUOUS
10
171.528
20
-67.4622
11
171.54
21
-67.4839
0
LINE
8
BLACK
6
CONTINUOUS
10
171.54
20
-67.4839
11
171.547
21
-67.5075
0
LINE
8
BLACK
6
CONTINUOUS
10
171.547
20
-67.5075
11
171.549
21
-67.5259
0
LINE
8
BLACK
6
CONTINUOUS
10
171.549
20
-67.5259
11
171.549
21
-67.5259
0
LINE
8
BLACK
6
CONTINUOUS
10
171.549
20
-67.5259
11
171.55
21
-67.532
0
LINE
8
BLACK
6
CONTINUOUS
10
171.55
20
-67.532
11
171.549
21
-67.5381
0
LINE
8
BLACK
6
CONTINUOUS
10
171.549
20
-67.5381
11
171.549
21
-103.026
0
LINE
8
BLACK
6
CONTINUOUS
10
171.549
20
-103.026
11
171.55
21
-103.032
0
LINE
8
BLACK
6
CONTINUOUS
10
171.55
20
-103.032
11
171.549
21
-103.038
0
LINE
8
BLACK
6
CONTINUOUS
10
171.549
20
-103.038
11
171.549
21
-103.038
0
LINE
8
BLACK
6
CONTINUOUS
10
171.549
20
-103.038
11
171.547
21
-103.057
0
LINE
8
BLACK
6
CONTINUOUS
10
171.547
20
-103.057
11
171.54
21
-103.08
0
LINE
8
BLACK
6
CONTINUOUS
10
171.54
20
-103.08
11
171.528
21
-103.102
0
LINE
8
BLACK
6
CONTINUOUS
10
171.528
20
-103.102
11
171.517
21
-103.116
0
LINE
8
BLACK
6
CONTINUOUS
10
171.517
20
-103.116
11
171.517
21
-103.116
0
LINE
8
BLACK
6
CONTINUOUS
10
171.517
20
-103.116
11
171.513
21
-103.121
0
LINE
8
BLACK
6
CONTINUOUS
10
171.513
20
-103.121
11
171.508
21
-103.125
0
LINE
8
BLACK
6
CONTINUOUS
10
171.508
20
-103.125
11
170.517
21
-104.116
0
LINE
8
BLACK
6
CONTINUOUS
10
170.517
20
-104.116
11
170.513
21
-104.121
0
LINE
8
BLACK
6
CONTINUOUS
10
170.513
20
-104.121
11
170.494
21
-104.136
0
LINE
8
BLACK
6
CONTINUOUS
10
170.494
20
-104.136
11
170.472
21
-104.148
0
LINE
8
BLACK
6
CONTINUOUS
10
170.472
20
-104.148
11
170.449
21
-104.155
0
LINE
8
BLACK
6
CONTINUOUS
10
170.449
20
-104.155
11
170.43
21
-104.157
0
LINE
8
BLACK
6
CONTINUOUS
10
170.43
20
-104.157
11
170.43
21
-104.157
0
LINE
8
BLACK
6
CONTINUOUS
10
170.43
20
-104.157
11
170.424
21
-104.158
0
LINE
8
BLACK
6
CONTINUOUS
10
170.424
20
-104.158
11
170.418
21
-104.157
0
LINE
8
BLACK
6
CONTINUOUS
10
170.418
20
-104.157
11
126.93
21
-104.157
0
LINE
8
BLACK
6
CONTINUOUS
10
126.93
20
-104.157
11
126.924
21
-104.158
0
LINE
8
BLACK
6
CONTINUOUS
10
126.924
20
-104.158
11
126.918
21
-104.157
0
LINE
8
BLACK
6
CONTINUOUS
10
126.918
20
-104.157
11
126.918
21
-104.157
0
LINE
8
BLACK
6
CONTINUOUS
10
126.918
20
-104.157
11
126.899
21
-104.155
0
LINE
8
BLACK
6
CONTINUOUS
10
126.899
20
-104.155
11
126.876
21
-104.148
0
LINE
8
BLACK
6
CONTINUOUS
10
126.876
20
-104.148
11
126.854
21
-104.136
0
LINE
8
BLACK
6
CONTINUOUS
10
126.854
20
-104.136
11
126.84
21
-104.125
0
LINE
8
BLACK
6
CONTINUOUS
10
126.84
20
-104.125
11
126.84
21
-104.125
0
LINE
8
BLACK
6
CONTINUOUS
10
126.84
20
-104.125
11
126.835
21
-104.121
0
LINE
8
BLACK
6
CONTINUOUS
10
126.835
20
-104.121
11
126.831
21
-104.116
0
LINE
8
BLACK
6
CONTINUOUS
10
126.831
20
-104.116
11
125.84
21
-103.125
0
LINE
8
BLACK
6
CONTINUOUS
10
125.84
20
-103.125
11
125.835
21
-103.121
0
LINE
8
BLACK
6
CONTINUOUS
10
125.835
20
-103.121
11
125.831
21
-103.116
0
LINE
8
BLACK
6
CONTINUOUS
10
125.831
20
-103.116
11
125.82
21
-103.102
0
LINE
8
BLACK
6
CONTINUOUS
10
125.82
20
-103.102
11
125.808
21
-103.08
0
LINE
8
BLACK
6
CONTINUOUS
10
125.808
20
-103.08
11
125.801
21
-103.057
0
LINE
8
BLACK
6
CONTINUOUS
10
125.801
20
-103.057
11
125.798
21
-103.032
0
LINE
8
BLACK
6
CONTINUOUS
10
125.798
20
-103.032
11
125.799
21
-103.026
0
LINE
8
BLACK
6
CONTINUOUS
10
125.799
20
-103.026
11
125.799
21
-67.2881
0
LINE
8
BLACK
6
CONTINUOUS
10
125.799
20
-67.2881
11
125.798
21
-67.282
0
LINE
8
BLACK
6
CONTINUOUS
10
125.798
20
-67.282
11
125.799
21
-67.2759
0
LINE
8
BLACK
6
CONTINUOUS
10
125.799
20
-67.2759
11
125.799
21
-67.2759
0
LINE
8
BLACK
6
CONTINUOUS
10
125.799
20
-67.2759
11
125.801
21
-67.2575
0
LINE
8
BLACK
6
CONTINUOUS
10
125.801
20
-67.2575
11
125.808
21
-67.2339
0
LINE
8
BLACK
6
CONTINUOUS
10
125.808
20
-67.2339
11
125.82
21
-67.2122
0
LINE
8
BLACK
6
CONTINUOUS
10
125.82
20
-67.2122
11
125.835
21
-67.1932
0
LINE
8
BLACK
6
CONTINUOUS
10
125.835
20
-67.1932
11
125.84
21
-67.1893
0
LINE
8
BLACK
6
CONTINUOUS
10
125.84
20
-67.1893
11
127.081
21
-65.9479
0
LINE
8
BLACK
6
CONTINUOUS
10
127.081
20
-65.9479
11
127.085
21
-65.9432
0
LINE
8
BLACK
6
CONTINUOUS
10
127.085
20
-65.9432
11
127.09
21
-65.9393
0
LINE
8
BLACK
6
CONTINUOUS
10
127.09
20
-65.9393
11
127.104
21
-65.9276
0
LINE
8
BLACK
6
CONTINUOUS
10
127.104
20
-65.9276
11
127.126
21
-65.916
0
LINE
8
BLACK
6
CONTINUOUS
10
127.126
20
-65.916
11
127.149
21
-65.9088
0
LINE
8
BLACK
6
CONTINUOUS
10
127.149
20
-65.9088
11
127.168
21
-65.907
0
LINE
8
BLACK
6
CONTINUOUS
10
127.168
20
-65.907
11
127.168
21
-65.907
0
LINE
8
BLACK
6
CONTINUOUS
10
127.168
20
-65.907
11
127.174
21
-65.9064
0
LINE
8
BLACK
6
CONTINUOUS
10
127.174
20
-65.9064
11
127.18
21
-65.907
0
LINE
8
BLACK
6
CONTINUOUS
10
127.18
20
-65.907
11
170.668
21
-65.907
0
LINE
8
BLACK
6
CONTINUOUS
10
170.668
20
-65.907
11
170.674
21
-65.9064
0
LINE
8
BLACK
6
CONTINUOUS
10
170.674
20
-65.9064
11
170.68
21
-65.907
0
LINE
8
BLACK
6
CONTINUOUS
10
170.68
20
-65.907
11
170.68
21
-65.907
0
LINE
8
BLACK
6
CONTINUOUS
10
170.68
20
-65.907
11
170.699
21
-65.9088
0
LINE
8
BLACK
6
CONTINUOUS
10
170.699
20
-65.9088
11
170.722
21
-65.916
0
LINE
8
BLACK
6
CONTINUOUS
10
170.722
20
-65.916
11
170.744
21
-65.9276
0
LINE
8
BLACK
6
CONTINUOUS
10
170.744
20
-65.9276
11
170.763
21
-65.9432
0
LINE
8
BLACK
6
CONTINUOUS
10
170.763
20
-65.9432
11
170.767
21
-65.948
0
LINE
8
BLACK
6
CONTINUOUS
10
170.767
20
-65.948
11
172.008
21
-67.1893
0
LINE
8
BLACK
6
CONTINUOUS
10
172.008
20
-67.1893
11
172.013
21
-67.1932
0
LINE
8
BLACK
6
CONTINUOUS
10
172.013
20
-67.1932
11
172.017
21
-67.1979
0
LINE
8
BLACK
6
CONTINUOUS
10
172.017
20
-67.1979
11
172.028
21
-67.2122
0
LINE
8
BLACK
6
CONTINUOUS
10
172.028
20
-67.2122
11
172.04
21
-67.2339
0
LINE
8
BLACK
6
CONTINUOUS
10
172.04
20
-67.2339
11
172.047
21
-67.2575
0
LINE
8
BLACK
6
CONTINUOUS
10
172.047
20
-67.2575
11
172.049
21
-67.2759
0
LINE
8
BLACK
6
CONTINUOUS
10
172.049
20
-67.2759
11
172.049
21
-67.2759
0
LINE
8
BLACK
6
CONTINUOUS
10
172.049
20
-67.2759
11
172.05
21
-67.282
0
LINE
8
BLACK
6
CONTINUOUS
10
172.05
20
-67.282
11
172.049
21
-67.2881
0
LINE
8
BLACK
6
CONTINUOUS
10
172.049
20
-67.2881
11
172.049
21
-103.276
0
LINE
8
BLACK
6
CONTINUOUS
10
172.049
20
-103.276
11
172.05
21
-103.282
0
LINE
8
BLACK
6
CONTINUOUS
10
172.05
20
-103.282
11
172.049
21
-103.288
0
LINE
8
BLACK
6
CONTINUOUS
10
172.049
20
-103.288
11
172.049
21
-103.288
0
LINE
8
BLACK
6
CONTINUOUS
10
172.049
20
-103.288
11
172.047
21
-103.307
0
LINE
8
BLACK
6
CONTINUOUS
10
172.047
20
-103.307
11
172.04
21
-103.33
0
LINE
8
BLACK
6
CONTINUOUS
10
172.04
20
-103.33
11
172.04
21
-103.33
0
LINE
8
BLACK
6
CONTINUOUS
10
172.04
20
-103.33
11
172.028
21
-103.352
0
LINE
8
BLACK
6
CONTINUOUS
10
172.028
20
-103.352
11
172.017
21
-103.366
0
LINE
8
BLACK
6
CONTINUOUS
10
172.017
20
-103.366
11
172.013
21
-103.371
0
LINE
8
BLACK
6
CONTINUOUS
10
172.013
20
-103.371
11
172.008
21
-103.375
0
LINE
8
BLACK
6
CONTINUOUS
10
172.008
20
-103.375
11
170.767
21
-104.616
0
LINE
8
BLACK
6
CONTINUOUS
10
170.767
20
-104.616
11
170.763
21
-104.621
0
LINE
8
BLACK
6
CONTINUOUS
10
170.763
20
-104.621
11
170.744
21
-104.636
0
LINE
8
BLACK
6
CONTINUOUS
10
170.744
20
-104.636
11
170.722
21
-104.648
0
LINE
8
BLACK
6
CONTINUOUS
10
170.722
20
-104.648
11
170.699
21
-104.655
0
LINE
8
BLACK
6
CONTINUOUS
10
170.699
20
-104.655
11
170.68
21
-104.657
0
LINE
8
BLACK
6
CONTINUOUS
10
170.68
20
-104.657
11
170.68
21
-104.657
0
LINE
8
BLACK
6
CONTINUOUS
10
170.68
20
-104.657
11
170.674
21
-104.658
0
LINE
8
BLACK
6
CONTINUOUS
10
170.674
20
-104.658
11
170.668
21
-104.657
0
LINE
8
BLACK
6
CONTINUOUS
10
170.668
20
-104.657
11
126.68
21
-104.657
0
LINE
8
BLACK
6
CONTINUOUS
10
126.68
20
-104.657
11
126.674
21
-104.658
0
LINE
8
BLACK
6
CONTINUOUS
10
126.674
20
-104.658
11
126.668
21
-104.657
0
LINE
8
BLACK
6
CONTINUOUS
10
126.668
20
-104.657
11
126.668
21
-104.657
0
LINE
8
BLACK
6
CONTINUOUS
10
126.668
20
-104.657
11
126.649
21
-104.655
0
LINE
8
BLACK
6
CONTINUOUS
10
126.649
20
-104.655
11
126.626
21
-104.648
0
LINE
8
BLACK
6
CONTINUOUS
10
126.626
20
-104.648
11
126.604
21
-104.636
0
LINE
8
BLACK
6
CONTINUOUS
10
126.604
20
-104.636
11
126.59
21
-104.625
0
LINE
8
BLACK
6
CONTINUOUS
10
126.59
20
-104.625
11
126.585
21
-104.621
0
LINE
8
BLACK
6
CONTINUOUS
10
126.585
20
-104.621
11
126.581
21
-104.616
0
LINE
8
BLACK
6
CONTINUOUS
10
126.581
20
-104.616
11
125.34
21
-103.375
0
LINE
8
BLACK
6
CONTINUOUS
10
125.34
20
-103.375
11
125.335
21
-103.371
0
LINE
8
BLACK
6
CONTINUOUS
10
125.335
20
-103.371
11
125.331
21
-103.366
0
LINE
8
BLACK
6
CONTINUOUS
10
125.331
20
-103.366
11
125.32
21
-103.352
0
LINE
8
BLACK
6
CONTINUOUS
10
125.32
20
-103.352
11
125.308
21
-103.33
0
LINE
8
BLACK
6
CONTINUOUS
10
125.308
20
-103.33
11
125.301
21
-103.307
0
LINE
8
BLACK
6
CONTINUOUS
10
125.301
20
-103.307
11
125.298
21
-103.282
0
LINE
8
BLACK
6
CONTINUOUS
10
125.298
20
-103.282
11
125.299
21
-103.276
0
LINE
8
BLACK
6
CONTINUOUS
10
125.299
20
-103.276
11
125.299
21
-67.0381
0
LINE
8
BLACK
6
CONTINUOUS
10
125.299
20
-67.0381
11
125.298
21
-67.032
0
LINE
8
BLACK
6
CONTINUOUS
10
125.298
20
-67.032
11
125.299
21
-67.0259
0
LINE
8
BLACK
6
CONTINUOUS
10
125.299
20
-67.0259
11
125.299
21
-67.0259
0
LINE
8
BLACK
6
CONTINUOUS
10
125.299
20
-67.0259
11
125.301
21
-67.0075
0
LINE
8
BLACK
6
CONTINUOUS
10
125.301
20
-67.0075
11
125.308
21
-66.9839
0
LINE
8
BLACK
6
CONTINUOUS
10
125.308
20
-66.9839
11
125.32
21
-66.9622
0
LINE
8
BLACK
6
CONTINUOUS
10
125.32
20
-66.9622
11
125.335
21
-66.9432
0
LINE
8
BLACK
6
CONTINUOUS
10
125.335
20
-66.9432
11
125.34
21
-66.9393
0
LINE
8
BLACK
6
CONTINUOUS
10
125.34
20
-66.9393
11
126.831
21
-65.4479
0
LINE
8
BLACK
6
CONTINUOUS
10
126.831
20
-65.4479
11
126.835
21
-65.4432
0
LINE
8
BLACK
6
CONTINUOUS
10
126.835
20
-65.4432
11
126.84
21
-65.4393
0
LINE
8
BLACK
6
CONTINUOUS
10
126.84
20
-65.4393
11
126.84
21
-65.4393
0
LINE
8
BLACK
6
CONTINUOUS
10
126.84
20
-65.4393
11
126.854
21
-65.4276
0
LINE
8
BLACK
6
CONTINUOUS
10
126.854
20
-65.4276
11
126.854
21
-65.4276
0
LINE
8
BLACK
6
CONTINUOUS
10
126.854
20
-65.4276
11
126.854
21
-65.4276
0
LINE
8
BLACK
6
CONTINUOUS
10
126.854
20
-65.4276
11
126.876
21
-65.416
0
LINE
8
BLACK
6
CONTINUOUS
10
126.876
20
-65.416
11
126.899
21
-65.4088
0
LINE
8
BLACK
6
CONTINUOUS
10
126.899
20
-65.4088
11
126.918
21
-65.407
0
LINE
8
BLACK
6
CONTINUOUS
10
126.918
20
-65.407
11
126.918
21
-65.407
0
LINE
8
BLACK
6
CONTINUOUS
10
126.918
20
-65.407
11
126.924
21
-65.4064
0
LINE
8
BLACK
6
CONTINUOUS
10
126.924
20
-65.4064
11
126.93
21
-65.407
0
LINE
8
BLACK
6
CONTINUOUS
10
126.93
20
-65.407
11
170.918
21
-65.407
0
LINE
8
BLACK
6
CONTINUOUS
10
170.918
20
-65.407
11
170.924
21
-65.4064
0
LINE
8
BLACK
6
CONTINUOUS
10
170.924
20
-65.4064
11
170.93
21
-65.407
0
LINE
8
BLACK
6
CONTINUOUS
10
170.93
20
-65.407
11
170.93
21
-65.407
0
LINE
8
BLACK
6
CONTINUOUS
10
170.93
20
-65.407
11
170.949
21
-65.4088
0
LINE
8
BLACK
6
CONTINUOUS
10
170.949
20
-65.4088
11
170.972
21
-65.416
0
LINE
8
BLACK
6
CONTINUOUS
10
170.972
20
-65.416
11
170.994
21
-65.4276
0
LINE
8
BLACK
6
CONTINUOUS
10
170.994
20
-65.4276
11
171.013
21
-65.4432
0
LINE
8
BLACK
6
CONTINUOUS
10
171.013
20
-65.4432
11
171.017
21
-65.448
0
LINE
8
BLACK
6
CONTINUOUS
10
171.017
20
-65.448
11
172.508
21
-66.9393
0
LINE
8
BLACK
6
CONTINUOUS
10
172.508
20
-66.9393
11
172.513
21
-66.9432
0
LINE
8
BLACK
6
CONTINUOUS
10
172.513
20
-66.9432
11
172.517
21
-66.9479
0
LINE
8
BLACK
6
CONTINUOUS
10
172.517
20
-66.9479
11
172.517
21
-66.9479
0
LINE
8
BLACK
6
CONTINUOUS
10
172.517
20
-66.9479
11
172.526
21
-66.9597
0
LINE
8
BLACK
6
CONTINUOUS
10
172.526
20
-66.9597
11
172.528
21
-66.9622
0
LINE
8
BLACK
6
CONTINUOUS
10
172.528
20
-66.9622
11
172.54
21
-66.9839
0
LINE
8
BLACK
6
CONTINUOUS
10
172.54
20
-66.9839
11
172.547
21
-67.0075
0
LINE
8
BLACK
6
CONTINUOUS
10
172.547
20
-67.0075
11
172.549
21
-67.0259
0
LINE
8
BLACK
6
CONTINUOUS
10
172.549
20
-67.0259
11
172.549
21
-67.0259
0
LINE
8
BLACK
6
CONTINUOUS
10
172.549
20
-67.0259
11
172.55
21
-67.032
0
LINE
8
BLACK
6
CONTINUOUS
10
172.55
20
-67.032
11
172.549
21
-67.0381
0
LINE
8
BLACK
6
CONTINUOUS
10
172.549
20
-67.0381
11
172.549
21
-103.526
0
LINE
8
BLACK
6
CONTINUOUS
10
172.549
20
-103.526
11
172.55
21
-103.532
0
LINE
8
BLACK
6
CONTINUOUS
10
172.55
20
-103.532
11
172.549
21
-103.538
0
LINE
8
BLACK
6
CONTINUOUS
10
172.549
20
-103.538
11
172.549
21
-103.538
0
LINE
8
BLACK
6
CONTINUOUS
10
172.549
20
-103.538
11
172.547
21
-103.557
0
LINE
8
BLACK
6
CONTINUOUS
10
172.547
20
-103.557
11
172.54
21
-103.58
0
LINE
8
BLACK
6
CONTINUOUS
10
172.54
20
-103.58
11
172.54
21
-103.58
0
LINE
8
BLACK
6
CONTINUOUS
10
172.54
20
-103.58
11
172.528
21
-103.602
0
LINE
8
BLACK
6
CONTINUOUS
10
172.528
20
-103.602
11
172.517
21
-103.616
0
LINE
8
BLACK
6
CONTINUOUS
10
172.517
20
-103.616
11
172.517
21
-103.616
0
LINE
8
BLACK
6
CONTINUOUS
10
172.517
20
-103.616
11
172.513
21
-103.621
0
LINE
8
BLACK
6
CONTINUOUS
10
172.513
20
-103.621
11
172.508
21
-103.625
0
LINE
8
BLACK
6
CONTINUOUS
10
172.508
20
-103.625
11
171.017
21
-105.116
0
LINE
8
BLACK
6
CONTINUOUS
10
171.017
20
-105.116
11
171.013
21
-105.121
0
LINE
8
BLACK
6
CONTINUOUS
10
171.013
20
-105.121
11
170.994
21
-105.136
0
LINE
8
BLACK
6
CONTINUOUS
10
170.994
20
-105.136
11
170.972
21
-105.148
0
LINE
8
BLACK
6
CONTINUOUS
10
170.972
20
-105.148
11
170.949
21
-105.155
0
LINE
8
BLACK
6
CONTINUOUS
10
170.949
20
-105.155
11
170.93
21
-105.157
0
LINE
8
BLACK
6
CONTINUOUS
10
170.93
20
-105.157
11
170.93
21
-105.157
0
LINE
8
BLACK
6
CONTINUOUS
10
170.93
20
-105.157
11
170.924
21
-105.158
0
LINE
8
BLACK
6
CONTINUOUS
10
170.924
20
-105.158
11
170.918
21
-105.157
0
LINE
8
BLACK
6
CONTINUOUS
10
170.918
20
-105.157
11
126.43
21
-105.157
0
LINE
8
BLACK
6
CONTINUOUS
10
126.43
20
-105.157
11
126.424
21
-105.158
0
LINE
8
BLACK
6
CONTINUOUS
10
126.424
20
-105.158
11
126.418
21
-105.157
0
LINE
8
BLACK
6
CONTINUOUS
10
126.418
20
-105.157
11
126.418
21
-105.157
0
LINE
8
BLACK
6
CONTINUOUS
10
126.418
20
-105.157
11
126.399
21
-105.155
0
LINE
8
BLACK
6
CONTINUOUS
10
126.399
20
-105.155
11
126.376
21
-105.148
0
LINE
8
BLACK
6
CONTINUOUS
10
126.376
20
-105.148
11
126.354
21
-105.136
0
LINE
8
BLACK
6
CONTINUOUS
10
126.354
20
-105.136
11
126.352
21
-105.134
0
LINE
8
BLACK
6
CONTINUOUS
10
126.352
20
-105.134
11
126.34
21
-105.125
0
LINE
8
BLACK
6
CONTINUOUS
10
126.34
20
-105.125
11
126.34
21
-105.125
0
LINE
8
BLACK
6
CONTINUOUS
10
126.34
20
-105.125
11
126.335
21
-105.121
0
LINE
8
BLACK
6
CONTINUOUS
10
126.335
20
-105.121
11
126.331
21
-105.116
0
LINE
8
BLACK
6
CONTINUOUS
10
126.331
20
-105.116
11
124.84
21
-103.625
0
LINE
8
BLACK
6
CONTINUOUS
10
124.84
20
-103.625
11
124.835
21
-103.621
0
LINE
8
BLACK
6
CONTINUOUS
10
124.835
20
-103.621
11
124.831
21
-103.616
0
LINE
8
BLACK
6
CONTINUOUS
10
124.831
20
-103.616
11
124.82
21
-103.602
0
LINE
8
BLACK
6
CONTINUOUS
10
124.82
20
-103.602
11
124.808
21
-103.58
0
LINE
8
BLACK
6
CONTINUOUS
10
124.808
20
-103.58
11
124.801
21
-103.557
0
LINE
8
BLACK
6
CONTINUOUS
10
124.801
20
-103.557
11
124.798
21
-103.532
0
LINE
8
BLACK
6
CONTINUOUS
10
124.798
20
-103.532
11
124.799
21
-103.526
0
LINE
8
BLACK
6
CONTINUOUS
10
124.799
20
-103.526
11
124.799
21
-66.7881
0
LINE
8
BLACK
6
CONTINUOUS
10
124.799
20
-66.7881
11
124.798
21
-66.782
0
LINE
8
BLACK
6
CONTINUOUS
10
124.798
20
-66.782
11
124.799
21
-66.7759
0
LINE
8
BLACK
6
CONTINUOUS
10
124.799
20
-66.7759
11
124.799
21
-66.7759
0
LINE
8
BLACK
6
CONTINUOUS
10
124.799
20
-66.7759
11
124.801
21
-66.7575
0
LINE
8
BLACK
6
CONTINUOUS
10
124.801
20
-66.7575
11
124.808
21
-66.7339
0
LINE
8
BLACK
6
CONTINUOUS
10
124.808
20
-66.7339
11
124.82
21
-66.7122
0
LINE
8
BLACK
6
CONTINUOUS
10
124.82
20
-66.7122
11
124.835
21
-66.6932
0
LINE
8
BLACK
6
CONTINUOUS
10
124.835
20
-66.6932
11
124.84
21
-66.6893
0
LINE
8
BLACK
6
CONTINUOUS
10
124.84
20
-66.6893
11
126.581
21
-64.9479
0
LINE
8
BLACK
6
CONTINUOUS
10
126.581
20
-64.9479
11
126.585
21
-64.9432
0
LINE
8
BLACK
6
CONTINUOUS
10
126.585
20
-64.9432
11
126.59
21
-64.9393
0
LINE
8
BLACK
6
CONTINUOUS
10
126.59
20
-64.9393
11
126.604
21
-64.9276
0
LINE
8
BLACK
6
CONTINUOUS
10
126.604
20
-64.9276
11
126.626
21
-64.916
0
LINE
8
BLACK
6
CONTINUOUS
10
126.626
20
-64.916
11
126.649
21
-64.9088
0
LINE
8
BLACK
6
CONTINUOUS
10
126.649
20
-64.9088
11
126.668
21
-64.907
0
LINE
8
BLACK
6
CONTINUOUS
10
126.668
20
-64.907
11
126.668
21
-64.907
0
LINE
8
BLACK
6
CONTINUOUS
10
126.668
20
-64.907
11
126.674
21
-64.9064
0
LINE
8
BLACK
6
CONTINUOUS
10
126.674
20
-64.9064
11
126.68
21
-64.907
0
LINE
8
BLACK
6
CONTINUOUS
10
126.68
20
-64.907
11
171.168
21
-64.907
0
LINE
8
BLACK
6
CONTINUOUS
10
171.168
20
-64.907
11
171.174
21
-64.9064
0
LINE
8
BLACK
6
CONTINUOUS
10
171.174
20
-64.9064
11
171.18
21
-64.907
0
LINE
8
BLACK
6
CONTINUOUS
10
171.18
20
-64.907
11
171.18
21
-64.907
0
LINE
8
BLACK
6
CONTINUOUS
10
171.18
20
-64.907
11
171.199
21
-64.9088
0
LINE
8
BLACK
6
CONTINUOUS
10
171.199
20
-64.9088
11
171.222
21
-64.916
0
LINE
8
BLACK
6
CONTINUOUS
10
171.222
20
-64.916
11
171.244
21
-64.9276
0
LINE
8
BLACK
6
CONTINUOUS
10
171.244
20
-64.9276
11
171.263
21
-64.9432
0
LINE
8
BLACK
6
CONTINUOUS
10
171.263
20
-64.9432
11
171.267
21
-64.948
0
LINE
8
BLACK
6
CONTINUOUS
10
171.267
20
-64.948
11
173.008
21
-66.6893
0
LINE
8
BLACK
6
CONTINUOUS
10
173.008
20
-66.6893
11
173.013
21
-66.6932
0
LINE
8
BLACK
6
CONTINUOUS
10
173.013
20
-66.6932
11
173.017
21
-66.6979
0
LINE
8
BLACK
6
CONTINUOUS
10
173.017
20
-66.6979
11
173.028
21
-66.7122
0
LINE
8
BLACK
6
CONTINUOUS
10
173.028
20
-66.7122
11
173.04
21
-66.7339
0
LINE
8
BLACK
6
CONTINUOUS
10
173.04
20
-66.7339
11
173.047
21
-66.7575
0
LINE
8
BLACK
6
CONTINUOUS
10
173.047
20
-66.7575
11
173.049
21
-66.7759
0
LINE
8
BLACK
6
CONTINUOUS
10
173.049
20
-66.7759
11
173.049
21
-66.7759
0
LINE
8
BLACK
6
CONTINUOUS
10
173.049
20
-66.7759
11
173.05
21
-66.782
0
LINE
8
BLACK
6
CONTINUOUS
10
173.05
20
-66.782
11
173.049
21
-66.7881
0
LINE
8
BLACK
6
CONTINUOUS
10
173.049
20
-66.7881
11
173.049
21
-103.776
0
LINE
8
BLACK
6
CONTINUOUS
10
173.049
20
-103.776
11
173.05
21
-103.782
0
LINE
8
BLACK
6
CONTINUOUS
10
173.05
20
-103.782
11
173.049
21
-103.788
0
LINE
8
BLACK
6
CONTINUOUS
10
173.049
20
-103.788
11
173.049
21
-103.788
0
LINE
8
BLACK
6
CONTINUOUS
10
173.049
20
-103.788
11
173.047
21
-103.807
0
LINE
8
BLACK
6
CONTINUOUS
10
173.047
20
-103.807
11
173.04
21
-103.83
0
LINE
8
BLACK
6
CONTINUOUS
10
173.04
20
-103.83
11
173.04
21
-103.83
0
LINE
8
BLACK
6
CONTINUOUS
10
173.04
20
-103.83
11
173.028
21
-103.852
0
LINE
8
BLACK
6
CONTINUOUS
10
173.028
20
-103.852
11
173.017
21
-103.866
0
LINE
8
BLACK
6
CONTINUOUS
10
173.017
20
-103.866
11
173.013
21
-103.871
0
LINE
8
BLACK
6
CONTINUOUS
10
173.013
20
-103.871
11
173.008
21
-103.875
0
LINE
8
BLACK
6
CONTINUOUS
10
173.008
20
-103.875
11
171.267
21
-105.616
0
LINE
8
BLACK
6
CONTINUOUS
10
171.267
20
-105.616
11
171.263
21
-105.621
0
LINE
8
BLACK
6
CONTINUOUS
10
171.263
20
-105.621
11
171.244
21
-105.636
0
LINE
8
BLACK
6
CONTINUOUS
10
171.244
20
-105.636
11
171.222
21
-105.648
0
LINE
8
BLACK
6
CONTINUOUS
10
171.222
20
-105.648
11
171.199
21
-105.655
0
LINE
8
BLACK
6
CONTINUOUS
10
171.199
20
-105.655
11
171.18
21
-105.657
0
LINE
8
BLACK
6
CONTINUOUS
10
171.18
20
-105.657
11
171.18
21
-105.657
0
LINE
8
BLACK
6
CONTINUOUS
10
171.18
20
-105.657
11
171.174
21
-105.658
0
LINE
8
BLACK
6
CONTINUOUS
10
171.174
20
-105.658
11
171.168
21
-105.657
0
LINE
8
BLACK
6
CONTINUOUS
10
171.168
20
-105.657
11
126.18
21
-105.657
0
LINE
8
BLACK
6
CONTINUOUS
10
126.18
20
-105.657
11
126.174
21
-105.658
0
LINE
8
BLACK
6
CONTINUOUS
10
126.174
20
-105.658
11
126.168
21
-105.657
0
LINE
8
BLACK
6
CONTINUOUS
10
126.168
20
-105.657
11
126.168
21
-105.657
0
LINE
8
BLACK
6
CONTINUOUS
10
126.168
20
-105.657
11
126.149
21
-105.655
0
LINE
8
BLACK
6
CONTINUOUS
10
126.149
20
-105.655
11
126.126
21
-105.648
0
LINE
8
BLACK
6
CONTINUOUS
10
126.126
20
-105.648
11
126.104
21
-105.636
0
LINE
8
BLACK
6
CONTINUOUS
10
126.104
20
-105.636
11
126.09
21
-105.625
0
LINE
8
BLACK
6
CONTINUOUS
10
126.09
20
-105.625
11
126.085
21
-105.621
0
LINE
8
BLACK
6
CONTINUOUS
10
126.085
20
-105.621
11
126.081
21
-105.616
0
LINE
8
BLACK
6
CONTINUOUS
10
126.081
20
-105.616
11
124.34
21
-103.875
0
LINE
8
BLACK
6
CONTINUOUS
10
124.34
20
-103.875
11
124.335
21
-103.871
0
LINE
8
BLACK
6
CONTINUOUS
10
124.335
20
-103.871
11
124.331
21
-103.866
0
LINE
8
BLACK
6
CONTINUOUS
10
124.331
20
-103.866
11
124.32
21
-103.852
0
LINE
8
BLACK
6
CONTINUOUS
10
124.32
20
-103.852
11
124.308
21
-103.83
0
LINE
8
BLACK
6
CONTINUOUS
10
124.308
20
-103.83
11
124.301
21
-103.807
0
LINE
8
BLACK
6
CONTINUOUS
10
124.301
20
-103.807
11
124.298
21
-103.782
0
LINE
8
BLACK
6
CONTINUOUS
10
124.298
20
-103.782
11
124.299
21
-103.776
0
LINE
8
BLACK
6
CONTINUOUS
10
124.299
20
-103.776
11
124.299
21
-66.5381
0
LINE
8
BLACK
6
CONTINUOUS
10
124.299
20
-66.5381
11
124.298
21
-66.532
0
LINE
8
BLACK
6
CONTINUOUS
10
124.298
20
-66.532
11
124.299
21
-66.5259
0
LINE
8
BLACK
6
CONTINUOUS
10
124.299
20
-66.5259
11
124.299
21
-66.5259
0
LINE
8
BLACK
6
CONTINUOUS
10
124.299
20
-66.5259
11
124.301
21
-66.5075
0
LINE
8
BLACK
6
CONTINUOUS
10
124.301
20
-66.5075
11
124.308
21
-66.4839
0
LINE
8
BLACK
6
CONTINUOUS
10
124.308
20
-66.4839
11
124.32
21
-66.4622
0
LINE
8
BLACK
6
CONTINUOUS
10
124.32
20
-66.4622
11
124.335
21
-66.4432
0
LINE
8
BLACK
6
CONTINUOUS
10
124.335
20
-66.4432
11
124.34
21
-66.4393
0
LINE
8
BLACK
6
CONTINUOUS
10
124.34
20
-66.4393
11
126.331
21
-64.4479
0
LINE
8
BLACK
6
CONTINUOUS
10
126.331
20
-64.4479
11
126.335
21
-64.4432
0
LINE
8
BLACK
6
CONTINUOUS
10
126.335
20
-64.4432
11
126.34
21
-64.4393
0
LINE
8
BLACK
6
CONTINUOUS
10
126.34
20
-64.4393
11
126.34
21
-64.4393
0
LINE
8
BLACK
6
CONTINUOUS
10
126.34
20
-64.4393
11
126.354
21
-64.4276
0
LINE
8
BLACK
6
CONTINUOUS
10
126.354
20
-64.4276
11
126.376
21
-64.416
0
LINE
8
BLACK
6
CONTINUOUS
10
126.376
20
-64.416
11
126.399
21
-64.4088
0
LINE
8
BLACK
6
CONTINUOUS
10
126.399
20
-64.4088
11
126.418
21
-64.407
0
LINE
8
BLACK
6
CONTINUOUS
10
126.418
20
-64.407
11
126.418
21
-64.407
0
LINE
8
BLACK
6
CONTINUOUS
10
126.418
20
-64.407
11
126.424
21
-64.4064
0
LINE
8
BLACK
6
CONTINUOUS
10
126.424
20
-64.4064
11
126.43
21
-64.407
0
LINE
8
BLACK
6
CONTINUOUS
10
126.43
20
-64.407
11
171.418
21
-64.407
0
LINE
8
BLACK
6
CONTINUOUS
10
171.418
20
-64.407
11
171.424
21
-64.4064
0
LINE
8
BLACK
6
CONTINUOUS
10
171.424
20
-64.4064
11
171.43
21
-64.407
0
LINE
8
BLACK
6
CONTINUOUS
10
171.43
20
-64.407
11
171.43
21
-64.407
0
LINE
8
BLACK
6
CONTINUOUS
10
171.43
20
-64.407
11
171.449
21
-64.4088
0
LINE
8
BLACK
6
CONTINUOUS
10
171.449
20
-64.4088
11
171.472
21
-64.416
0
LINE
8
BLACK
6
CONTINUOUS
10
171.472
20
-64.416
11
171.494
21
-64.4276
0
LINE
8
BLACK
6
CONTINUOUS
10
171.494
20
-64.4276
11
171.513
21
-64.4432
0
LINE
8
BLACK
6
CONTINUOUS
10
171.513
20
-64.4432
11
171.517
21
-64.448
0
LINE
8
BLACK
6
CONTINUOUS
10
171.517
20
-64.448
11
173.508
21
-66.4393
0
LINE
8
BLACK
6
CONTINUOUS
10
173.508
20
-66.4393
11
173.513
21
-66.4432
0
LINE
8
BLACK
6
CONTINUOUS
10
173.513
20
-66.4432
11
173.517
21
-66.4479
0
LINE
8
BLACK
6
CONTINUOUS
10
173.517
20
-66.4479
11
173.517
21
-66.4479
0
LINE
8
BLACK
6
CONTINUOUS
10
173.517
20
-66.4479
11
173.528
21
-66.4622
0
LINE
8
BLACK
6
CONTINUOUS
10
173.528
20
-66.4622
11
173.54
21
-66.4839
0
LINE
8
BLACK
6
CONTINUOUS
10
173.54
20
-66.4839
11
173.547
21
-66.5075
0
LINE
8
BLACK
6
CONTINUOUS
10
173.547
20
-66.5075
11
173.549
21
-66.5259
0
LINE
8
BLACK
6
CONTINUOUS
10
173.549
20
-66.5259
11
173.549
21
-66.5259
0
LINE
8
BLACK
6
CONTINUOUS
10
173.549
20
-66.5259
11
173.55
21
-66.532
0
LINE
8
BLACK
6
CONTINUOUS
10
173.55
20
-66.532
11
173.549
21
-66.5381
0
LINE
8
BLACK
6
CONTINUOUS
10
173.549
20
-66.5381
11
173.549
21
-104.026
0
LINE
8
BLACK
6
CONTINUOUS
10
173.549
20
-104.026
11
173.55
21
-104.032
0
LINE
8
BLACK
6
CONTINUOUS
10
173.55
20
-104.032
11
173.549
21
-104.038
0
LINE
8
BLACK
6
CONTINUOUS
10
173.549
20
-104.038
11
173.549
21
-104.038
0
LINE
8
BLACK
6
CONTINUOUS
10
173.549
20
-104.038
11
173.547
21
-104.057
0
LINE
8
BLACK
6
CONTINUOUS
10
173.547
20
-104.057
11
173.54
21
-104.08
0
LINE
8
BLACK
6
CONTINUOUS
10
173.54
20
-104.08
11
173.54
21
-104.08
0
LINE
8
BLACK
6
CONTINUOUS
10
173.54
20
-104.08
11
173.528
21
-104.102
0
LINE
8
BLACK
6
CONTINUOUS
10
173.528
20
-104.102
11
173.517
21
-104.116
0
LINE
8
BLACK
6
CONTINUOUS
10
173.517
20
-104.116
11
173.517
21
-104.116
0
LINE
8
BLACK
6
CONTINUOUS
10
173.517
20
-104.116
11
173.513
21
-104.121
0
LINE
8
BLACK
6
CONTINUOUS
10
173.513
20
-104.121
11
173.508
21
-104.125
0
LINE
8
BLACK
6
CONTINUOUS
10
173.508
20
-104.125
11
171.517
21
-106.116
0
LINE
8
BLACK
6
CONTINUOUS
10
171.517
20
-106.116
11
171.513
21
-106.121
0
LINE
8
BLACK
6
CONTINUOUS
10
171.513
20
-106.121
11
171.494
21
-106.136
0
LINE
8
BLACK
6
CONTINUOUS
10
171.494
20
-106.136
11
171.472
21
-106.148
0
LINE
8
BLACK
6
CONTINUOUS
10
171.472
20
-106.148
11
171.449
21
-106.155
0
LINE
8
BLACK
6
CONTINUOUS
10
171.449
20
-106.155
11
171.43
21
-106.157
0
LINE
8
BLACK
6
CONTINUOUS
10
171.43
20
-106.157
11
171.43
21
-106.157
0
LINE
8
BLACK
6
CONTINUOUS
10
171.43
20
-106.157
11
171.424
21
-106.158
0
LINE
8
BLACK
6
CONTINUOUS
10
171.424
20
-106.158
11
171.418
21
-106.157
0
LINE
8
BLACK
6
CONTINUOUS
10
171.418
20
-106.157
11
125.93
21
-106.157
0
LINE
8
BLACK
6
CONTINUOUS
10
125.93
20
-106.157
11
125.924
21
-106.158
0
LINE
8
BLACK
6
CONTINUOUS
10
125.924
20
-106.158
11
125.918
21
-106.157
0
LINE
8
BLACK
6
CONTINUOUS
10
125.918
20
-106.157
11
125.918
21
-106.157
0
LINE
8
BLACK
6
CONTINUOUS
10
125.918
20
-106.157
11
125.899
21
-106.155
0
LINE
8
BLACK
6
CONTINUOUS
10
125.899
20
-106.155
11
125.876
21
-106.148
0
LINE
8
BLACK
6
CONTINUOUS
10
125.876
20
-106.148
11
125.854
21
-106.136
0
LINE
8
BLACK
6
CONTINUOUS
10
125.854
20
-106.136
11
125.84
21
-106.125
0
LINE
8
BLACK
6
CONTINUOUS
10
125.84
20
-106.125
11
125.84
21
-106.125
0
LINE
8
BLACK
6
CONTINUOUS
10
125.84
20
-106.125
11
125.835
21
-106.121
0
LINE
8
BLACK
6
CONTINUOUS
10
125.835
20
-106.121
11
125.831
21
-106.116
0
LINE
8
BLACK
6
CONTINUOUS
10
125.831
20
-106.116
11
123.84
21
-104.125
0
LINE
8
BLACK
6
CONTINUOUS
10
123.84
20
-104.125
11
123.835
21
-104.121
0
LINE
8
BLACK
6
CONTINUOUS
10
123.835
20
-104.121
11
123.831
21
-104.116
0
LINE
8
BLACK
6
CONTINUOUS
10
123.831
20
-104.116
11
123.82
21
-104.102
0
LINE
8
BLACK
6
CONTINUOUS
10
123.82
20
-104.102
11
123.808
21
-104.08
0
LINE
8
BLACK
6
CONTINUOUS
10
123.808
20
-104.08
11
123.801
21
-104.057
0
LINE
8
BLACK
6
CONTINUOUS
10
123.801
20
-104.057
11
123.798
21
-104.032
0
LINE
8
BLACK
6
CONTINUOUS
10
123.798
20
-104.032
11
123.799
21
-104.026
0
LINE
8
BLACK
6
CONTINUOUS
10
123.799
20
-104.026
11
123.799
21
-66.2881
0
LINE
8
BLACK
6
CONTINUOUS
10
123.799
20
-66.2881
11
123.798
21
-66.282
0
LINE
8
BLACK
6
CONTINUOUS
10
123.798
20
-66.282
11
123.799
21
-66.2759
0
LINE
8
BLACK
6
CONTINUOUS
10
123.799
20
-66.2759
11
123.799
21
-66.2759
0
LINE
8
BLACK
6
CONTINUOUS
10
123.799
20
-66.2759
11
123.801
21
-66.2575
0
LINE
8
BLACK
6
CONTINUOUS
10
123.801
20
-66.2575
11
123.808
21
-66.2339
0
LINE
8
BLACK
6
CONTINUOUS
10
123.808
20
-66.2339
11
123.82
21
-66.2122
0
LINE
8
BLACK
6
CONTINUOUS
10
123.82
20
-66.2122
11
123.835
21
-66.1932
0
LINE
8
BLACK
6
CONTINUOUS
10
123.835
20
-66.1932
11
123.84
21
-66.1893
0
LINE
8
BLACK
6
CONTINUOUS
10
123.84
20
-66.1893
11
126.081
21
-63.9479
0
LINE
8
BLACK
6
CONTINUOUS
10
126.081
20
-63.9479
11
126.085
21
-63.9432
0
LINE
8
BLACK
6
CONTINUOUS
10
126.085
20
-63.9432
11
126.09
21
-63.9393
0
LINE
8
BLACK
6
CONTINUOUS
10
126.09
20
-63.9393
11
126.09
21
-63.9393
0
LINE
8
BLACK
6
CONTINUOUS
10
126.09
20
-63.9393
11
126.104
21
-63.9276
0
LINE
8
BLACK
6
CONTINUOUS
10
126.104
20
-63.9276
11
126.126
21
-63.916
0
LINE
8
BLACK
6
CONTINUOUS
10
126.126
20
-63.916
11
126.149
21
-63.9088
0
LINE
8
BLACK
6
CONTINUOUS
10
126.149
20
-63.9088
11
126.168
21
-63.907
0
LINE
8
BLACK
6
CONTINUOUS
10
126.168
20
-63.907
11
126.168
21
-63.907
0
LINE
8
BLACK
6
CONTINUOUS
10
126.168
20
-63.907
11
126.174
21
-63.9064
0
LINE
8
BLACK
6
CONTINUOUS
10
126.174
20
-63.9064
11
126.18
21
-63.907
0
LINE
8
BLACK
6
CONTINUOUS
10
126.18
20
-63.907
11
171.668
21
-63.907
0
LINE
8
BLACK
6
CONTINUOUS
10
171.668
20
-63.907
11
171.674
21
-63.9064
0
LINE
8
BLACK
6
CONTINUOUS
10
171.674
20
-63.9064
11
171.68
21
-63.907
0
LINE
8
BLACK
6
CONTINUOUS
10
171.68
20
-63.907
11
171.68
21
-63.907
0
LINE
8
BLACK
6
CONTINUOUS
10
171.68
20
-63.907
11
171.699
21
-63.9088
0
LINE
8
BLACK
6
CONTINUOUS
10
171.699
20
-63.9088
11
171.722
21
-63.916
0
LINE
8
BLACK
6
CONTINUOUS
10
171.722
20
-63.916
11
171.744
21
-63.9276
0
LINE
8
BLACK
6
CONTINUOUS
10
171.744
20
-63.9276
11
171.763
21
-63.9432
0
LINE
8
BLACK
6
CONTINUOUS
10
171.763
20
-63.9432
11
171.767
21
-63.948
0
LINE
8
BLACK
6
CONTINUOUS
10
171.767
20
-63.948
11
174.008
21
-66.1893
0
LINE
8
BLACK
6
CONTINUOUS
10
174.008
20
-66.1893
11
174.013
21
-66.1932
0
LINE
8
BLACK
6
CONTINUOUS
10
174.013
20
-66.1932
11
174.017
21
-66.1979
0
LINE
8
BLACK
6
CONTINUOUS
10
174.017
20
-66.1979
11
174.017
21
-66.1979
0
LINE
8
BLACK
6
CONTINUOUS
10
174.017
20
-66.1979
11
174.028
21
-66.2122
0
LINE
8
BLACK
6
CONTINUOUS
10
174.028
20
-66.2122
11
174.04
21
-66.2339
0
LINE
8
BLACK
6
CONTINUOUS
10
174.04
20
-66.2339
11
174.047
21
-66.2575
0
LINE
8
BLACK
6
CONTINUOUS
10
174.047
20
-66.2575
11
174.049
21
-66.2759
0
LINE
8
BLACK
6
CONTINUOUS
10
174.049
20
-66.2759
11
174.049
21
-66.2759
0
LINE
8
BLACK
6
CONTINUOUS
10
174.049
20
-66.2759
11
174.05
21
-66.282
0
LINE
8
BLACK
6
CONTINUOUS
10
174.05
20
-66.282
11
174.049
21
-66.2881
0
LINE
8
BLACK
6
CONTINUOUS
10
174.049
20
-66.2881
11
174.049
21
-104.276
0
LINE
8
BLACK
6
CONTINUOUS
10
174.049
20
-104.276
11
174.05
21
-104.282
0
LINE
8
BLACK
6
CONTINUOUS
10
174.05
20
-104.282
11
174.049
21
-104.288
0
LINE
8
BLACK
6
CONTINUOUS
10
174.049
20
-104.288
11
174.049
21
-104.288
0
LINE
8
BLACK
6
CONTINUOUS
10
174.049
20
-104.288
11
174.047
21
-104.307
0
LINE
8
BLACK
6
CONTINUOUS
10
174.047
20
-104.307
11
174.04
21
-104.33
0
LINE
8
BLACK
6
CONTINUOUS
10
174.04
20
-104.33
11
174.028
21
-104.352
0
LINE
8
BLACK
6
CONTINUOUS
10
174.028
20
-104.352
11
174.017
21
-104.366
0
LINE
8
BLACK
6
CONTINUOUS
10
174.017
20
-104.366
11
174.017
21
-104.366
0
LINE
8
BLACK
6
CONTINUOUS
10
174.017
20
-104.366
11
174.013
21
-104.371
0
LINE
8
BLACK
6
CONTINUOUS
10
174.013
20
-104.371
11
174.008
21
-104.375
0
LINE
8
BLACK
6
CONTINUOUS
10
174.008
20
-104.375
11
171.767
21
-106.616
0
LINE
8
BLACK
6
CONTINUOUS
10
171.767
20
-106.616
11
171.763
21
-106.621
0
LINE
8
BLACK
6
CONTINUOUS
10
171.763
20
-106.621
11
171.744
21
-106.636
0
LINE
8
BLACK
6
CONTINUOUS
10
171.744
20
-106.636
11
171.722
21
-106.648
0
LINE
8
BLACK
6
CONTINUOUS
10
171.722
20
-106.648
11
171.699
21
-106.655
0
LINE
8
BLACK
6
CONTINUOUS
10
171.699
20
-106.655
11
171.68
21
-106.657
0
LINE
8
BLACK
6
CONTINUOUS
10
171.68
20
-106.657
11
171.68
21
-106.657
0
LINE
8
BLACK
6
CONTINUOUS
10
171.68
20
-106.657
11
171.674
21
-106.658
0
LINE
8
BLACK
6
CONTINUOUS
10
171.674
20
-106.658
11
171.668
21
-106.657
0
LINE
8
BLACK
6
CONTINUOUS
10
171.668
20
-106.657
11
125.68
21
-106.657
0
LINE
8
BLACK
6
CONTINUOUS
10
125.68
20
-106.657
11
125.674
21
-106.658
0
LINE
8
BLACK
6
CONTINUOUS
10
125.674
20
-106.658
11
125.668
21
-106.657
0
LINE
8
BLACK
6
CONTINUOUS
10
125.668
20
-106.657
11
125.668
21
-106.657
0
LINE
8
BLACK
6
CONTINUOUS
10
125.668
20
-106.657
11
125.649
21
-106.655
0
LINE
8
BLACK
6
CONTINUOUS
10
125.649
20
-106.655
11
125.626
21
-106.648
0
LINE
8
BLACK
6
CONTINUOUS
10
125.626
20
-106.648
11
125.604
21
-106.636
0
LINE
8
BLACK
6
CONTINUOUS
10
125.604
20
-106.636
11
125.59
21
-106.625
0
LINE
8
BLACK
6
CONTINUOUS
10
125.59
20
-106.625
11
125.59
21
-106.625
0
LINE
8
BLACK
6
CONTINUOUS
10
125.59
20
-106.625
11
125.585
21
-106.621
0
LINE
8
BLACK
6
CONTINUOUS
10
125.585
20
-106.621
11
125.581
21
-106.616
0
LINE
8
BLACK
6
CONTINUOUS
10
125.581
20
-106.616
11
123.34
21
-104.375
0
LINE
8
BLACK
6
CONTINUOUS
10
123.34
20
-104.375
11
123.335
21
-104.371
0
LINE
8
BLACK
6
CONTINUOUS
10
123.335
20
-104.371
11
123.331
21
-104.366
0
LINE
8
BLACK
6
CONTINUOUS
10
123.331
20
-104.366
11
123.32
21
-104.352
0
LINE
8
BLACK
6
CONTINUOUS
10
123.32
20
-104.352
11
123.308
21
-104.33
0
LINE
8
BLACK
6
CONTINUOUS
10
123.308
20
-104.33
11
123.301
21
-104.307
0
LINE
8
BLACK
6
CONTINUOUS
10
123.301
20
-104.307
11
123.298
21
-104.282
0
LINE
8
BLACK
6
CONTINUOUS
10
123.298
20
-104.282
11
123.299
21
-104.276
0
LINE
8
BLACK
6
CONTINUOUS
10
123.299
20
-104.276
11
123.299
21
-66.0381
0
LINE
8
BLACK
6
CONTINUOUS
10
123.299
20
-66.0381
11
123.298
21
-66.032
0
LINE
8
BLACK
6
CONTINUOUS
10
123.298
20
-66.032
11
123.299
21
-66.0259
0
LINE
8
BLACK
6
CONTINUOUS
10
123.299
20
-66.0259
11
123.299
21
-66.0259
0
LINE
8
BLACK
6
CONTINUOUS
10
123.299
20
-66.0259
11
123.301
21
-66.0075
0
LINE
8
BLACK
6
CONTINUOUS
10
123.301
20
-66.0075
11
123.308
21
-65.9839
0
LINE
8
BLACK
6
CONTINUOUS
10
123.308
20
-65.9839
11
123.32
21
-65.9622
0
LINE
8
BLACK
6
CONTINUOUS
10
123.32
20
-65.9622
11
123.335
21
-65.9432
0
LINE
8
BLACK
6
CONTINUOUS
10
123.335
20
-65.9432
11
123.34
21
-65.9393
0
LINE
8
BLACK
6
CONTINUOUS
10
123.34
20
-65.9393
11
125.831
21
-63.4479
0
LINE
8
BLACK
6
CONTINUOUS
10
125.831
20
-63.4479
11
125.835
21
-63.4432
0
LINE
8
BLACK
6
CONTINUOUS
10
125.835
20
-63.4432
11
125.84
21
-63.4393
0
LINE
8
BLACK
6
CONTINUOUS
10
125.84
20
-63.4393
11
125.854
21
-63.4276
0
LINE
8
BLACK
6
CONTINUOUS
10
125.854
20
-63.4276
11
125.876
21
-63.416
0
LINE
8
BLACK
6
CONTINUOUS
10
125.876
20
-63.416
11
125.899
21
-63.4088
0
LINE
8
BLACK
6
CONTINUOUS
10
125.899
20
-63.4088
11
125.918
21
-63.407
0
LINE
8
BLACK
6
CONTINUOUS
10
125.918
20
-63.407
11
125.918
21
-63.407
0
LINE
8
BLACK
6
CONTINUOUS
10
125.918
20
-63.407
11
125.924
21
-63.4064
0
LINE
8
BLACK
6
CONTINUOUS
10
125.924
20
-63.4064
11
125.93
21
-63.407
0
LINE
8
BLACK
6
CONTINUOUS
10
125.93
20
-63.407
11
171.918
21
-63.407
0
LINE
8
BLACK
6
CONTINUOUS
10
171.918
20
-63.407
11
171.924
21
-63.4064
0
LINE
8
BLACK
6
CONTINUOUS
10
171.924
20
-63.4064
11
171.93
21
-63.407
0
LINE
8
BLACK
6
CONTINUOUS
10
171.93
20
-63.407
11
171.93
21
-63.407
0
LINE
8
BLACK
6
CONTINUOUS
10
171.93
20
-63.407
11
171.949
21
-63.4088
0
LINE
8
BLACK
6
CONTINUOUS
10
171.949
20
-63.4088
11
171.972
21
-63.416
0
LINE
8
BLACK
6
CONTINUOUS
10
171.972
20
-63.416
11
171.994
21
-63.4276
0
LINE
8
BLACK
6
CONTINUOUS
10
171.994
20
-63.4276
11
172.013
21
-63.4432
0
LINE
8
BLACK
6
CONTINUOUS
10
172.013
20
-63.4432
11
172.017
21
-63.448
0
LINE
8
BLACK
6
CONTINUOUS
10
172.017
20
-63.448
11
174.508
21
-65.9393
0
LINE
8
BLACK
6
CONTINUOUS
10
174.508
20
-65.9393
11
174.513
21
-65.9432
0
LINE
8
BLACK
6
CONTINUOUS
10
174.513
20
-65.9432
11
174.517
21
-65.9479
0
LINE
8
BLACK
6
CONTINUOUS
10
174.517
20
-65.9479
11
174.528
21
-65.9622
0
LINE
8
BLACK
6
CONTINUOUS
10
174.528
20
-65.9622
11
174.54
21
-65.9839
0
LINE
8
BLACK
6
CONTINUOUS
10
174.54
20
-65.9839
11
174.547
21
-66.0075
0
LINE
8
BLACK
6
CONTINUOUS
10
174.547
20
-66.0075
11
174.549
21
-66.0259
0
LINE
8
BLACK
6
CONTINUOUS
10
174.549
20
-66.0259
11
174.549
21
-66.0259
0
LINE
8
BLACK
6
CONTINUOUS
10
174.549
20
-66.0259
11
174.55
21
-66.032
0
LINE
8
BLACK
6
CONTINUOUS
10
174.55
20
-66.032
11
174.549
21
-66.0381
0
LINE
8
BLACK
6
CONTINUOUS
10
174.549
20
-66.0381
11
174.549
21
-104.526
0
LINE
8
BLACK
6
CONTINUOUS
10
174.549
20
-104.526
11
174.55
21
-104.532
0
LINE
8
BLACK
6
CONTINUOUS
10
174.55
20
-104.532
11
174.549
21
-104.538
0
LINE
8
BLACK
6
CONTINUOUS
10
174.549
20
-104.538
11
174.549
21
-104.538
0
LINE
8
BLACK
6
CONTINUOUS
10
174.549
20
-104.538
11
174.547
21
-104.557
0
LINE
8
BLACK
6
CONTINUOUS
10
174.547
20
-104.557
11
174.54
21
-104.58
0
LINE
8
BLACK
6
CONTINUOUS
10
174.54
20
-104.58
11
174.54
21
-104.58
0
LINE
8
BLACK
6
CONTINUOUS
10
174.54
20
-104.58
11
174.528
21
-104.602
0
LINE
8
BLACK
6
CONTINUOUS
10
174.528
20
-104.602
11
174.517
21
-104.616
0
LINE
8
BLACK
6
CONTINUOUS
10
174.517
20
-104.616
11
174.513
21
-104.621
0
LINE
8
BLACK
6
CONTINUOUS
10
174.513
20
-104.621
11
174.508
21
-104.625
0
LINE
8
BLACK
6
CONTINUOUS
10
174.508
20
-104.625
11
172.017
21
-107.116
0
LINE
8
BLACK
6
CONTINUOUS
10
172.017
20
-107.116
11
172.013
21
-107.121
0
LINE
8
BLACK
6
CONTINUOUS
10
172.013
20
-107.121
11
171.994
21
-107.136
0
LINE
8
BLACK
6
CONTINUOUS
10
171.994
20
-107.136
11
171.972
21
-107.148
0
LINE
8
BLACK
6
CONTINUOUS
10
171.972
20
-107.148
11
171.949
21
-107.155
0
LINE
8
BLACK
6
CONTINUOUS
10
171.949
20
-107.155
11
171.93
21
-107.157
0
LINE
8
BLACK
6
CONTINUOUS
10
171.93
20
-107.157
11
171.93
21
-107.157
0
LINE
8
BLACK
6
CONTINUOUS
10
171.93
20
-107.157
11
171.924
21
-107.158
0
LINE
8
BLACK
6
CONTINUOUS
10
171.924
20
-107.158
11
171.918
21
-107.157
0
LINE
8
BLACK
6
CONTINUOUS
10
171.918
20
-107.157
11
125.43
21
-107.157
0
LINE
8
BLACK
6
CONTINUOUS
10
125.43
20
-107.157
11
125.424
21
-107.158
0
LINE
8
BLACK
6
CONTINUOUS
10
125.424
20
-107.158
11
125.418
21
-107.157
0
LINE
8
BLACK
6
CONTINUOUS
10
125.418
20
-107.157
11
125.418
21
-107.157
0
LINE
8
BLACK
6
CONTINUOUS
10
125.418
20
-107.157
11
125.399
21
-107.155
0
LINE
8
BLACK
6
CONTINUOUS
10
125.399
20
-107.155
11
125.376
21
-107.148
0
LINE
8
BLACK
6
CONTINUOUS
10
125.376
20
-107.148
11
125.354
21
-107.136
0
LINE
8
BLACK
6
CONTINUOUS
10
125.354
20
-107.136
11
125.34
21
-107.125
0
LINE
8
BLACK
6
CONTINUOUS
10
125.34
20
-107.125
11
125.335
21
-107.121
0
LINE
8
BLACK
6
CONTINUOUS
10
125.335
20
-107.121
11
125.331
21
-107.116
0
LINE
8
BLACK
6
CONTINUOUS
10
125.331
20
-107.116
11
122.84
21
-104.625
0
LINE
8
BLACK
6
CONTINUOUS
10
122.84
20
-104.625
11
122.835
21
-104.621
0
LINE
8
BLACK
6
CONTINUOUS
10
122.835
20
-104.621
11
122.831
21
-104.616
0
LINE
8
BLACK
6
CONTINUOUS
10
122.831
20
-104.616
11
122.82
21
-104.602
0
LINE
8
BLACK
6
CONTINUOUS
10
122.82
20
-104.602
11
122.808
21
-104.58
0
LINE
8
BLACK
6
CONTINUOUS
10
122.808
20
-104.58
11
122.801
21
-104.557
0
LINE
8
BLACK
6
CONTINUOUS
10
122.801
20
-104.557
11
122.798
21
-104.532
0
LINE
8
BLACK
6
CONTINUOUS
10
122.798
20
-104.532
11
122.799
21
-104.526
0
LINE
8
BLACK
6
CONTINUOUS
10
122.799
20
-104.526
11
122.799
21
-65.7881
0
LINE
8
BLACK
6
CONTINUOUS
10
122.799
20
-65.7881
11
122.798
21
-65.782
0
LINE
8
BLACK
6
CONTINUOUS
10
122.798
20
-65.782
11
122.799
21
-65.7759
0
LINE
8
BLACK
6
CONTINUOUS
10
122.799
20
-65.7759
11
122.799
21
-65.7759
0
LINE
8
BLACK
6
CONTINUOUS
10
122.799
20
-65.7759
11
122.801
21
-65.7575
0
LINE
8
BLACK
6
CONTINUOUS
10
122.801
20
-65.7575
11
122.808
21
-65.7339
0
LINE
8
BLACK
6
CONTINUOUS
10
122.808
20
-65.7339
11
122.82
21
-65.7122
0
LINE
8
BLACK
6
CONTINUOUS
10
122.82
20
-65.7122
11
122.835
21
-65.6932
0
LINE
8
BLACK
6
CONTINUOUS
10
122.835
20
-65.6932
11
122.84
21
-65.6893
0
LINE
8
BLACK
6
CONTINUOUS
10
122.84
20
-65.6893
11
125.581
21
-62.9479
0
LINE
8
BLACK
6
CONTINUOUS
10
125.581
20
-62.9479
11
125.585
21
-62.9432
0
LINE
8
BLACK
6
CONTINUOUS
10
125.585
20
-62.9432
11
125.59
21
-62.9393
0
LINE
8
BLACK
6
CONTINUOUS
10
125.59
20
-62.9393
11
125.59
21
-62.9393
0
LINE
8
BLACK
6
CONTINUOUS
10
125.59
20
-62.9393
11
125.604
21
-62.9276
0
LINE
8
BLACK
6
CONTINUOUS
10
125.604
20
-62.9276
11
125.604
21
-62.9276
0
LINE
8
BLACK
6
CONTINUOUS
10
125.604
20
-62.9276
11
125.604
21
-62.9276
0
LINE
8
BLACK
6
CONTINUOUS
10
125.604
20
-62.9276
11
125.626
21
-62.916
0
LINE
8
BLACK
6
CONTINUOUS
10
125.626
20
-62.916
11
125.649
21
-62.9088
0
LINE
8
BLACK
6
CONTINUOUS
10
125.649
20
-62.9088
11
125.668
21
-62.907
0
LINE
8
BLACK
6
CONTINUOUS
10
125.668
20
-62.907
11
125.668
21
-62.907
0
LINE
8
BLACK
6
CONTINUOUS
10
125.668
20
-62.907
11
125.674
21
-62.9064
0
LINE
8
BLACK
6
CONTINUOUS
10
125.674
20
-62.9064
11
125.68
21
-62.907
0
LINE
8
BLACK
6
CONTINUOUS
10
125.68
20
-62.907
11
172.168
21
-62.907
0
LINE
8
BLACK
6
CONTINUOUS
10
172.168
20
-62.907
11
172.174
21
-62.9064
0
LINE
8
BLACK
6
CONTINUOUS
10
172.174
20
-62.9064
11
172.18
21
-62.907
0
LINE
8
BLACK
6
CONTINUOUS
10
172.18
20
-62.907
11
172.18
21
-62.907
0
LINE
8
BLACK
6
CONTINUOUS
10
172.18
20
-62.907
11
172.199
21
-62.9088
0
LINE
8
BLACK
6
CONTINUOUS
10
172.199
20
-62.9088
11
172.222
21
-62.916
0
LINE
8
BLACK
6
CONTINUOUS
10
172.222
20
-62.916
11
172.244
21
-62.9276
0
LINE
8
BLACK
6
CONTINUOUS
10
172.244
20
-62.9276
11
172.263
21
-62.9432
0
LINE
8
BLACK
6
CONTINUOUS
10
172.263
20
-62.9432
11
172.267
21
-62.948
0
LINE
8
BLACK
6
CONTINUOUS
10
172.267
20
-62.948
11
175.008
21
-65.6893
0
LINE
8
BLACK
6
CONTINUOUS
10
175.008
20
-65.6893
11
175.013
21
-65.6932
0
LINE
8
BLACK
6
CONTINUOUS
10
175.013
20
-65.6932
11
175.017
21
-65.6979
0
LINE
8
BLACK
6
CONTINUOUS
10
175.017
20
-65.6979
11
175.017
21
-65.6979
0
LINE
8
BLACK
6
CONTINUOUS
10
175.017
20
-65.6979
11
175.026
21
-65.7097
0
LINE
8
BLACK
6
CONTINUOUS
10
175.026
20
-65.7097
11
175.028
21
-65.7122
0
LINE
8
BLACK
6
CONTINUOUS
10
175.028
20
-65.7122
11
175.04
21
-65.7339
0
LINE
8
BLACK
6
CONTINUOUS
10
175.04
20
-65.7339
11
175.047
21
-65.7575
0
LINE
8
BLACK
6
CONTINUOUS
10
175.047
20
-65.7575
11
175.049
21
-65.7759
0
LINE
8
BLACK
6
CONTINUOUS
10
175.049
20
-65.7759
11
175.049
21
-65.7759
0
LINE
8
BLACK
6
CONTINUOUS
10
175.049
20
-65.7759
11
175.05
21
-65.782
0
LINE
8
BLACK
6
CONTINUOUS
10
175.05
20
-65.782
11
175.049
21
-65.7881
0
LINE
8
BLACK
6
CONTINUOUS
10
175.049
20
-65.7881
11
175.049
21
-104.776
0
LINE
8
BLACK
6
CONTINUOUS
10
175.049
20
-104.776
11
175.05
21
-104.782
0
LINE
8
BLACK
6
CONTINUOUS
10
175.05
20
-104.782
11
175.049
21
-104.788
0
LINE
8
BLACK
6
CONTINUOUS
10
175.049
20
-104.788
11
175.049
21
-104.788
0
LINE
8
BLACK
6
CONTINUOUS
10
175.049
20
-104.788
11
175.047
21
-104.807
0
LINE
8
BLACK
6
CONTINUOUS
10
175.047
20
-104.807
11
175.04
21
-104.83
0
LINE
8
BLACK
6
CONTINUOUS
10
175.04
20
-104.83
11
175.04
21
-104.83
0
LINE
8
BLACK
6
CONTINUOUS
10
175.04
20
-104.83
11
175.028
21
-104.852
0
LINE
8
BLACK
6
CONTINUOUS
10
175.028
20
-104.852
11
175.017
21
-104.866
0
LINE
8
BLACK
6
CONTINUOUS
10
175.017
20
-104.866
11
175.017
21
-104.866
0
LINE
8
BLACK
6
CONTINUOUS
10
175.017
20
-104.866
11
175.013
21
-104.871
0
LINE
8
BLACK
6
CONTINUOUS
10
175.013
20
-104.871
11
175.008
21
-104.875
0
LINE
8
BLACK
6
CONTINUOUS
10
175.008
20
-104.875
11
172.267
21
-107.616
0
LINE
8
BLACK
6
CONTINUOUS
10
172.267
20
-107.616
11
172.263
21
-107.621
0
LINE
8
BLACK
6
CONTINUOUS
10
172.263
20
-107.621
11
172.244
21
-107.636
0
LINE
8
BLACK
6
CONTINUOUS
10
172.244
20
-107.636
11
172.222
21
-107.648
0
LINE
8
BLACK
6
CONTINUOUS
10
172.222
20
-107.648
11
172.199
21
-107.655
0
LINE
8
BLACK
6
CONTINUOUS
10
172.199
20
-107.655
11
172.18
21
-107.657
0
LINE
8
BLACK
6
CONTINUOUS
10
172.18
20
-107.657
11
172.18
21
-107.657
0
LINE
8
BLACK
6
CONTINUOUS
10
172.18
20
-107.657
11
172.174
21
-107.658
0
LINE
8
BLACK
6
CONTINUOUS
10
172.174
20
-107.658
11
172.168
21
-107.657
0
LINE
8
BLACK
6
CONTINUOUS
10
172.168
20
-107.657
11
125.18
21
-107.657
0
LINE
8
BLACK
6
CONTINUOUS
10
125.18
20
-107.657
11
125.174
21
-107.658
0
LINE
8
BLACK
6
CONTINUOUS
10
125.174
20
-107.658
11
125.168
21
-107.657
0
LINE
8
BLACK
6
CONTINUOUS
10
125.168
20
-107.657
11
125.168
21
-107.657
0
LINE
8
BLACK
6
CONTINUOUS
10
125.168
20
-107.657
11
125.149
21
-107.655
0
LINE
8
BLACK
6
CONTINUOUS
10
125.149
20
-107.655
11
125.126
21
-107.648
0
LINE
8
BLACK
6
CONTINUOUS
10
125.126
20
-107.648
11
125.104
21
-107.636
0
LINE
8
BLACK
6
CONTINUOUS
10
125.104
20
-107.636
11
125.102
21
-107.634
0
LINE
8
BLACK
6
CONTINUOUS
10
125.102
20
-107.634
11
125.09
21
-107.625
0
LINE
8
BLACK
6
CONTINUOUS
10
125.09
20
-107.625
11
125.09
21
-107.625
0
LINE
8
BLACK
6
CONTINUOUS
10
125.09
20
-107.625
11
125.085
21
-107.621
0
LINE
8
BLACK
6
CONTINUOUS
10
125.085
20
-107.621
11
125.081
21
-107.616
0
LINE
8
BLACK
6
CONTINUOUS
10
125.081
20
-107.616
11
122.34
21
-104.875
0
LINE
8
BLACK
6
CONTINUOUS
10
122.34
20
-104.875
11
122.335
21
-104.871
0
LINE
8
BLACK
6
CONTINUOUS
10
122.335
20
-104.871
11
122.331
21
-104.866
0
LINE
8
BLACK
6
CONTINUOUS
10
122.331
20
-104.866
11
122.32
21
-104.852
0
LINE
8
BLACK
6
CONTINUOUS
10
122.32
20
-104.852
11
122.308
21
-104.83
0
LINE
8
BLACK
6
CONTINUOUS
10
122.308
20
-104.83
11
122.301
21
-104.807
0
LINE
8
BLACK
6
CONTINUOUS
10
122.301
20
-104.807
11
122.298
21
-104.782
0
LINE
8
BLACK
6
CONTINUOUS
10
122.298
20
-104.782
11
122.299
21
-104.776
0
LINE
8
BLACK
6
CONTINUOUS
10
122.299
20
-104.776
11
122.299
21
-65.5381
0
LINE
8
BLACK
6
CONTINUOUS
10
122.299
20
-65.5381
11
122.298
21
-65.532
0
LINE
8
BLACK
6
CONTINUOUS
10
122.298
20
-65.532
11
122.299
21
-65.5259
0
LINE
8
BLACK
6
CONTINUOUS
10
122.299
20
-65.5259
11
122.299
21
-65.5259
0
LINE
8
BLACK
6
CONTINUOUS
10
122.299
20
-65.5259
11
122.301
21
-65.5075
0
LINE
8
BLACK
6
CONTINUOUS
10
122.301
20
-65.5075
11
122.308
21
-65.4839
0
LINE
8
BLACK
6
CONTINUOUS
10
122.308
20
-65.4839
11
122.32
21
-65.4622
0
LINE
8
BLACK
6
CONTINUOUS
10
122.32
20
-65.4622
11
122.335
21
-65.4432
0
LINE
8
BLACK
6
CONTINUOUS
10
122.335
20
-65.4432
11
122.34
21
-65.4393
0
LINE
8
BLACK
6
CONTINUOUS
10
122.34
20
-65.4393
11
125.331
21
-62.4479
0
LINE
8
BLACK
6
CONTINUOUS
10
125.331
20
-62.4479
11
125.335
21
-62.4432
0
LINE
8
BLACK
6
CONTINUOUS
10
125.335
20
-62.4432
11
125.34
21
-62.4393
0
LINE
8
BLACK
6
CONTINUOUS
10
125.34
20
-62.4393
11
125.354
21
-62.4276
0
LINE
8
BLACK
6
CONTINUOUS
10
125.354
20
-62.4276
11
125.376
21
-62.416
0
LINE
8
BLACK
6
CONTINUOUS
10
125.376
20
-62.416
11
125.399
21
-62.4088
0
LINE
8
BLACK
6
CONTINUOUS
10
125.399
20
-62.4088
11
125.418
21
-62.407
0
LINE
8
BLACK
6
CONTINUOUS
10
125.418
20
-62.407
11
125.418
21
-62.407
0
LINE
8
BLACK
6
CONTINUOUS
10
125.418
20
-62.407
11
125.424
21
-62.4064
0
LINE
8
BLACK
6
CONTINUOUS
10
125.424
20
-62.4064
11
125.43
21
-62.407
0
LINE
8
BLACK
6
CONTINUOUS
10
125.43
20
-62.407
11
172.418
21
-62.407
0
LINE
8
BLACK
6
CONTINUOUS
10
172.418
20
-62.407
11
172.424
21
-62.4064
0
LINE
8
BLACK
6
CONTINUOUS
10
172.424
20
-62.4064
11
172.43
21
-62.407
0
LINE
8
BLACK
6
CONTINUOUS
10
172.43
20
-62.407
11
172.43
21
-62.407
0
LINE
8
BLACK
6
CONTINUOUS
10
172.43
20
-62.407
11
172.449
21
-62.4088
0
LINE
8
BLACK
6
CONTINUOUS
10
172.449
20
-62.4088
11
172.472
21
-62.416
0
LINE
8
BLACK
6
CONTINUOUS
10
172.472
20
-62.416
11
172.494
21
-62.4276
0
LINE
8
BLACK
6
CONTINUOUS
10
172.494
20
-62.4276
11
172.513
21
-62.4432
0
LINE
8
BLACK
6
CONTINUOUS
10
172.513
20
-62.4432
11
172.517
21
-62.448
0
LINE
8
BLACK
6
CONTINUOUS
10
172.517
20
-62.448
11
175.508
21
-65.4393
0
LINE
8
BLACK
6
CONTINUOUS
10
175.508
20
-65.4393
11
175.513
21
-65.4432
0
LINE
8
BLACK
6
CONTINUOUS
10
175.513
20
-65.4432
11
175.517
21
-65.4479
0
LINE
8
BLACK
6
CONTINUOUS
10
175.517
20
-65.4479
11
175.528
21
-65.4622
0
LINE
8
BLACK
6
CONTINUOUS
10
175.528
20
-65.4622
11
175.54
21
-65.4839
0
LINE
8
BLACK
6
CONTINUOUS
10
175.54
20
-65.4839
11
175.547
21
-65.5075
0
LINE
8
BLACK
6
CONTINUOUS
10
175.547
20
-65.5075
11
175.549
21
-65.5259
0
LINE
8
BLACK
6
CONTINUOUS
10
175.549
20
-65.5259
11
175.549
21
-65.5259
0
LINE
8
BLACK
6
CONTINUOUS
10
175.549
20
-65.5259
11
175.55
21
-65.532
0
LINE
8
BLACK
6
CONTINUOUS
10
175.55
20
-65.532
11
175.549
21
-65.5381
0
LINE
8
BLACK
6
CONTINUOUS
10
175.549
20
-65.5381
11
175.549
21
-105.026
0
LINE
8
BLACK
6
CONTINUOUS
10
175.549
20
-105.026
11
175.55
21
-105.032
0
LINE
8
BLACK
6
CONTINUOUS
10
175.55
20
-105.032
11
175.549
21
-105.038
0
LINE
8
BLACK
6
CONTINUOUS
10
175.549
20
-105.038
11
175.549
21
-105.038
0
LINE
8
BLACK
6
CONTINUOUS
10
175.549
20
-105.038
11
175.547
21
-105.057
0
LINE
8
BLACK
6
CONTINUOUS
10
175.547
20
-105.057
11
175.54
21
-105.08
0
LINE
8
BLACK
6
CONTINUOUS
10
175.54
20
-105.08
11
175.54
21
-105.08
0
LINE
8
BLACK
6
CONTINUOUS
10
175.54
20
-105.08
11
175.528
21
-105.102
0
LINE
8
BLACK
6
CONTINUOUS
10
175.528
20
-105.102
11
175.517
21
-105.116
0
LINE
8
BLACK
6
CONTINUOUS
10
175.517
20
-105.116
11
175.513
21
-105.121
0
LINE
8
BLACK
6
CONTINUOUS
10
175.513
20
-105.121
11
175.508
21
-105.125
0
LINE
8
BLACK
6
CONTINUOUS
10
175.508
20
-105.125
11
172.517
21
-108.116
0
LINE
8
BLACK
6
CONTINUOUS
10
172.517
20
-108.116
11
172.513
21
-108.121
0
LINE
8
BLACK
6
CONTINUOUS
10
172.513
20
-108.121
11
172.494
21
-108.136
0
LINE
8
BLACK
6
CONTINUOUS
10
172.494
20
-108.136
11
172.472
21
-108.148
0
LINE
8
BLACK
6
CONTINUOUS
10
172.472
20
-108.148
11
172.449
21
-108.155
0
LINE
8
BLACK
6
CONTINUOUS
10
172.449
20
-108.155
11
172.43
21
-108.157
0
LINE
8
BLACK
6
CONTINUOUS
10
172.43
20
-108.157
11
172.43
21
-108.157
0
LINE
8
BLACK
6
CONTINUOUS
10
172.43
20
-108.157
11
172.424
21
-108.158
0
LINE
8
BLACK
6
CONTINUOUS
10
172.424
20
-108.158
11
172.418
21
-108.157
0
LINE
8
BLACK
6
CONTINUOUS
10
172.418
20
-108.157
11
124.93
21
-108.157
0
LINE
8
BLACK
6
CONTINUOUS
10
124.93
20
-108.157
11
124.924
21
-108.158
0
LINE
8
BLACK
6
CONTINUOUS
10
124.924
20
-108.158
11
124.918
21
-108.157
0
LINE
8
BLACK
6
CONTINUOUS
10
124.918
20
-108.157
11
124.918
21
-108.157
0
LINE
8
BLACK
6
CONTINUOUS
10
124.918
20
-108.157
11
124.899
21
-108.155
0
LINE
8
BLACK
6
CONTINUOUS
10
124.899
20
-108.155
11
124.876
21
-108.148
0
LINE
8
BLACK
6
CONTINUOUS
10
124.876
20
-108.148
11
124.854
21
-108.136
0
LINE
8
BLACK
6
CONTINUOUS
10
124.854
20
-108.136
11
124.84
21
-108.125
0
LINE
8
BLACK
6
CONTINUOUS
10
124.84
20
-108.125
11
124.835
21
-108.121
0
LINE
8
BLACK
6
CONTINUOUS
10
124.835
20
-108.121
11
124.831
21
-108.116
0
LINE
8
BLACK
6
CONTINUOUS
10
124.831
20
-108.116
11
121.84
21
-105.125
0
LINE
8
BLACK
6
CONTINUOUS
10
121.84
20
-105.125
11
121.835
21
-105.121
0
LINE
8
BLACK
6
CONTINUOUS
10
121.835
20
-105.121
11
121.831
21
-105.116
0
LINE
8
BLACK
6
CONTINUOUS
10
121.831
20
-105.116
11
121.82
21
-105.102
0
LINE
8
BLACK
6
CONTINUOUS
10
121.82
20
-105.102
11
121.808
21
-105.08
0
LINE
8
BLACK
6
CONTINUOUS
10
121.808
20
-105.08
11
121.801
21
-105.057
0
LINE
8
BLACK
6
CONTINUOUS
10
121.801
20
-105.057
11
121.798
21
-105.032
0
LINE
8
BLACK
6
CONTINUOUS
10
121.798
20
-105.032
11
121.799
21
-105.026
0
LINE
8
BLACK
6
CONTINUOUS
10
121.799
20
-105.026
11
121.799
21
-65.2881
0
LINE
8
BLACK
6
CONTINUOUS
10
121.799
20
-65.2881
11
121.798
21
-65.282
0
LINE
8
BLACK
6
CONTINUOUS
10
121.798
20
-65.282
11
121.799
21
-65.2759
0
LINE
8
BLACK
6
CONTINUOUS
10
121.799
20
-65.2759
11
121.799
21
-65.2759
0
LINE
8
BLACK
6
CONTINUOUS
10
121.799
20
-65.2759
11
121.801
21
-65.2575
0
LINE
8
BLACK
6
CONTINUOUS
10
121.801
20
-65.2575
11
121.808
21
-65.2339
0
LINE
8
BLACK
6
CONTINUOUS
10
121.808
20
-65.2339
11
121.82
21
-65.2122
0
LINE
8
BLACK
6
CONTINUOUS
10
121.82
20
-65.2122
11
121.835
21
-65.1932
0
LINE
8
BLACK
6
CONTINUOUS
10
121.835
20
-65.1932
11
121.84
21
-65.1893
0
LINE
8
BLACK
6
CONTINUOUS
10
121.84
20
-65.1893
11
125.081
21
-61.9479
0
LINE
8
BLACK
6
CONTINUOUS
10
125.081
20
-61.9479
11
125.085
21
-61.9432
0
LINE
8
BLACK
6
CONTINUOUS
10
125.085
20
-61.9432
11
125.09
21
-61.9393
0
LINE
8
BLACK
6
CONTINUOUS
10
125.09
20
-61.9393
11
125.09
21
-61.9393
0
LINE
8
BLACK
6
CONTINUOUS
10
125.09
20
-61.9393
11
125.104
21
-61.9276
0
LINE
8
BLACK
6
CONTINUOUS
10
125.104
20
-61.9276
11
125.126
21
-61.916
0
LINE
8
BLACK
6
CONTINUOUS
10
125.126
20
-61.916
11
125.149
21
-61.9088
0
LINE
8
BLACK
6
CONTINUOUS
10
125.149
20
-61.9088
11
125.168
21
-61.907
0
LINE
8
BLACK
6
CONTINUOUS
10
125.168
20
-61.907
11
125.168
21
-61.907
0
LINE
8
BLACK
6
CONTINUOUS
10
125.168
20
-61.907
11
125.174
21
-61.9064
0
LINE
8
BLACK
6
CONTINUOUS
10
125.174
20
-61.9064
11
125.18
21
-61.907
0
LINE
8
BLACK
6
CONTINUOUS
10
125.18
20
-61.907
11
172.668
21
-61.907
0
LINE
8
BLACK
6
CONTINUOUS
10
172.668
20
-61.907
11
172.674
21
-61.9064
0
LINE
8
BLACK
6
CONTINUOUS
10
172.674
20
-61.9064
11
172.68
21
-61.907
0
LINE
8
BLACK
6
CONTINUOUS
10
172.68
20
-61.907
11
172.68
21
-61.907
0
LINE
8
BLACK
6
CONTINUOUS
10
172.68
20
-61.907
11
172.699
21
-61.9088
0
LINE
8
BLACK
6
CONTINUOUS
10
172.699
20
-61.9088
11
172.722
21
-61.916
0
LINE
8
BLACK
6
CONTINUOUS
10
172.722
20
-61.916
11
172.744
21
-61.9276
0
LINE
8
BLACK
6
CONTINUOUS
10
172.744
20
-61.9276
11
172.763
21
-61.9432
0
LINE
8
BLACK
6
CONTINUOUS
10
172.763
20
-61.9432
11
172.767
21
-61.948
0
LINE
8
BLACK
6
CONTINUOUS
10
172.767
20
-61.948
11
176.008
21
-65.1893
0
LINE
8
BLACK
6
CONTINUOUS
10
176.008
20
-65.1893
11
176.013
21
-65.1932
0
LINE
8
BLACK
6
CONTINUOUS
10
176.013
20
-65.1932
11
176.017
21
-65.1979
0
LINE
8
BLACK
6
CONTINUOUS
10
176.017
20
-65.1979
11
176.017
21
-65.1979
0
LINE
8
BLACK
6
CONTINUOUS
10
176.017
20
-65.1979
11
176.028
21
-65.2122
0
LINE
8
BLACK
6
CONTINUOUS
10
176.028
20
-65.2122
11
176.04
21
-65.2339
0
LINE
8
BLACK
6
CONTINUOUS
10
176.04
20
-65.2339
11
176.047
21
-65.2575
0
LINE
8
BLACK
6
CONTINUOUS
10
176.047
20
-65.2575
11
176.049
21
-65.2759
0
LINE
8
BLACK
6
CONTINUOUS
10
176.049
20
-65.2759
11
176.049
21
-65.2759
0
LINE
8
BLACK
6
CONTINUOUS
10
176.049
20
-65.2759
11
176.05
21
-65.282
0
LINE
8
BLACK
6
CONTINUOUS
10
176.05
20
-65.282
11
176.049
21
-65.2881
0
LINE
8
BLACK
6
CONTINUOUS
10
176.049
20
-65.2881
11
176.049
21
-105.276
0
LINE
8
BLACK
6
CONTINUOUS
10
176.049
20
-105.276
11
176.05
21
-105.282
0
LINE
8
BLACK
6
CONTINUOUS
10
176.05
20
-105.282
11
176.049
21
-105.288
0
LINE
8
BLACK
6
CONTINUOUS
10
176.049
20
-105.288
11
176.049
21
-105.288
0
LINE
8
BLACK
6
CONTINUOUS
10
176.049
20
-105.288
11
176.047
21
-105.307
0
LINE
8
BLACK
6
CONTINUOUS
10
176.047
20
-105.307
11
176.04
21
-105.33
0
LINE
8
BLACK
6
CONTINUOUS
10
176.04
20
-105.33
11
176.04
21
-105.33
0
LINE
8
BLACK
6
CONTINUOUS
10
176.04
20
-105.33
11
176.028
21
-105.352
0
LINE
8
BLACK
6
CONTINUOUS
10
176.028
20
-105.352
11
176.017
21
-105.366
0
LINE
8
BLACK
6
CONTINUOUS
10
176.017
20
-105.366
11
176.017
21
-105.366
0
LINE
8
BLACK
6
CONTINUOUS
10
176.017
20
-105.366
11
176.013
21
-105.371
0
LINE
8
BLACK
6
CONTINUOUS
10
176.013
20
-105.371
11
176.008
21
-105.375
0
LINE
8
BLACK
6
CONTINUOUS
10
176.008
20
-105.375
11
172.767
21
-108.616
0
LINE
8
BLACK
6
CONTINUOUS
10
172.767
20
-108.616
11
172.763
21
-108.621
0
LINE
8
BLACK
6
CONTINUOUS
10
172.763
20
-108.621
11
172.744
21
-108.636
0
LINE
8
BLACK
6
CONTINUOUS
10
172.744
20
-108.636
11
172.722
21
-108.648
0
LINE
8
BLACK
6
CONTINUOUS
10
172.722
20
-108.648
11
172.699
21
-108.655
0
LINE
8
BLACK
6
CONTINUOUS
10
172.699
20
-108.655
11
172.68
21
-108.657
0
LINE
8
BLACK
6
CONTINUOUS
10
172.68
20
-108.657
11
172.68
21
-108.657
0
LINE
8
BLACK
6
CONTINUOUS
10
172.68
20
-108.657
11
172.674
21
-108.658
0
LINE
8
BLACK
6
CONTINUOUS
10
172.674
20
-108.658
11
172.668
21
-108.657
0
LINE
8
BLACK
6
CONTINUOUS
10
172.668
20
-108.657
11
124.68
21
-108.657
0
LINE
8
BLACK
6
CONTINUOUS
10
124.68
20
-108.657
11
124.674
21
-108.658
0
LINE
8
BLACK
6
CONTINUOUS
10
124.674
20
-108.658
11
124.668
21
-108.657
0
LINE
8
BLACK
6
CONTINUOUS
10
124.668
20
-108.657
11
124.668
21
-108.657
0
LINE
8
BLACK
6
CONTINUOUS
10
124.668
20
-108.657
11
124.649
21
-108.655
0
LINE
8
BLACK
6
CONTINUOUS
10
124.649
20
-108.655
11
124.626
21
-108.648
0
LINE
8
BLACK
6
CONTINUOUS
10
124.626
20
-108.648
11
124.604
21
-108.636
0
LINE
8
BLACK
6
CONTINUOUS
10
124.604
20
-108.636
11
124.59
21
-108.625
0
LINE
8
BLACK
6
CONTINUOUS
10
124.59
20
-108.625
11
124.59
21
-108.625
0
LINE
8
BLACK
6
CONTINUOUS
10
124.59
20
-108.625
11
124.585
21
-108.621
0
LINE
8
BLACK
6
CONTINUOUS
10
124.585
20
-108.621
11
124.581
21
-108.616
0
LINE
8
BLACK
6
CONTINUOUS
10
124.581
20
-108.616
11
121.34
21
-105.375
0
LINE
8
BLACK
6
CONTINUOUS
10
121.34
20
-105.375
11
121.335
21
-105.371
0
LINE
8
BLACK
6
CONTINUOUS
10
121.335
20
-105.371
11
121.331
21
-105.366
0
LINE
8
BLACK
6
CONTINUOUS
10
121.331
20
-105.366
11
121.32
21
-105.352
0
LINE
8
BLACK
6
CONTINUOUS
10
121.32
20
-105.352
11
121.308
21
-105.33
0
LINE
8
BLACK
6
CONTINUOUS
10
121.308
20
-105.33
11
121.301
21
-105.307
0
LINE
8
BLACK
6
CONTINUOUS
10
121.301
20
-105.307
11
121.298
21
-105.282
0
LINE
8
BLACK
6
CONTINUOUS
10
121.298
20
-105.282
11
121.299
21
-105.276
0
LINE
8
BLACK
6
CONTINUOUS
10
121.299
20
-105.276
11
121.299
21
-65.0381
0
LINE
8
BLACK
6
CONTINUOUS
10
121.299
20
-65.0381
11
121.298
21
-65.032
0
LINE
8
BLACK
6
CONTINUOUS
10
121.298
20
-65.032
11
121.299
21
-65.0259
0
LINE
8
BLACK
6
CONTINUOUS
10
121.299
20
-65.0259
11
121.299
21
-65.0259
0
LINE
8
BLACK
6
CONTINUOUS
10
121.299
20
-65.0259
11
121.301
21
-65.0075
0
LINE
8
BLACK
6
CONTINUOUS
10
121.301
20
-65.0075
11
121.308
21
-64.9839
0
LINE
8
BLACK
6
CONTINUOUS
10
121.308
20
-64.9839
11
121.32
21
-64.9622
0
LINE
8
BLACK
6
CONTINUOUS
10
121.32
20
-64.9622
11
121.335
21
-64.9432
0
LINE
8
BLACK
6
CONTINUOUS
10
121.335
20
-64.9432
11
121.34
21
-64.9393
0
LINE
8
BLACK
6
CONTINUOUS
10
121.34
20
-64.9393
11
124.831
21
-61.4479
0
LINE
8
BLACK
6
CONTINUOUS
10
124.831
20
-61.4479
11
124.835
21
-61.4432
0
LINE
8
BLACK
6
CONTINUOUS
10
124.835
20
-61.4432
11
124.84
21
-61.4393
0
LINE
8
BLACK
6
CONTINUOUS
10
124.84
20
-61.4393
11
124.84
21
-61.4393
0
LINE
8
BLACK
6
CONTINUOUS
10
124.84
20
-61.4393
11
124.854
21
-61.4276
0
LINE
8
BLACK
6
CONTINUOUS
10
124.854
20
-61.4276
11
124.854
21
-61.4276
0
LINE
8
BLACK
6
CONTINUOUS
10
124.854
20
-61.4276
11
124.854
21
-61.4276
0
LINE
8
BLACK
6
CONTINUOUS
10
124.854
20
-61.4276
11
124.876
21
-61.416
0
LINE
8
BLACK
6
CONTINUOUS
10
124.876
20
-61.416
11
124.899
21
-61.4088
0
LINE
8
BLACK
6
CONTINUOUS
10
124.899
20
-61.4088
11
124.918
21
-61.407
0
LINE
8
BLACK
6
CONTINUOUS
10
124.918
20
-61.407
11
124.918
21
-61.407
0
LINE
8
BLACK
6
CONTINUOUS
10
124.918
20
-61.407
11
124.924
21
-61.4064
0
LINE
8
BLACK
6
CONTINUOUS
10
124.924
20
-61.4064
11
124.93
21
-61.407
0
LINE
8
BLACK
6
CONTINUOUS
10
124.93
20
-61.407
11
172.918
21
-61.407
0
LINE
8
BLACK
6
CONTINUOUS
10
172.918
20
-61.407
11
172.924
21
-61.4064
0
LINE
8
BLACK
6
CONTINUOUS
10
172.924
20
-61.4064
11
172.93
21
-61.407
0
LINE
8
BLACK
6
CONTINUOUS
10
172.93
20
-61.407
11
172.93
21
-61.407
0
LINE
8
BLACK
6
CONTINUOUS
10
172.93
20
-61.407
11
172.949
21
-61.4088
0
LINE
8
BLACK
6
CONTINUOUS
10
172.949
20
-61.4088
11
172.972
21
-61.416
0
LINE
8
BLACK
6
CONTINUOUS
10
172.972
20
-61.416
11
172.994
21
-61.4276
0
LINE
8
BLACK
6
CONTINUOUS
10
172.994
20
-61.4276
11
173.013
21
-61.4432
0
LINE
8
BLACK
6
CONTINUOUS
10
173.013
20
-61.4432
11
173.017
21
-61.448
0
LINE
8
BLACK
6
CONTINUOUS
10
173.017
20
-61.448
11
176.508
21
-64.9393
0
LINE
8
BLACK
6
CONTINUOUS
10
176.508
20
-64.9393
11
176.513
21
-64.9432
0
LINE
8
BLACK
6
CONTINUOUS
10
176.513
20
-64.9432
11
176.517
21
-64.9479
0
LINE
8
BLACK
6
CONTINUOUS
10
176.517
20
-64.9479
11
176.517
21
-64.9479
0
LINE
8
BLACK
6
CONTINUOUS
10
176.517
20
-64.9479
11
176.526
21
-64.9597
0
LINE
8
BLACK
6
CONTINUOUS
10
176.526
20
-64.9597
11
176.528
21
-64.9622
0
LINE
8
BLACK
6
CONTINUOUS
10
176.528
20
-64.9622
11
176.54
21
-64.9839
0
LINE
8
BLACK
6
CONTINUOUS
10
176.54
20
-64.9839
11
176.547
21
-65.0075
0
LINE
8
BLACK
6
CONTINUOUS
10
176.547
20
-65.0075
11
176.549
21
-65.0259
0
LINE
8
BLACK
6
CONTINUOUS
10
176.549
20
-65.0259
11
176.549
21
-65.0259
0
LINE
8
BLACK
6
CONTINUOUS
10
176.549
20
-65.0259
11
176.55
21
-65.032
0
LINE
8
BLACK
6
CONTINUOUS
10
176.55
20
-65.032
11
176.549
21
-65.0381
0
LINE
8
BLACK
6
CONTINUOUS
10
176.549
20
-65.0381
11
176.549
21
-105.526
0
LINE
8
BLACK
6
CONTINUOUS
10
176.549
20
-105.526
11
176.55
21
-105.532
0
LINE
8
BLACK
6
CONTINUOUS
10
176.55
20
-105.532
11
176.549
21
-105.538
0
LINE
8
BLACK
6
CONTINUOUS
10
176.549
20
-105.538
11
176.549
21
-105.538
0
LINE
8
BLACK
6
CONTINUOUS
10
176.549
20
-105.538
11
176.547
21
-105.557
0
LINE
8
BLACK
6
CONTINUOUS
10
176.547
20
-105.557
11
176.54
21
-105.58
0
LINE
8
BLACK
6
CONTINUOUS
10
176.54
20
-105.58
11
176.528
21
-105.602
0
LINE
8
BLACK
6
CONTINUOUS
10
176.528
20
-105.602
11
176.528
21
-105.602
0
LINE
8
BLACK
6
CONTINUOUS
10
176.528
20
-105.602
11
176.517
21
-105.616
0
LINE
8
BLACK
6
CONTINUOUS
10
176.517
20
-105.616
11
176.517
21
-105.616
0
LINE
8
BLACK
6
CONTINUOUS
10
176.517
20
-105.616
11
176.513
21
-105.621
0
LINE
8
BLACK
6
CONTINUOUS
10
176.513
20
-105.621
11
176.508
21
-105.625
0
LINE
8
BLACK
6
CONTINUOUS
10
176.508
20
-105.625
11
173.017
21
-109.116
0
LINE
8
BLACK
6
CONTINUOUS
10
173.017
20
-109.116
11
173.013
21
-109.121
0
LINE
8
BLACK
6
CONTINUOUS
10
173.013
20
-109.121
11
172.994
21
-109.136
0
LINE
8
BLACK
6
CONTINUOUS
10
172.994
20
-109.136
11
172.972
21
-109.148
0
LINE
8
BLACK
6
CONTINUOUS
10
172.972
20
-109.148
11
172.949
21
-109.155
0
LINE
8
BLACK
6
CONTINUOUS
10
172.949
20
-109.155
11
172.93
21
-109.157
0
LINE
8
BLACK
6
CONTINUOUS
10
172.93
20
-109.157
11
172.93
21
-109.157
0
LINE
8
BLACK
6
CONTINUOUS
10
172.93
20
-109.157
11
172.924
21
-109.158
0
LINE
8
BLACK
6
CONTINUOUS
10
172.924
20
-109.158
11
172.918
21
-109.157
0
LINE
8
BLACK
6
CONTINUOUS
10
172.918
20
-109.157
11
124.43
21
-109.157
0
LINE
8
BLACK
6
CONTINUOUS
10
124.43
20
-109.157
11
124.424
21
-109.158
0
LINE
8
BLACK
6
CONTINUOUS
10
124.424
20
-109.158
11
124.418
21
-109.157
0
LINE
8
BLACK
6
CONTINUOUS
10
124.418
20
-109.157
11
124.418
21
-109.157
0
LINE
8
BLACK
6
CONTINUOUS
10
124.418
20
-109.157
11
124.399
21
-109.155
0
LINE
8
BLACK
6
CONTINUOUS
10
124.399
20
-109.155
11
124.376
21
-109.148
0
LINE
8
BLACK
6
CONTINUOUS
10
124.376
20
-109.148
11
124.354
21
-109.136
0
LINE
8
BLACK
6
CONTINUOUS
10
124.354
20
-109.136
11
124.352
21
-109.134
0
LINE
8
BLACK
6
CONTINUOUS
10
124.352
20
-109.134
11
124.34
21
-109.125
0
LINE
8
BLACK
6
CONTINUOUS
10
124.34
20
-109.125
11
124.34
21
-109.125
0
LINE
8
BLACK
6
CONTINUOUS
10
124.34
20
-109.125
11
124.335
21
-109.121
0
LINE
8
BLACK
6
CONTINUOUS
10
124.335
20
-109.121
11
124.331
21
-109.116
0
LINE
8
BLACK
6
CONTINUOUS
10
124.331
20
-109.116
11
120.84
21
-105.625
0
LINE
8
BLACK
6
CONTINUOUS
10
120.84
20
-105.625
11
120.835
21
-105.621
0
LINE
8
BLACK
6
CONTINUOUS
10
120.835
20
-105.621
11
120.831
21
-105.616
0
LINE
8
BLACK
6
CONTINUOUS
10
120.831
20
-105.616
11
120.82
21
-105.602
0
LINE
8
BLACK
6
CONTINUOUS
10
120.82
20
-105.602
11
120.808
21
-105.58
0
LINE
8
BLACK
6
CONTINUOUS
10
120.808
20
-105.58
11
120.801
21
-105.557
0
LINE
8
BLACK
6
CONTINUOUS
10
120.801
20
-105.557
11
120.798
21
-105.532
0
LINE
8
BLACK
6
CONTINUOUS
10
120.798
20
-105.532
11
120.799
21
-105.526
0
LINE
8
BLACK
6
CONTINUOUS
10
120.799
20
-105.526
11
120.799
21
-64.7881
0
LINE
8
BLACK
6
CONTINUOUS
10
120.799
20
-64.7881
11
120.798
21
-64.782
0
LINE
8
BLACK
6
CONTINUOUS
10
120.798
20
-64.782
11
120.799
21
-64.7759
0
LINE
8
BLACK
6
CONTINUOUS
10
120.799
20
-64.7759
11
120.799
21
-64.7759
0
LINE
8
BLACK
6
CONTINUOUS
10
120.799
20
-64.7759
11
120.801
21
-64.7575
0
LINE
8
BLACK
6
CONTINUOUS
10
120.801
20
-64.7575
11
120.808
21
-64.7339
0
LINE
8
BLACK
6
CONTINUOUS
10
120.808
20
-64.7339
11
120.82
21
-64.7122
0
LINE
8
BLACK
6
CONTINUOUS
10
120.82
20
-64.7122
11
120.835
21
-64.6932
0
LINE
8
BLACK
6
CONTINUOUS
10
120.835
20
-64.6932
11
120.84
21
-64.6893
0
LINE
8
BLACK
6
CONTINUOUS
10
120.84
20
-64.6893
11
124.581
21
-60.9479
0
LINE
8
BLACK
6
CONTINUOUS
10
124.581
20
-60.9479
11
124.585
21
-60.9432
0
LINE
8
BLACK
6
CONTINUOUS
10
124.585
20
-60.9432
11
124.59
21
-60.9393
0
LINE
8
BLACK
6
CONTINUOUS
10
124.59
20
-60.9393
11
124.604
21
-60.9276
0
LINE
8
BLACK
6
CONTINUOUS
10
124.604
20
-60.9276
11
124.626
21
-60.916
0
LINE
8
BLACK
6
CONTINUOUS
10
124.626
20
-60.916
11
124.649
21
-60.9088
0
LINE
8
BLACK
6
CONTINUOUS
10
124.649
20
-60.9088
11
124.668
21
-60.907
0
LINE
8
BLACK
6
CONTINUOUS
10
124.668
20
-60.907
11
124.668
21
-60.907
0
LINE
8
BLACK
6
CONTINUOUS
10
124.668
20
-60.907
11
124.674
21
-60.9064
0
LINE
8
BLACK
6
CONTINUOUS
10
124.674
20
-60.9064
11
124.68
21
-60.907
0
LINE
8
BLACK
6
CONTINUOUS
10
124.68
20
-60.907
11
173.168
21
-60.907
0
LINE
8
BLACK
6
CONTINUOUS
10
173.168
20
-60.907
11
173.174
21
-60.9064
0
LINE
8
BLACK
6
CONTINUOUS
10
173.174
20
-60.9064
11
173.18
21
-60.907
0
LINE
8
BLACK
6
CONTINUOUS
10
173.18
20
-60.907
11
173.18
21
-60.907
0
LINE
8
BLACK
6
CONTINUOUS
10
173.18
20
-60.907
11
173.199
21
-60.9088
0
LINE
8
BLACK
6
CONTINUOUS
10
173.199
20
-60.9088
11
173.222
21
-60.916
0
LINE
8
BLACK
6
CONTINUOUS
10
173.222
20
-60.916
11
173.244
21
-60.9276
0
LINE
8
BLACK
6
CONTINUOUS
10
173.244
20
-60.9276
11
173.263
21
-60.9432
0
LINE
8
BLACK
6
CONTINUOUS
10
173.263
20
-60.9432
11
173.267
21
-60.948
0
LINE
8
BLACK
6
CONTINUOUS
10
173.267
20
-60.948
11
177.008
21
-64.6893
0
LINE
8
BLACK
6
CONTINUOUS
10
177.008
20
-64.6893
11
177.013
21
-64.6932
0
LINE
8
BLACK
6
CONTINUOUS
10
177.013
20
-64.6932
11
177.017
21
-64.6979
0
LINE
8
BLACK
6
CONTINUOUS
10
177.017
20
-64.6979
11
177.028
21
-64.7122
0
LINE
8
BLACK
6
CONTINUOUS
10
177.028
20
-64.7122
11
177.04
21
-64.7339
0
LINE
8
BLACK
6
CONTINUOUS
10
177.04
20
-64.7339
11
177.047
21
-64.7575
0
LINE
8
BLACK
6
CONTINUOUS
10
177.047
20
-64.7575
11
177.049
21
-64.7759
0
LINE
8
BLACK
6
CONTINUOUS
10
177.049
20
-64.7759
11
177.049
21
-64.7759
0
LINE
8
BLACK
6
CONTINUOUS
10
177.049
20
-64.7759
11
177.05
21
-64.782
0
LINE
8
BLACK
6
CONTINUOUS
10
177.05
20
-64.782
11
177.049
21
-64.7881
0
LINE
8
BLACK
6
CONTINUOUS
10
177.049
20
-64.7881
11
177.049
21
-105.776
0
LINE
8
BLACK
6
CONTINUOUS
10
177.049
20
-105.776
11
177.05
21
-105.782
0
LINE
8
BLACK
6
CONTINUOUS
10
177.05
20
-105.782
11
177.049
21
-105.788
0
LINE
8
BLACK
6
CONTINUOUS
10
177.049
20
-105.788
11
177.049
21
-105.788
0
LINE
8
BLACK
6
CONTINUOUS
10
177.049
20
-105.788
11
177.047
21
-105.807
0
LINE
8
BLACK
6
CONTINUOUS
10
177.047
20
-105.807
11
177.04
21
-105.83
0
LINE
8
BLACK
6
CONTINUOUS
10
177.04
20
-105.83
11
177.04
21
-105.83
0
LINE
8
BLACK
6
CONTINUOUS
10
177.04
20
-105.83
11
177.028
21
-105.852
0
LINE
8
BLACK
6
CONTINUOUS
10
177.028
20
-105.852
11
177.017
21
-105.866
0
LINE
8
BLACK
6
CONTINUOUS
10
177.017
20
-105.866
11
177.013
21
-105.871
0
LINE
8
BLACK
6
CONTINUOUS
10
177.013
20
-105.871
11
177.008
21
-105.875
0
LINE
8
BLACK
6
CONTINUOUS
10
177.008
20
-105.875
11
173.267
21
-109.616
0
LINE
8
BLACK
6
CONTINUOUS
10
173.267
20
-109.616
11
173.263
21
-109.621
0
LINE
8
BLACK
6
CONTINUOUS
10
173.263
20
-109.621
11
173.244
21
-109.636
0
LINE
8
BLACK
6
CONTINUOUS
10
173.244
20
-109.636
11
173.222
21
-109.648
0
LINE
8
BLACK
6
CONTINUOUS
10
173.222
20
-109.648
11
173.199
21
-109.655
0
LINE
8
BLACK
6
CONTINUOUS
10
173.199
20
-109.655
11
173.18
21
-109.657
0
LINE
8
BLACK
6
CONTINUOUS
10
173.18
20
-109.657
11
173.18
21
-109.657
0
LINE
8
BLACK
6
CONTINUOUS
10
173.18
20
-109.657
11
173.174
21
-109.658
0
LINE
8
BLACK
6
CONTINUOUS
10
173.174
20
-109.658
11
173.168
21
-109.657
0
LINE
8
BLACK
6
CONTINUOUS
10
173.168
20
-109.657
11
124.18
21
-109.657
0
LINE
8
BLACK
6
CONTINUOUS
10
124.18
20
-109.657
11
124.174
21
-109.658
0
LINE
8
BLACK
6
CONTINUOUS
10
124.174
20
-109.658
11
124.168
21
-109.657
0
LINE
8
BLACK
6
CONTINUOUS
10
124.168
20
-109.657
11
124.168
21
-109.657
0
LINE
8
BLACK
6
CONTINUOUS
10
124.168
20
-109.657
11
124.149
21
-109.655
0
LINE
8
BLACK
6
CONTINUOUS
10
124.149
20
-109.655
11
124.126
21
-109.648
0
LINE
8
BLACK
6
CONTINUOUS
10
124.126
20
-109.648
11
124.104
21
-109.636
0
LINE
8
BLACK
6
CONTINUOUS
10
124.104
20
-109.636
11
124.09
21
-109.625
0
LINE
8
BLACK
6
CONTINUOUS
10
124.09
20
-109.625
11
124.085
21
-109.621
0
LINE
8
BLACK
6
CONTINUOUS
10
124.085
20
-109.621
11
124.081
21
-109.616
0
LINE
8
BLACK
6
CONTINUOUS
10
124.081
20
-109.616
11
120.34
21
-105.875
0
LINE
8
BLACK
6
CONTINUOUS
10
120.34
20
-105.875
11
120.335
21
-105.871
0
LINE
8
BLACK
6
CONTINUOUS
10
120.335
20
-105.871
11
120.331
21
-105.866
0
LINE
8
BLACK
6
CONTINUOUS
10
120.331
20
-105.866
11
120.32
21
-105.852
0
LINE
8
BLACK
6
CONTINUOUS
10
120.32
20
-105.852
11
120.308
21
-105.83
0
LINE
8
BLACK
6
CONTINUOUS
10
120.308
20
-105.83
11
120.301
21
-105.807
0
LINE
8
BLACK
6
CONTINUOUS
10
120.301
20
-105.807
11
120.298
21
-105.782
0
LINE
8
BLACK
6
CONTINUOUS
10
120.298
20
-105.782
11
120.299
21
-105.776
0
LINE
8
BLACK
6
CONTINUOUS
10
120.299
20
-105.776
11
120.299
21
-64.5381
0
LINE
8
BLACK
6
CONTINUOUS
10
120.299
20
-64.5381
11
120.298
21
-64.532
0
LINE
8
BLACK
6
CONTINUOUS
10
120.298
20
-64.532
11
120.299
21
-64.5259
0
LINE
8
BLACK
6
CONTINUOUS
10
120.299
20
-64.5259
11
120.299
21
-64.5259
0
LINE
8
BLACK
6
CONTINUOUS
10
120.299
20
-64.5259
11
120.301
21
-64.5075
0
LINE
8
BLACK
6
CONTINUOUS
10
120.301
20
-64.5075
11
120.308
21
-64.4839
0
LINE
8
BLACK
6
CONTINUOUS
10
120.308
20
-64.4839
11
120.32
21
-64.4622
0
LINE
8
BLACK
6
CONTINUOUS
10
120.32
20
-64.4622
11
120.335
21
-64.4432
0
LINE
8
BLACK
6
CONTINUOUS
10
120.335
20
-64.4432
11
120.34
21
-64.4393
0
LINE
8
BLACK
6
CONTINUOUS
10
120.34
20
-64.4393
11
124.331
21
-60.4479
0
LINE
8
BLACK
6
CONTINUOUS
10
124.331
20
-60.4479
11
124.335
21
-60.4432
0
LINE
8
BLACK
6
CONTINUOUS
10
124.335
20
-60.4432
11
124.34
21
-60.4393
0
LINE
8
BLACK
6
CONTINUOUS
10
124.34
20
-60.4393
11
124.34
21
-60.4393
0
LINE
8
BLACK
6
CONTINUOUS
10
124.34
20
-60.4393
11
124.354
21
-60.4276
0
LINE
8
BLACK
6
CONTINUOUS
10
124.354
20
-60.4276
11
124.354
21
-60.4276
0
LINE
8
BLACK
6
CONTINUOUS
10
124.354
20
-60.4276
11
124.354
21
-60.4276
0
LINE
8
BLACK
6
CONTINUOUS
10
124.354
20
-60.4276
11
124.376
21
-60.416
0
LINE
8
BLACK
6
CONTINUOUS
10
124.376
20
-60.416
11
124.399
21
-60.4088
0
LINE
8
BLACK
6
CONTINUOUS
10
124.399
20
-60.4088
11
124.418
21
-60.407
0
LINE
8
BLACK
6
CONTINUOUS
10
124.418
20
-60.407
11
124.418
21
-60.407
0
LINE
8
BLACK
6
CONTINUOUS
10
124.418
20
-60.407
11
124.424
21
-60.4064
0
LINE
8
BLACK
6
CONTINUOUS
10
124.424
20
-60.4064
11
124.43
21
-60.407
0
LINE
8
BLACK
6
CONTINUOUS
10
124.43
20
-60.407
11
173.418
21
-60.407
0
LINE
8
BLACK
6
CONTINUOUS
10
173.418
20
-60.407
11
173.424
21
-60.4064
0
LINE
8
BLACK
6
CONTINUOUS
10
173.424
20
-60.4064
11
173.43
21
-60.407
0
LINE
8
BLACK
6
CONTINUOUS
10
173.43
20
-60.407
11
173.43
21
-60.407
0
LINE
8
BLACK
6
CONTINUOUS
10
173.43
20
-60.407
11
173.449
21
-60.4088
0
LINE
8
BLACK
6
CONTINUOUS
10
173.449
20
-60.4088
11
173.472
21
-60.416
0
LINE
8
BLACK
6
CONTINUOUS
10
173.472
20
-60.416
11
173.494
21
-60.4276
0
LINE
8
BLACK
6
CONTINUOUS
10
173.494
20
-60.4276
11
173.513
21
-60.4432
0
LINE
8
BLACK
6
CONTINUOUS
10
173.513
20
-60.4432
11
173.517
21
-60.448
0
LINE
8
BLACK
6
CONTINUOUS
10
173.517
20
-60.448
11
177.508
21
-64.4393
0
LINE
8
BLACK
6
CONTINUOUS
10
177.508
20
-64.4393
11
177.513
21
-64.4432
0
LINE
8
BLACK
6
CONTINUOUS
10
177.513
20
-64.4432
11
177.517
21
-64.4479
0
LINE
8
BLACK
6
CONTINUOUS
10
177.517
20
-64.4479
11
177.517
21
-64.4479
0
LINE
8
BLACK
6
CONTINUOUS
10
177.517
20
-64.4479
11
177.526
21
-64.4597
0
LINE
8
BLACK
6
CONTINUOUS
10
177.526
20
-64.4597
11
177.528
21
-64.4622
0
LINE
8
BLACK
6
CONTINUOUS
10
177.528
20
-64.4622
11
177.54
21
-64.4839
0
LINE
8
BLACK
6
CONTINUOUS
10
177.54
20
-64.4839
11
177.547
21
-64.5075
0
LINE
8
BLACK
6
CONTINUOUS
10
177.547
20
-64.5075
11
177.549
21
-64.5259
0
LINE
8
BLACK
6
CONTINUOUS
10
177.549
20
-64.5259
11
177.549
21
-64.5259
0
LINE
8
BLACK
6
CONTINUOUS
10
177.549
20
-64.5259
11
177.55
21
-64.532
0
LINE
8
BLACK
6
CONTINUOUS
10
177.55
20
-64.532
11
177.549
21
-64.5381
0
LINE
8
BLACK
6
CONTINUOUS
10
177.549
20
-64.5381
11
177.549
21
-106.026
0
LINE
8
BLACK
6
CONTINUOUS
10
177.549
20
-106.026
11
177.55
21
-106.032
0
LINE
8
BLACK
6
CONTINUOUS
10
177.55
20
-106.032
11
177.549
21
-106.038
0
LINE
8
BLACK
6
CONTINUOUS
10
177.549
20
-106.038
11
177.549
21
-106.038
0
LINE
8
BLACK
6
CONTINUOUS
10
177.549
20
-106.038
11
177.547
21
-106.057
0
LINE
8
BLACK
6
CONTINUOUS
10
177.547
20
-106.057
11
177.54
21
-106.08
0
LINE
8
BLACK
6
CONTINUOUS
10
177.54
20
-106.08
11
177.54
21
-106.08
0
LINE
8
BLACK
6
CONTINUOUS
10
177.54
20
-106.08
11
177.528
21
-106.102
0
LINE
8
BLACK
6
CONTINUOUS
10
177.528
20
-106.102
11
177.517
21
-106.116
0
LINE
8
BLACK
6
CONTINUOUS
10
177.517
20
-106.116
11
177.517
21
-106.116
0
LINE
8
BLACK
6
CONTINUOUS
10
177.517
20
-106.116
11
177.513
21
-106.121
0
LINE
8
BLACK
6
CONTINUOUS
10
177.513
20
-106.121
11
177.508
21
-106.125
0
LINE
8
BLACK
6
CONTINUOUS
10
177.508
20
-106.125
11
173.517
21
-110.116
0
LINE
8
BLACK
6
CONTINUOUS
10
173.517
20
-110.116
11
173.513
21
-110.121
0
LINE
8
BLACK
6
CONTINUOUS
10
173.513
20
-110.121
11
173.494
21
-110.136
0
LINE
8
BLACK
6
CONTINUOUS
10
173.494
20
-110.136
11
173.472
21
-110.148
0
LINE
8
BLACK
6
CONTINUOUS
10
173.472
20
-110.148
11
173.449
21
-110.155
0
LINE
8
BLACK
6
CONTINUOUS
10
173.449
20
-110.155
11
173.43
21
-110.157
0
LINE
8
BLACK
6
CONTINUOUS
10
173.43
20
-110.157
11
173.43
21
-110.157
0
LINE
8
BLACK
6
CONTINUOUS
10
173.43
20
-110.157
11
173.424
21
-110.158
0
LINE
8
BLACK
6
CONTINUOUS
10
173.424
20
-110.158
11
173.418
21
-110.157
0
LINE
8
BLACK
6
CONTINUOUS
10
173.418
20
-110.157
11
123.93
21
-110.157
0
LINE
8
BLACK
6
CONTINUOUS
10
123.93
20
-110.157
11
123.924
21
-110.158
0
LINE
8
BLACK
6
CONTINUOUS
10
123.924
20
-110.158
11
123.918
21
-110.157
0
LINE
8
BLACK
6
CONTINUOUS
10
123.918
20
-110.157
11
123.918
21
-110.157
0
LINE
8
BLACK
6
CONTINUOUS
10
123.918
20
-110.157
11
123.899
21
-110.155
0
LINE
8
BLACK
6
CONTINUOUS
10
123.899
20
-110.155
11
123.876
21
-110.148
0
LINE
8
BLACK
6
CONTINUOUS
10
123.876
20
-110.148
11
123.854
21
-110.136
0
LINE
8
BLACK
6
CONTINUOUS
10
123.854
20
-110.136
11
123.852
21
-110.134
0
LINE
8
BLACK
6
CONTINUOUS
10
123.852
20
-110.134
11
123.84
21
-110.125
0
LINE
8
BLACK
6
CONTINUOUS
10
123.84
20
-110.125
11
123.84
21
-110.125
0
LINE
8
BLACK
6
CONTINUOUS
10
123.84
20
-110.125
11
123.835
21
-110.121
0
LINE
8
BLACK
6
CONTINUOUS
10
123.835
20
-110.121
11
123.831
21
-110.116
0
LINE
8
BLACK
6
CONTINUOUS
10
123.831
20
-110.116
11
119.84
21
-106.125
0
LINE
8
BLACK
6
CONTINUOUS
10
119.84
20
-106.125
11
119.835
21
-106.121
0
LINE
8
BLACK
6
CONTINUOUS
10
119.835
20
-106.121
11
119.831
21
-106.116
0
LINE
8
BLACK
6
CONTINUOUS
10
119.831
20
-106.116
11
119.82
21
-106.102
0
LINE
8
BLACK
6
CONTINUOUS
10
119.82
20
-106.102
11
119.808
21
-106.08
0
LINE
8
BLACK
6
CONTINUOUS
10
119.808
20
-106.08
11
119.801
21
-106.057
0
LINE
8
BLACK
6
CONTINUOUS
10
119.801
20
-106.057
11
119.798
21
-106.032
0
LINE
8
BLACK
6
CONTINUOUS
10
119.798
20
-106.032
11
119.799
21
-106.026
0
LINE
8
BLACK
6
CONTINUOUS
10
119.799
20
-106.026
11
119.799
21
-64.2881
0
LINE
8
BLACK
6
CONTINUOUS
10
119.799
20
-64.2881
11
119.798
21
-64.282
0
LINE
8
BLACK
6
CONTINUOUS
10
119.798
20
-64.282
11
119.799
21
-64.2759
0
LINE
8
BLACK
6
CONTINUOUS
10
119.799
20
-64.2759
11
119.799
21
-64.2759
0
LINE
8
BLACK
6
CONTINUOUS
10
119.799
20
-64.2759
11
119.801
21
-64.2575
0
LINE
8
BLACK
6
CONTINUOUS
10
119.801
20
-64.2575
11
119.808
21
-64.2339
0
LINE
8
BLACK
6
CONTINUOUS
10
119.808
20
-64.2339
11
119.82
21
-64.2122
0
LINE
8
BLACK
6
CONTINUOUS
10
119.82
20
-64.2122
11
119.835
21
-64.1932
0
LINE
8
BLACK
6
CONTINUOUS
10
119.835
20
-64.1932
11
119.84
21
-64.1893
0
LINE
8
BLACK
6
CONTINUOUS
10
119.84
20
-64.1893
11
124.081
21
-59.9479
0
LINE
8
BLACK
6
CONTINUOUS
10
124.081
20
-59.9479
11
124.085
21
-59.9432
0
LINE
8
BLACK
6
CONTINUOUS
10
124.085
20
-59.9432
11
124.104
21
-59.9276
0
LINE
8
BLACK
6
CONTINUOUS
10
124.104
20
-59.9276
11
124.126
21
-59.916
0
LINE
8
BLACK
6
CONTINUOUS
10
124.126
20
-59.916
11
124.149
21
-59.9088
0
LINE
8
BLACK
6
CONTINUOUS
10
124.149
20
-59.9088
11
124.168
21
-59.907
0
LINE
8
BLACK
6
CONTINUOUS
10
124.168
20
-59.907
11
124.168
21
-59.907
0
LINE
8
BLACK
6
CONTINUOUS
10
124.168
20
-59.907
11
124.174
21
-59.9064
0
LINE
8
BLACK
6
CONTINUOUS
10
124.174
20
-59.9064
11
124.18
21
-59.907
0
LINE
8
BLACK
6
CONTINUOUS
10
124.18
20
-59.907
11
173.668
21
-59.907
0
LINE
8
BLACK
6
CONTINUOUS
10
173.668
20
-59.907
11
173.674
21
-59.9064
0
LINE
8
BLACK
6
CONTINUOUS
10
173.674
20
-59.9064
11
173.68
21
-59.907
0
LINE
8
BLACK
6
CONTINUOUS
10
173.68
20
-59.907
11
173.68
21
-59.907
0
LINE
8
BLACK
6
CONTINUOUS
10
173.68
20
-59.907
11
173.699
21
-59.9088
0
LINE
8
BLACK
6
CONTINUOUS
10
173.699
20
-59.9088
11
173.722
21
-59.916
0
LINE
8
BLACK
6
CONTINUOUS
10
173.722
20
-59.916
11
173.744
21
-59.9276
0
LINE
8
BLACK
6
CONTINUOUS
10
173.744
20
-59.9276
11
173.763
21
-59.9432
0
LINE
8
BLACK
6
CONTINUOUS
10
173.763
20
-59.9432
11
173.767
21
-59.948
0
LINE
8
BLACK
6
CONTINUOUS
10
173.767
20
-59.948
11
178.008
21
-64.1893
0
LINE
8
BLACK
6
CONTINUOUS
10
178.008
20
-64.1893
11
178.013
21
-64.1932
0
LINE
8
BLACK
6
CONTINUOUS
10
178.013
20
-64.1932
11
178.028
21
-64.2122
0
LINE
8
BLACK
6
CONTINUOUS
10
178.028
20
-64.2122
11
178.04
21
-64.2339
0
LINE
8
BLACK
6
CONTINUOUS
10
178.04
20
-64.2339
11
178.047
21
-64.2575
0
LINE
8
BLACK
6
CONTINUOUS
10
178.047
20
-64.2575
11
178.049
21
-64.2759
0
LINE
8
BLACK
6
CONTINUOUS
10
178.049
20
-64.2759
11
178.049
21
-64.2759
0
LINE
8
BLACK
6
CONTINUOUS
10
178.049
20
-64.2759
11
178.05
21
-64.282
0
LINE
8
BLACK
6
CONTINUOUS
10
178.05
20
-64.282
11
178.049
21
-64.2881
0
LINE
8
BLACK
6
CONTINUOUS
10
178.049
20
-64.2881
11
178.049
21
-106.276
0
LINE
8
BLACK
6
CONTINUOUS
10
178.049
20
-106.276
11
178.05
21
-106.282
0
LINE
8
BLACK
6
CONTINUOUS
10
178.05
20
-106.282
11
178.049
21
-106.288
0
LINE
8
BLACK
6
CONTINUOUS
10
178.049
20
-106.288
11
178.049
21
-106.288
0
LINE
8
BLACK
6
CONTINUOUS
10
178.049
20
-106.288
11
178.047
21
-106.307
0
LINE
8
BLACK
6
CONTINUOUS
10
178.047
20
-106.307
11
178.04
21
-106.33
0
LINE
8
BLACK
6
CONTINUOUS
10
178.04
20
-106.33
11
178.028
21
-106.352
0
LINE
8
BLACK
6
CONTINUOUS
10
178.028
20
-106.352
11
178.013
21
-106.371
0
LINE
8
BLACK
6
CONTINUOUS
10
178.013
20
-106.371
11
178.008
21
-106.375
0
LINE
8
BLACK
6
CONTINUOUS
10
178.008
20
-106.375
11
173.767
21
-110.616
0
LINE
8
BLACK
6
CONTINUOUS
10
173.767
20
-110.616
11
173.763
21
-110.621
0
LINE
8
BLACK
6
CONTINUOUS
10
173.763
20
-110.621
11
173.744
21
-110.636
0
LINE
8
BLACK
6
CONTINUOUS
10
173.744
20
-110.636
11
173.722
21
-110.648
0
LINE
8
BLACK
6
CONTINUOUS
10
173.722
20
-110.648
11
173.699
21
-110.655
0
LINE
8
BLACK
6
CONTINUOUS
10
173.699
20
-110.655
11
173.68
21
-110.657
0
LINE
8
BLACK
6
CONTINUOUS
10
173.68
20
-110.657
11
173.68
21
-110.657
0
LINE
8
BLACK
6
CONTINUOUS
10
173.68
20
-110.657
11
173.674
21
-110.658
0
LINE
8
BLACK
6
CONTINUOUS
10
173.674
20
-110.658
11
173.668
21
-110.657
0
LINE
8
BLACK
6
CONTINUOUS
10
173.668
20
-110.657
11
123.68
21
-110.657
0
LINE
8
BLACK
6
CONTINUOUS
10
123.68
20
-110.657
11
123.674
21
-110.658
0
LINE
8
BLACK
6
CONTINUOUS
10
123.674
20
-110.658
11
123.668
21
-110.657
0
LINE
8
BLACK
6
CONTINUOUS
10
123.668
20
-110.657
11
123.668
21
-110.657
0
LINE
8
BLACK
6
CONTINUOUS
10
123.668
20
-110.657
11
123.649
21
-110.655
0
LINE
8
BLACK
6
CONTINUOUS
10
123.649
20
-110.655
11
123.626
21
-110.648
0
LINE
8
BLACK
6
CONTINUOUS
10
123.626
20
-110.648
11
123.604
21
-110.636
0
LINE
8
BLACK
6
CONTINUOUS
10
123.604
20
-110.636
11
123.585
21
-110.621
0
LINE
8
BLACK
6
CONTINUOUS
10
123.585
20
-110.621
11
123.581
21
-110.616
0
LINE
8
BLACK
6
CONTINUOUS
10
123.581
20
-110.616
11
119.34
21
-106.375
0
LINE
8
BLACK
6
CONTINUOUS
10
119.34
20
-106.375
11
119.335
21
-106.371
0
LINE
8
BLACK
6
CONTINUOUS
10
119.335
20
-106.371
11
119.331
21
-106.366
0
LINE
8
BLACK
6
CONTINUOUS
10
119.331
20
-106.366
11
119.32
21
-106.352
0
LINE
8
BLACK
6
CONTINUOUS
10
119.32
20
-106.352
11
119.308
21
-106.33
0
LINE
8
BLACK
6
CONTINUOUS
10
119.308
20
-106.33
11
119.301
21
-106.307
0
LINE
8
BLACK
6
CONTINUOUS
10
119.301
20
-106.307
11
119.298
21
-106.282
0
LINE
8
BLACK
6
CONTINUOUS
10
119.298
20
-106.282
11
119.299
21
-106.276
0
LINE
8
BLACK
6
CONTINUOUS
10
119.299
20
-106.276
11
119.299
21
-64.0381
0
LINE
8
BLACK
6
CONTINUOUS
10
119.299
20
-64.0381
11
119.298
21
-64.032
0
LINE
8
BLACK
6
CONTINUOUS
10
119.298
20
-64.032
11
119.299
21
-64.0259
0
LINE
8
BLACK
6
CONTINUOUS
10
119.299
20
-64.0259
11
119.299
21
-64.0259
0
LINE
8
BLACK
6
CONTINUOUS
10
119.299
20
-64.0259
11
119.301
21
-64.0075
0
LINE
8
BLACK
6
CONTINUOUS
10
119.301
20
-64.0075
11
119.308
21
-63.9839
0
LINE
8
BLACK
6
CONTINUOUS
10
119.308
20
-63.9839
11
119.32
21
-63.9622
0
LINE
8
BLACK
6
CONTINUOUS
10
119.32
20
-63.9622
11
119.335
21
-63.9432
0
LINE
8
BLACK
6
CONTINUOUS
10
119.335
20
-63.9432
11
119.34
21
-63.9393
0
LINE
8
BLACK
6
CONTINUOUS
10
119.34
20
-63.9393
11
123.831
21
-59.4479
0
LINE
8
BLACK
6
CONTINUOUS
10
123.831
20
-59.4479
11
123.835
21
-59.4432
0
LINE
8
BLACK
6
CONTINUOUS
10
123.835
20
-59.4432
11
123.84
21
-59.4393
0
LINE
8
BLACK
6
CONTINUOUS
10
123.84
20
-59.4393
11
123.854
21
-59.4276
0
LINE
8
BLACK
6
CONTINUOUS
10
123.854
20
-59.4276
11
123.876
21
-59.416
0
LINE
8
BLACK
6
CONTINUOUS
10
123.876
20
-59.416
11
123.899
21
-59.4088
0
LINE
8
BLACK
6
CONTINUOUS
10
123.899
20
-59.4088
11
123.918
21
-59.407
0
LINE
8
BLACK
6
CONTINUOUS
10
123.918
20
-59.407
11
123.918
21
-59.407
0
LINE
8
BLACK
6
CONTINUOUS
10
123.918
20
-59.407
11
123.924
21
-59.4064
0
LINE
8
BLACK
6
CONTINUOUS
10
123.924
20
-59.4064
11
123.93
21
-59.407
0
LINE
8
BLACK
6
CONTINUOUS
10
123.93
20
-59.407
11
173.918
21
-59.407
0
LINE
8
BLACK
6
CONTINUOUS
10
173.918
20
-59.407
11
173.924
21
-59.4064
0
LINE
8
BLACK
6
CONTINUOUS
10
173.924
20
-59.4064
11
173.93
21
-59.407
0
LINE
8
BLACK
6
CONTINUOUS
10
173.93
20
-59.407
11
173.93
21
-59.407
0
LINE
8
BLACK
6
CONTINUOUS
10
173.93
20
-59.407
11
173.949
21
-59.4088
0
LINE
8
BLACK
6
CONTINUOUS
10
173.949
20
-59.4088
11
173.972
21
-59.416
0
LINE
8
BLACK
6
CONTINUOUS
10
173.972
20
-59.416
11
173.994
21
-59.4276
0
LINE
8
BLACK
6
CONTINUOUS
10
173.994
20
-59.4276
11
174.013
21
-59.4432
0
LINE
8
BLACK
6
CONTINUOUS
10
174.013
20
-59.4432
11
174.017
21
-59.448
0
LINE
8
BLACK
6
CONTINUOUS
10
174.017
20
-59.448
11
178.508
21
-63.9393
0
LINE
8
BLACK
6
CONTINUOUS
10
178.508
20
-63.9393
11
178.513
21
-63.9432
0
LINE
8
BLACK
6
CONTINUOUS
10
178.513
20
-63.9432
11
178.517
21
-63.9479
0
LINE
8
BLACK
6
CONTINUOUS
10
178.517
20
-63.9479
11
178.528
21
-63.9622
0
LINE
8
BLACK
6
CONTINUOUS
10
178.528
20
-63.9622
11
178.54
21
-63.9839
0
LINE
8
BLACK
6
CONTINUOUS
10
178.54
20
-63.9839
11
178.547
21
-64.0075
0
LINE
8
BLACK
6
CONTINUOUS
10
178.547
20
-64.0075
11
178.549
21
-64.0259
0
LINE
8
BLACK
6
CONTINUOUS
10
178.549
20
-64.0259
11
178.549
21
-64.0259
0
LINE
8
BLACK
6
CONTINUOUS
10
178.549
20
-64.0259
11
178.55
21
-64.032
0
LINE
8
BLACK
6
CONTINUOUS
10
178.55
20
-64.032
11
178.549
21
-64.0381
0
LINE
8
BLACK
6
CONTINUOUS
10
178.549
20
-64.0381
11
178.549
21
-106.526
0
LINE
8
BLACK
6
CONTINUOUS
10
178.549
20
-106.526
11
178.55
21
-106.532
0
LINE
8
BLACK
6
CONTINUOUS
10
178.55
20
-106.532
11
178.549
21
-106.538
0
LINE
8
BLACK
6
CONTINUOUS
10
178.549
20
-106.538
11
178.549
21
-106.538
0
LINE
8
BLACK
6
CONTINUOUS
10
178.549
20
-106.538
11
178.547
21
-106.557
0
LINE
8
BLACK
6
CONTINUOUS
10
178.547
20
-106.557
11
178.54
21
-106.58
0
LINE
8
BLACK
6
CONTINUOUS
10
178.54
20
-106.58
11
178.54
21
-106.58
0
LINE
8
BLACK
6
CONTINUOUS
10
178.54
20
-106.58
11
178.528
21
-106.602
0
LINE
8
BLACK
6
CONTINUOUS
10
178.528
20
-106.602
11
178.517
21
-106.616
0
LINE
8
BLACK
6
CONTINUOUS
10
178.517
20
-106.616
11
178.513
21
-106.621
0
LINE
8
BLACK
6
CONTINUOUS
10
178.513
20
-106.621
11
178.508
21
-106.625
0
LINE
8
BLACK
6
CONTINUOUS
10
178.508
20
-106.625
11
174.017
21
-111.116
0
LINE
8
BLACK
6
CONTINUOUS
10
174.017
20
-111.116
11
174.013
21
-111.121
0
LINE
8
BLACK
6
CONTINUOUS
10
174.013
20
-111.121
11
173.994
21
-111.136
0
LINE
8
BLACK
6
CONTINUOUS
10
173.994
20
-111.136
11
173.972
21
-111.148
0
LINE
8
BLACK
6
CONTINUOUS
10
173.972
20
-111.148
11
173.949
21
-111.155
0
LINE
8
BLACK
6
CONTINUOUS
10
173.949
20
-111.155
11
173.93
21
-111.157
0
LINE
8
BLACK
6
CONTINUOUS
10
173.93
20
-111.157
11
173.93
21
-111.157
0
LINE
8
BLACK
6
CONTINUOUS
10
173.93
20
-111.157
11
173.924
21
-111.158
0
LINE
8
BLACK
6
CONTINUOUS
10
173.924
20
-111.158
11
173.918
21
-111.157
0
LINE
8
BLACK
6
CONTINUOUS
10
173.918
20
-111.157
11
123.43
21
-111.157
0
LINE
8
BLACK
6
CONTINUOUS
10
123.43
20
-111.157
11
123.424
21
-111.158
0
LINE
8
BLACK
6
CONTINUOUS
10
123.424
20
-111.158
11
123.418
21
-111.157
0
LINE
8
BLACK
6
CONTINUOUS
10
123.418
20
-111.157
11
123.418
21
-111.157
0
LINE
8
BLACK
6
CONTINUOUS
10
123.418
20
-111.157
11
123.399
21
-111.155
0
LINE
8
BLACK
6
CONTINUOUS
10
123.399
20
-111.155
11
123.376
21
-111.148
0
LINE
8
BLACK
6
CONTINUOUS
10
123.376
20
-111.148
11
123.354
21
-111.136
0
LINE
8
BLACK
6
CONTINUOUS
10
123.354
20
-111.136
11
123.34
21
-111.125
0
LINE
8
BLACK
6
CONTINUOUS
10
123.34
20
-111.125
11
123.335
21
-111.121
0
LINE
8
BLACK
6
CONTINUOUS
10
123.335
20
-111.121
11
123.331
21
-111.116
0
LINE
8
BLACK
6
CONTINUOUS
10
123.331
20
-111.116
11
118.84
21
-106.625
0
LINE
8
BLACK
6
CONTINUOUS
10
118.84
20
-106.625
11
118.835
21
-106.621
0
LINE
8
BLACK
6
CONTINUOUS
10
118.835
20
-106.621
11
118.831
21
-106.616
0
LINE
8
BLACK
6
CONTINUOUS
10
118.831
20
-106.616
11
118.82
21
-106.602
0
LINE
8
BLACK
6
CONTINUOUS
10
118.82
20
-106.602
11
118.808
21
-106.58
0
LINE
8
BLACK
6
CONTINUOUS
10
118.808
20
-106.58
11
118.801
21
-106.557
0
LINE
8
BLACK
6
CONTINUOUS
10
118.801
20
-106.557
11
118.798
21
-106.532
0
LINE
8
BLACK
6
CONTINUOUS
10
118.798
20
-106.532
11
118.799
21
-106.526
0
LINE
8
BLACK
6
CONTINUOUS
10
118.799
20
-106.526
11
118.799
21
-63.7881
0
LINE
8
BLACK
6
CONTINUOUS
10
118.799
20
-63.7881
11
118.798
21
-63.782
0
LINE
8
BLACK
6
CONTINUOUS
10
118.798
20
-63.782
11
118.799
21
-63.7759
0
LINE
8
BLACK
6
CONTINUOUS
10
118.799
20
-63.7759
11
118.799
21
-63.7759
0
LINE
8
BLACK
6
CONTINUOUS
10
118.799
20
-63.7759
11
118.801
21
-63.7575
0
LINE
8
BLACK
6
CONTINUOUS
10
118.801
20
-63.7575
11
118.808
21
-63.7339
0
LINE
8
BLACK
6
CONTINUOUS
10
118.808
20
-63.7339
11
118.82
21
-63.7122
0
LINE
8
BLACK
6
CONTINUOUS
10
118.82
20
-63.7122
11
118.835
21
-63.6932
0
LINE
8
BLACK
6
CONTINUOUS
10
118.835
20
-63.6932
11
118.84
21
-63.6893
0
LINE
8
BLACK
6
CONTINUOUS
10
118.84
20
-63.6893
11
123.581
21
-58.9479
0
LINE
8
BLACK
6
CONTINUOUS
10
123.581
20
-58.9479
11
123.585
21
-58.9432
0
LINE
8
BLACK
6
CONTINUOUS
10
123.585
20
-58.9432
11
123.59
21
-58.9393
0
LINE
8
BLACK
6
CONTINUOUS
10
123.59
20
-58.9393
11
123.59
21
-58.9393
0
LINE
8
BLACK
6
CONTINUOUS
10
123.59
20
-58.9393
11
123.604
21
-58.9276
0
LINE
8
BLACK
6
CONTINUOUS
10
123.604
20
-58.9276
11
123.604
21
-58.9276
0
LINE
8
BLACK
6
CONTINUOUS
10
123.604
20
-58.9276
11
123.604
21
-58.9276
0
LINE
8
BLACK
6
CONTINUOUS
10
123.604
20
-58.9276
11
123.626
21
-58.916
0
LINE
8
BLACK
6
CONTINUOUS
10
123.626
20
-58.916
11
123.649
21
-58.9088
0
LINE
8
BLACK
6
CONTINUOUS
10
123.649
20
-58.9088
11
123.668
21
-58.907
0
LINE
8
BLACK
6
CONTINUOUS
10
123.668
20
-58.907
11
123.668
21
-58.907
0
LINE
8
BLACK
6
CONTINUOUS
10
123.668
20
-58.907
11
123.674
21
-58.9064
0
LINE
8
BLACK
6
CONTINUOUS
10
123.674
20
-58.9064
11
123.68
21
-58.907
0
LINE
8
BLACK
6
CONTINUOUS
10
123.68
20
-58.907
11
174.168
21
-58.907
0
LINE
8
BLACK
6
CONTINUOUS
10
174.168
20
-58.907
11
174.174
21
-58.9064
0
LINE
8
BLACK
6
CONTINUOUS
10
174.174
20
-58.9064
11
174.18
21
-58.907
0
LINE
8
BLACK
6
CONTINUOUS
10
174.18
20
-58.907
11
174.18
21
-58.907
0
LINE
8
BLACK
6
CONTINUOUS
10
174.18
20
-58.907
11
174.199
21
-58.9088
0
LINE
8
BLACK
6
CONTINUOUS
10
174.199
20
-58.9088
11
174.222
21
-58.916
0
LINE
8
BLACK
6
CONTINUOUS
10
174.222
20
-58.916
11
174.244
21
-58.9276
0
LINE
8
BLACK
6
CONTINUOUS
10
174.244
20
-58.9276
11
174.263
21
-58.9432
0
LINE
8
BLACK
6
CONTINUOUS
10
174.263
20
-58.9432
11
174.267
21
-58.948
0
LINE
8
BLACK
6
CONTINUOUS
10
174.267
20
-58.948
11
179.008
21
-63.6893
0
LINE
8
BLACK
6
CONTINUOUS
10
179.008
20
-63.6893
11
179.013
21
-63.6932
0
LINE
8
BLACK
6
CONTINUOUS
10
179.013
20
-63.6932
11
179.017
21
-63.6979
0
LINE
8
BLACK
6
CONTINUOUS
10
179.017
20
-63.6979
11
179.017
21
-63.6979
0
LINE
8
BLACK
6
CONTINUOUS
10
179.017
20
-63.6979
11
179.026
21
-63.7097
0
LINE
8
BLACK
6
CONTINUOUS
10
179.026
20
-63.7097
11
179.028
21
-63.7122
0
LINE
8
BLACK
6
CONTINUOUS
10
179.028
20
-63.7122
11
179.04
21
-63.7339
0
LINE
8
BLACK
6
CONTINUOUS
10
179.04
20
-63.7339
11
179.047
21
-63.7575
0
LINE
8
BLACK
6
CONTINUOUS
10
179.047
20
-63.7575
11
179.049
21
-63.7759
0
LINE
8
BLACK
6
CONTINUOUS
10
179.049
20
-63.7759
11
179.049
21
-63.7759
0
LINE
8
BLACK
6
CONTINUOUS
10
179.049
20
-63.7759
11
179.05
21
-63.782
0
LINE
8
BLACK
6
CONTINUOUS
10
179.05
20
-63.782
11
179.049
21
-63.7881
0
LINE
8
BLACK
6
CONTINUOUS
10
179.049
20
-63.7881
11
179.049
21
-106.776
0
LINE
8
BLACK
6
CONTINUOUS
10
179.049
20
-106.776
11
179.05
21
-106.782
0
LINE
8
BLACK
6
CONTINUOUS
10
179.05
20
-106.782
11
179.049
21
-106.788
0
LINE
8
BLACK
6
CONTINUOUS
10
179.049
20
-106.788
11
179.049
21
-106.788
0
LINE
8
BLACK
6
CONTINUOUS
10
179.049
20
-106.788
11
179.047
21
-106.807
0
LINE
8
BLACK
6
CONTINUOUS
10
179.047
20
-106.807
11
179.04
21
-106.83
0
LINE
8
BLACK
6
CONTINUOUS
10
179.04
20
-106.83
11
179.028
21
-106.852
0
LINE
8
BLACK
6
CONTINUOUS
10
179.028
20
-106.852
11
179.028
21
-106.852
0
LINE
8
BLACK
6
CONTINUOUS
10
179.028
20
-106.852
11
179.017
21
-106.866
0
LINE
8
BLACK
6
CONTINUOUS
10
179.017
20
-106.866
11
179.017
21
-106.866
0
LINE
8
BLACK
6
CONTINUOUS
10
179.017
20
-106.866
11
179.013
21
-106.871
0
LINE
8
BLACK
6
CONTINUOUS
10
179.013
20
-106.871
11
179.008
21
-106.875
0
LINE
8
BLACK
6
CONTINUOUS
10
179.008
20
-106.875
11
174.267
21
-111.616
0
LINE
8
BLACK
6
CONTINUOUS
10
174.267
20
-111.616
11
174.263
21
-111.621
0
LINE
8
BLACK
6
CONTINUOUS
10
174.263
20
-111.621
11
174.244
21
-111.636
0
LINE
8
BLACK
6
CONTINUOUS
10
174.244
20
-111.636
11
174.222
21
-111.648
0
LINE
8
BLACK
6
CONTINUOUS
10
174.222
20
-111.648
11
174.199
21
-111.655
0
LINE
8
BLACK
6
CONTINUOUS
10
174.199
20
-111.655
11
174.18
21
-111.657
0
LINE
8
BLACK
6
CONTINUOUS
10
174.18
20
-111.657
11
174.18
21
-111.657
0
LINE
8
BLACK
6
CONTINUOUS
10
174.18
20
-111.657
11
174.174
21
-111.658
0
LINE
8
BLACK
6
CONTINUOUS
10
174.174
20
-111.658
11
174.168
21
-111.657
0
LINE
8
BLACK
6
CONTINUOUS
10
174.168
20
-111.657
11
123.18
21
-111.657
0
LINE
8
BLACK
6
CONTINUOUS
10
123.18
20
-111.657
11
123.174
21
-111.658
0
LINE
8
BLACK
6
CONTINUOUS
10
123.174
20
-111.658
11
123.168
21
-111.657
0
LINE
8
BLACK
6
CONTINUOUS
10
123.168
20
-111.657
11
123.168
21
-111.657
0
LINE
8
BLACK
6
CONTINUOUS
10
123.168
20
-111.657
11
123.149
21
-111.655
0
LINE
8
BLACK
6
CONTINUOUS
10
123.149
20
-111.655
11
123.126
21
-111.648
0
LINE
8
BLACK
6
CONTINUOUS
10
123.126
20
-111.648
11
123.104
21
-111.636
0
LINE
8
BLACK
6
CONTINUOUS
10
123.104
20
-111.636
11
123.102
21
-111.634
0
LINE
8
BLACK
6
CONTINUOUS
10
123.102
20
-111.634
11
123.09
21
-111.625
0
LINE
8
BLACK
6
CONTINUOUS
10
123.09
20
-111.625
11
123.09
21
-111.625
0
LINE
8
BLACK
6
CONTINUOUS
10
123.09
20
-111.625
11
123.085
21
-111.621
0
LINE
8
BLACK
6
CONTINUOUS
10
123.085
20
-111.621
11
123.081
21
-111.616
0
LINE
8
BLACK
6
CONTINUOUS
10
123.081
20
-111.616
11
118.34
21
-106.875
0
LINE
8
BLACK
6
CONTINUOUS
10
118.34
20
-106.875
11
118.335
21
-106.871
0
LINE
8
BLACK
6
CONTINUOUS
10
118.335
20
-106.871
11
118.331
21
-106.866
0
LINE
8
BLACK
6
CONTINUOUS
10
118.331
20
-106.866
11
118.32
21
-106.852
0
LINE
8
BLACK
6
CONTINUOUS
10
118.32
20
-106.852
11
118.308
21
-106.83
0
LINE
8
BLACK
6
CONTINUOUS
10
118.308
20
-106.83
11
118.301
21
-106.807
0
LINE
8
BLACK
6
CONTINUOUS
10
118.301
20
-106.807
11
118.298
21
-106.782
0
LINE
8
BLACK
6
CONTINUOUS
10
118.298
20
-106.782
11
118.299
21
-106.776
0
LINE
8
BLACK
6
CONTINUOUS
10
118.299
20
-106.776
11
118.299
21
-63.5381
0
LINE
8
BLACK
6
CONTINUOUS
10
118.299
20
-63.5381
11
118.298
21
-63.532
0
LINE
8
BLACK
6
CONTINUOUS
10
118.298
20
-63.532
11
118.299
21
-63.5259
0
LINE
8
BLACK
6
CONTINUOUS
10
118.299
20
-63.5259
11
118.299
21
-63.5259
0
LINE
8
BLACK
6
CONTINUOUS
10
118.299
20
-63.5259
11
118.301
21
-63.5075
0
LINE
8
BLACK
6
CONTINUOUS
10
118.301
20
-63.5075
11
118.308
21
-63.4839
0
LINE
8
BLACK
6
CONTINUOUS
10
118.308
20
-63.4839
11
118.32
21
-63.4622
0
LINE
8
BLACK
6
CONTINUOUS
10
118.32
20
-63.4622
11
118.335
21
-63.4432
0
LINE
8
BLACK
6
CONTINUOUS
10
118.335
20
-63.4432
11
118.34
21
-63.4393
0
LINE
8
BLACK
6
CONTINUOUS
10
118.34
20
-63.4393
11
123.331
21
-58.4479
0
LINE
8
BLACK
6
CONTINUOUS
10
123.331
20
-58.4479
11
123.335
21
-58.4432
0
LINE
8
BLACK
6
CONTINUOUS
10
123.335
20
-58.4432
11
123.34
21
-58.4393
0
LINE
8
BLACK
6
CONTINUOUS
10
123.34
20
-58.4393
11
123.354
21
-58.4276
0
LINE
8
BLACK
6
CONTINUOUS
10
123.354
20
-58.4276
11
123.376
21
-58.416
0
LINE
8
BLACK
6
CONTINUOUS
10
123.376
20
-58.416
11
123.399
21
-58.4088
0
LINE
8
BLACK
6
CONTINUOUS
10
123.399
20
-58.4088
11
123.418
21
-58.407
0
LINE
8
BLACK
6
CONTINUOUS
10
123.418
20
-58.407
11
123.418
21
-58.407
0
LINE
8
BLACK
6
CONTINUOUS
10
123.418
20
-58.407
11
123.424
21
-58.4064
0
LINE
8
BLACK
6
CONTINUOUS
10
123.424
20
-58.4064
11
123.43
21
-58.407
0
LINE
8
BLACK
6
CONTINUOUS
10
123.43
20
-58.407
11
174.418
21
-58.407
0
LINE
8
BLACK
6
CONTINUOUS
10
174.418
20
-58.407
11
174.424
21
-58.4064
0
LINE
8
BLACK
6
CONTINUOUS
10
174.424
20
-58.4064
11
174.43
21
-58.407
0
LINE
8
BLACK
6
CONTINUOUS
10
174.43
20
-58.407
11
174.43
21
-58.407
0
LINE
8
BLACK
6
CONTINUOUS
10
174.43
20
-58.407
11
174.449
21
-58.4088
0
LINE
8
BLACK
6
CONTINUOUS
10
174.449
20
-58.4088
11
174.472
21
-58.416
0
LINE
8
BLACK
6
CONTINUOUS
10
174.472
20
-58.416
11
174.494
21
-58.4276
0
LINE
8
BLACK
6
CONTINUOUS
10
174.494
20
-58.4276
11
174.513
21
-58.4432
0
LINE
8
BLACK
6
CONTINUOUS
10
174.513
20
-58.4432
11
174.517
21
-58.448
0
LINE
8
BLACK
6
CONTINUOUS
10
174.517
20
-58.448
11
179.508
21
-63.4393
0
LINE
8
BLACK
6
CONTINUOUS
10
179.508
20
-63.4393
11
179.513
21
-63.4432
0
LINE
8
BLACK
6
CONTINUOUS
10
179.513
20
-63.4432
11
179.517
21
-63.4479
0
LINE
8
BLACK
6
CONTINUOUS
10
179.517
20
-63.4479
11
179.528
21
-63.4622
0
LINE
8
BLACK
6
CONTINUOUS
10
179.528
20
-63.4622
11
179.54
21
-63.4839
0
LINE
8
BLACK
6
CONTINUOUS
10
179.54
20
-63.4839
11
179.547
21
-63.5075
0
LINE
8
BLACK
6
CONTINUOUS
10
179.547
20
-63.5075
11
179.549
21
-63.5259
0
LINE
8
BLACK
6
CONTINUOUS
10
179.549
20
-63.5259
11
179.549
21
-63.5259
0
LINE
8
BLACK
6
CONTINUOUS
10
179.549
20
-63.5259
11
179.55
21
-63.532
0
LINE
8
BLACK
6
CONTINUOUS
10
179.55
20
-63.532
11
179.549
21
-63.5381
0
LINE
8
BLACK
6
CONTINUOUS
10
179.549
20
-63.5381
11
179.549
21
-107.026
0
LINE
8
BLACK
6
CONTINUOUS
10
179.549
20
-107.026
11
179.55
21
-107.032
0
LINE
8
BLACK
6
CONTINUOUS
10
179.55
20
-107.032
11
179.549
21
-107.038
0
LINE
8
BLACK
6
CONTINUOUS
10
179.549
20
-107.038
11
179.549
21
-107.038
0
LINE
8
BLACK
6
CONTINUOUS
10
179.549
20
-107.038
11
179.547
21
-107.057
0
LINE
8
BLACK
6
CONTINUOUS
10
179.547
20
-107.057
11
179.54
21
-107.08
0
LINE
8
BLACK
6
CONTINUOUS
10
179.54
20
-107.08
11
179.54
21
-107.08
0
LINE
8
BLACK
6
CONTINUOUS
10
179.54
20
-107.08
11
179.528
21
-107.102
0
LINE
8
BLACK
6
CONTINUOUS
10
179.528
20
-107.102
11
179.517
21
-107.116
0
LINE
8
BLACK
6
CONTINUOUS
10
179.517
20
-107.116
11
179.513
21
-107.121
0
LINE
8
BLACK
6
CONTINUOUS
10
179.513
20
-107.121
11
179.508
21
-107.125
0
LINE
8
BLACK
6
CONTINUOUS
10
179.508
20
-107.125
11
174.517
21
-112.116
0
LINE
8
BLACK
6
CONTINUOUS
10
174.517
20
-112.116
11
174.513
21
-112.121
0
LINE
8
BLACK
6
CONTINUOUS
10
174.513
20
-112.121
11
174.494
21
-112.136
0
LINE
8
BLACK
6
CONTINUOUS
10
174.494
20
-112.136
11
174.472
21
-112.148
0
LINE
8
BLACK
6
CONTINUOUS
10
174.472
20
-112.148
11
174.449
21
-112.155
0
LINE
8
BLACK
6
CONTINUOUS
10
174.449
20
-112.155
11
174.43
21
-112.157
0
LINE
8
BLACK
6
CONTINUOUS
10
174.43
20
-112.157
11
174.43
21
-112.157
0
LINE
8
BLACK
6
CONTINUOUS
10
174.43
20
-112.157
11
174.424
21
-112.158
0
LINE
8
BLACK
6
CONTINUOUS
10
174.424
20
-112.158
11
174.418
21
-112.157
0
LINE
8
BLACK
6
CONTINUOUS
10
174.418
20
-112.157
11
122.93
21
-112.157
0
LINE
8
BLACK
6
CONTINUOUS
10
122.93
20
-112.157
11
122.924
21
-112.158
0
LINE
8
BLACK
6
CONTINUOUS
10
122.924
20
-112.158
11
122.918
21
-112.157
0
LINE
8
BLACK
6
CONTINUOUS
10
122.918
20
-112.157
11
122.918
21
-112.157
0
LINE
8
BLACK
6
CONTINUOUS
10
122.918
20
-112.157
11
122.899
21
-112.155
0
LINE
8
BLACK
6
CONTINUOUS
10
122.899
20
-112.155
11
122.876
21
-112.148
0
LINE
8
BLACK
6
CONTINUOUS
10
122.876
20
-112.148
11
122.854
21
-112.136
0
LINE
8
BLACK
6
CONTINUOUS
10
122.854
20
-112.136
11
122.84
21
-112.125
0
LINE
8
BLACK
6
CONTINUOUS
10
122.84
20
-112.125
11
122.835
21
-112.121
0
LINE
8
BLACK
6
CONTINUOUS
10
122.835
20
-112.121
11
122.831
21
-112.116
0
LINE
8
BLACK
6
CONTINUOUS
10
122.831
20
-112.116
11
117.84
21
-107.125
0
LINE
8
BLACK
6
CONTINUOUS
10
117.84
20
-107.125
11
117.835
21
-107.121
0
LINE
8
BLACK
6
CONTINUOUS
10
117.835
20
-107.121
11
117.831
21
-107.116
0
LINE
8
BLACK
6
CONTINUOUS
10
117.831
20
-107.116
11
117.82
21
-107.102
0
LINE
8
BLACK
6
CONTINUOUS
10
117.82
20
-107.102
11
117.808
21
-107.08
0
LINE
8
BLACK
6
CONTINUOUS
10
117.808
20
-107.08
11
117.801
21
-107.057
0
LINE
8
BLACK
6
CONTINUOUS
10
117.801
20
-107.057
11
117.798
21
-107.032
0
LINE
8
BLACK
6
CONTINUOUS
10
117.798
20
-107.032
11
117.799
21
-107.026
0
LINE
8
BLACK
6
CONTINUOUS
10
117.799
20
-107.026
11
117.799
21
-63.2881
0
LINE
8
BLACK
6
CONTINUOUS
10
117.799
20
-63.2881
11
117.798
21
-63.282
0
LINE
8
BLACK
6
CONTINUOUS
10
117.798
20
-63.282
11
117.799
21
-63.2759
0
LINE
8
BLACK
6
CONTINUOUS
10
117.799
20
-63.2759
11
117.799
21
-63.2759
0
LINE
8
BLACK
6
CONTINUOUS
10
117.799
20
-63.2759
11
117.801
21
-63.2575
0
LINE
8
BLACK
6
CONTINUOUS
10
117.801
20
-63.2575
11
117.808
21
-63.2339
0
LINE
8
BLACK
6
CONTINUOUS
10
117.808
20
-63.2339
11
117.82
21
-63.2122
0
LINE
8
BLACK
6
CONTINUOUS
10
117.82
20
-63.2122
11
117.835
21
-63.1932
0
LINE
8
BLACK
6
CONTINUOUS
10
117.835
20
-63.1932
11
117.84
21
-63.1893
0
LINE
8
BLACK
6
CONTINUOUS
10
117.84
20
-63.1893
11
123.081
21
-57.9479
0
LINE
8
BLACK
6
CONTINUOUS
10
123.081
20
-57.9479
11
123.085
21
-57.9432
0
LINE
8
BLACK
6
CONTINUOUS
10
123.085
20
-57.9432
11
123.09
21
-57.9393
0
LINE
8
BLACK
6
CONTINUOUS
10
123.09
20
-57.9393
11
123.09
21
-57.9393
0
LINE
8
BLACK
6
CONTINUOUS
10
123.09
20
-57.9393
11
123.104
21
-57.9276
0
LINE
8
BLACK
6
CONTINUOUS
10
123.104
20
-57.9276
11
123.104
21
-57.9276
0
LINE
8
BLACK
6
CONTINUOUS
10
123.104
20
-57.9276
11
123.104
21
-57.9276
0
LINE
8
BLACK
6
CONTINUOUS
10
123.104
20
-57.9276
11
123.126
21
-57.916
0
LINE
8
BLACK
6
CONTINUOUS
10
123.126
20
-57.916
11
123.149
21
-57.9088
0
LINE
8
BLACK
6
CONTINUOUS
10
123.149
20
-57.9088
11
123.168
21
-57.907
0
LINE
8
BLACK
6
CONTINUOUS
10
123.168
20
-57.907
11
123.168
21
-57.907
0
LINE
8
BLACK
6
CONTINUOUS
10
123.168
20
-57.907
11
123.174
21
-57.9064
0
LINE
8
BLACK
6
CONTINUOUS
10
123.174
20
-57.9064
11
123.18
21
-57.907
0
LINE
8
BLACK
6
CONTINUOUS
10
123.18
20
-57.907
11
174.668
21
-57.907
0
LINE
8
BLACK
6
CONTINUOUS
10
174.668
20
-57.907
11
174.674
21
-57.9064
0
LINE
8
BLACK
6
CONTINUOUS
10
174.674
20
-57.9064
11
174.68
21
-57.907
0
LINE
8
BLACK
6
CONTINUOUS
10
174.68
20
-57.907
11
174.68
21
-57.907
0
LINE
8
BLACK
6
CONTINUOUS
10
174.68
20
-57.907
11
174.699
21
-57.9088
0
LINE
8
BLACK
6
CONTINUOUS
10
174.699
20
-57.9088
11
174.722
21
-57.916
0
LINE
8
BLACK
6
CONTINUOUS
10
174.722
20
-57.916
11
174.744
21
-57.9276
0
LINE
8
BLACK
6
CONTINUOUS
10
174.744
20
-57.9276
11
174.763
21
-57.9432
0
LINE
8
BLACK
6
CONTINUOUS
10
174.763
20
-57.9432
11
174.767
21
-57.948
0
LINE
8
BLACK
6
CONTINUOUS
10
174.767
20
-57.948
11
180.008
21
-63.1893
0
LINE
8
BLACK
6
CONTINUOUS
10
180.008
20
-63.1893
11
180.013
21
-63.1932
0
LINE
8
BLACK
6
CONTINUOUS
10
180.013
20
-63.1932
11
180.017
21
-63.1979
0
LINE
8
BLACK
6
CONTINUOUS
10
180.017
20
-63.1979
11
180.017
21
-63.1979
0
LINE
8
BLACK
6
CONTINUOUS
10
180.017
20
-63.1979
11
180.026
21
-63.2097
0
LINE
8
BLACK
6
CONTINUOUS
10
180.026
20
-63.2097
11
180.028
21
-63.2122
0
LINE
8
BLACK
6
CONTINUOUS
10
180.028
20
-63.2122
11
180.04
21
-63.2339
0
LINE
8
BLACK
6
CONTINUOUS
10
180.04
20
-63.2339
11
180.047
21
-63.2575
0
LINE
8
BLACK
6
CONTINUOUS
10
180.047
20
-63.2575
11
180.049
21
-63.2759
0
LINE
8
BLACK
6
CONTINUOUS
10
180.049
20
-63.2759
11
180.049
21
-63.2759
0
LINE
8
BLACK
6
CONTINUOUS
10
180.049
20
-63.2759
11
180.05
21
-63.282
0
LINE
8
BLACK
6
CONTINUOUS
10
180.05
20
-63.282
11
180.049
21
-63.2881
0
LINE
8
BLACK
6
CONTINUOUS
10
180.049
20
-63.2881
11
180.049
21
-107.276
0
LINE
8
BLACK
6
CONTINUOUS
10
180.049
20
-107.276
11
180.05
21
-107.282
0
LINE
8
BLACK
6
CONTINUOUS
10
180.05
20
-107.282
11
180.049
21
-107.288
0
LINE
8
BLACK
6
CONTINUOUS
10
180.049
20
-107.288
11
180.049
21
-107.288
0
LINE
8
BLACK
6
CONTINUOUS
10
180.049
20
-107.288
11
180.047
21
-107.307
0
LINE
8
BLACK
6
CONTINUOUS
10
180.047
20
-107.307
11
180.04
21
-107.33
0
LINE
8
BLACK
6
CONTINUOUS
10
180.04
20
-107.33
11
180.04
21
-107.33
0
LINE
8
BLACK
6
CONTINUOUS
10
180.04
20
-107.33
11
180.028
21
-107.352
0
LINE
8
BLACK
6
CONTINUOUS
10
180.028
20
-107.352
11
180.017
21
-107.366
0
LINE
8
BLACK
6
CONTINUOUS
10
180.017
20
-107.366
11
180.017
21
-107.366
0
LINE
8
BLACK
6
CONTINUOUS
10
180.017
20
-107.366
11
180.013
21
-107.371
0
LINE
8
BLACK
6
CONTINUOUS
10
180.013
20
-107.371
11
180.008
21
-107.375
0
LINE
8
BLACK
6
CONTINUOUS
10
180.008
20
-107.375
11
174.767
21
-112.616
0
LINE
8
BLACK
6
CONTINUOUS
10
174.767
20
-112.616
11
174.763
21
-112.621
0
LINE
8
BLACK
6
CONTINUOUS
10
174.763
20
-112.621
11
174.744
21
-112.636
0
LINE
8
BLACK
6
CONTINUOUS
10
174.744
20
-112.636
11
174.722
21
-112.648
0
LINE
8
BLACK
6
CONTINUOUS
10
174.722
20
-112.648
11
174.699
21
-112.655
0
LINE
8
BLACK
6
CONTINUOUS
10
174.699
20
-112.655
11
174.68
21
-112.657
0
LINE
8
BLACK
6
CONTINUOUS
10
174.68
20
-112.657
11
174.68
21
-112.657
0
LINE
8
BLACK
6
CONTINUOUS
10
174.68
20
-112.657
11
174.674
21
-112.658
0
LINE
8
BLACK
6
CONTINUOUS
10
174.674
20
-112.658
11
174.668
21
-112.657
0
LINE
8
BLACK
6
CONTINUOUS
10
174.668
20
-112.657
11
122.68
21
-112.657
0
LINE
8
BLACK
6
CONTINUOUS
10
122.68
20
-112.657
11
122.674
21
-112.658
0
LINE
8
BLACK
6
CONTINUOUS
10
122.674
20
-112.658
11
122.668
21
-112.657
0
LINE
8
BLACK
6
CONTINUOUS
10
122.668
20
-112.657
11
122.668
21
-112.657
0
LINE
8
BLACK
6
CONTINUOUS
10
122.668
20
-112.657
11
122.649
21
-112.655
0
LINE
8
BLACK
6
CONTINUOUS
10
122.649
20
-112.655
11
122.626
21
-112.648
0
LINE
8
BLACK
6
CONTINUOUS
10
122.626
20
-112.648
11
122.604
21
-112.636
0
LINE
8
BLACK
6
CONTINUOUS
10
122.604
20
-112.636
11
122.602
21
-112.634
0
LINE
8
BLACK
6
CONTINUOUS
10
122.602
20
-112.634
11
122.59
21
-112.625
0
LINE
8
BLACK
6
CONTINUOUS
10
122.59
20
-112.625
11
122.59
21
-112.625
0
LINE
8
BLACK
6
CONTINUOUS
10
122.59
20
-112.625
11
122.585
21
-112.621
0
LINE
8
BLACK
6
CONTINUOUS
10
122.585
20
-112.621
11
122.581
21
-112.616
0
LINE
8
BLACK
6
CONTINUOUS
10
122.581
20
-112.616
11
117.34
21
-107.375
0
LINE
8
BLACK
6
CONTINUOUS
10
117.34
20
-107.375
11
117.335
21
-107.371
0
LINE
8
BLACK
6
CONTINUOUS
10
117.335
20
-107.371
11
117.331
21
-107.366
0
LINE
8
BLACK
6
CONTINUOUS
10
117.331
20
-107.366
11
117.32
21
-107.352
0
LINE
8
BLACK
6
CONTINUOUS
10
117.32
20
-107.352
11
117.308
21
-107.33
0
LINE
8
BLACK
6
CONTINUOUS
10
117.308
20
-107.33
11
117.301
21
-107.307
0
LINE
8
BLACK
6
CONTINUOUS
10
117.301
20
-107.307
11
117.298
21
-107.282
0
LINE
8
BLACK
6
CONTINUOUS
10
117.298
20
-107.282
11
117.299
21
-107.276
0
LINE
8
BLACK
6
CONTINUOUS
10
117.299
20
-107.276
11
117.299
21
-63.0381
0
LINE
8
BLACK
6
CONTINUOUS
10
117.299
20
-63.0381
11
117.298
21
-63.032
0
LINE
8
BLACK
6
CONTINUOUS
10
117.298
20
-63.032
11
117.299
21
-63.0259
0
LINE
8
BLACK
6
CONTINUOUS
10
117.299
20
-63.0259
11
117.299
21
-63.0259
0
LINE
8
BLACK
6
CONTINUOUS
10
117.299
20
-63.0259
11
117.301
21
-63.0075
0
LINE
8
BLACK
6
CONTINUOUS
10
117.301
20
-63.0075
11
117.308
21
-62.9839
0
LINE
8
BLACK
6
CONTINUOUS
10
117.308
20
-62.9839
11
117.32
21
-62.9622
0
LINE
8
BLACK
6
CONTINUOUS
10
117.32
20
-62.9622
11
117.335
21
-62.9432
0
LINE
8
BLACK
6
CONTINUOUS
10
117.335
20
-62.9432
11
117.34
21
-62.9393
0
LINE
8
BLACK
6
CONTINUOUS
10
117.34
20
-62.9393
11
122.831
21
-57.4479
0
LINE
8
BLACK
6
CONTINUOUS
10
122.831
20
-57.4479
11
122.835
21
-57.4432
0
LINE
8
BLACK
6
CONTINUOUS
10
122.835
20
-57.4432
11
122.84
21
-57.4393
0
LINE
8
BLACK
6
CONTINUOUS
10
122.84
20
-57.4393
11
122.84
21
-57.4393
0
LINE
8
BLACK
6
CONTINUOUS
10
122.84
20
-57.4393
11
122.854
21
-57.4276
0
LINE
8
BLACK
6
CONTINUOUS
10
122.854
20
-57.4276
11
122.876
21
-57.416
0
LINE
8
BLACK
6
CONTINUOUS
10
122.876
20
-57.416
11
122.899
21
-57.4088
0
LINE
8
BLACK
6
CONTINUOUS
10
122.899
20
-57.4088
11
122.918
21
-57.407
0
LINE
8
BLACK
6
CONTINUOUS
10
122.918
20
-57.407
11
122.918
21
-57.407
0
LINE
8
BLACK
6
CONTINUOUS
10
122.918
20
-57.407
11
122.924
21
-57.4064
0
LINE
8
BLACK
6
CONTINUOUS
10
122.924
20
-57.4064
11
122.93
21
-57.407
0
LINE
8
BLACK
6
CONTINUOUS
10
122.93
20
-57.407
11
174.918
21
-57.407
0
LINE
8
BLACK
6
CONTINUOUS
10
174.918
20
-57.407
11
174.924
21
-57.4064
0
LINE
8
BLACK
6
CONTINUOUS
10
174.924
20
-57.4064
11
174.93
21
-57.407
0
LINE
8
BLACK
6
CONTINUOUS
10
174.93
20
-57.407
11
174.93
21
-57.407
0
LINE
8
BLACK
6
CONTINUOUS
10
174.93
20
-57.407
11
174.949
21
-57.4088
0
LINE
8
BLACK
6
CONTINUOUS
10
174.949
20
-57.4088
11
174.972
21
-57.416
0
LINE
8
BLACK
6
CONTINUOUS
10
174.972
20
-57.416
11
174.994
21
-57.4276
0
LINE
8
BLACK
6
CONTINUOUS
10
174.994
20
-57.4276
11
175.013
21
-57.4432
0
LINE
8
BLACK
6
CONTINUOUS
10
175.013
20
-57.4432
11
175.017
21
-57.448
0
LINE
8
BLACK
6
CONTINUOUS
10
175.017
20
-57.448
11
180.508
21
-62.9393
0
LINE
8
BLACK
6
CONTINUOUS
10
180.508
20
-62.9393
11
180.513
21
-62.9432
0
LINE
8
BLACK
6
CONTINUOUS
10
180.513
20
-62.9432
11
180.517
21
-62.9479
0
LINE
8
BLACK
6
CONTINUOUS
10
180.517
20
-62.9479
11
180.517
21
-62.9479
0
LINE
8
BLACK
6
CONTINUOUS
10
180.517
20
-62.9479
11
180.528
21
-62.9622
0
LINE
8
BLACK
6
CONTINUOUS
10
180.528
20
-62.9622
11
180.54
21
-62.9839
0
LINE
8
BLACK
6
CONTINUOUS
10
180.54
20
-62.9839
11
180.547
21
-63.0075
0
LINE
8
BLACK
6
CONTINUOUS
10
180.547
20
-63.0075
11
180.549
21
-63.0259
0
LINE
8
BLACK
6
CONTINUOUS
10
180.549
20
-63.0259
11
180.549
21
-63.0259
0
LINE
8
BLACK
6
CONTINUOUS
10
180.549
20
-63.0259
11
180.55
21
-63.032
0
LINE
8
BLACK
6
CONTINUOUS
10
180.55
20
-63.032
11
180.549
21
-63.0381
0
LINE
8
BLACK
6
CONTINUOUS
10
180.549
20
-63.0381
11
180.549
21
-107.526
0
LINE
8
BLACK
6
CONTINUOUS
10
180.549
20
-107.526
11
180.55
21
-107.532
0
LINE
8
BLACK
6
CONTINUOUS
10
180.55
20
-107.532
11
180.549
21
-107.538
0
LINE
8
BLACK
6
CONTINUOUS
10
180.549
20
-107.538
11
180.549
21
-107.538
0
LINE
8
BLACK
6
CONTINUOUS
10
180.549
20
-107.538
11
180.547
21
-107.557
0
LINE
8
BLACK
6
CONTINUOUS
10
180.547
20
-107.557
11
180.547
21
-107.557
0
LINE
8
BLACK
6
CONTINUOUS
10
180.547
20
-107.557
11
180.54
21
-107.58
0
LINE
8
BLACK
6
CONTINUOUS
10
180.54
20
-107.58
11
180.528
21
-107.602
0
LINE
8
BLACK
6
CONTINUOUS
10
180.528
20
-107.602
11
180.517
21
-107.616
0
LINE
8
BLACK
6
CONTINUOUS
10
180.517
20
-107.616
11
180.517
21
-107.616
0
LINE
8
BLACK
6
CONTINUOUS
10
180.517
20
-107.616
11
180.513
21
-107.621
0
LINE
8
BLACK
6
CONTINUOUS
10
180.513
20
-107.621
11
180.508
21
-107.625
0
LINE
8
BLACK
6
CONTINUOUS
10
180.508
20
-107.625
11
175.017
21
-113.116
0
LINE
8
BLACK
6
CONTINUOUS
10
175.017
20
-113.116
11
175.013
21
-113.121
0
LINE
8
BLACK
6
CONTINUOUS
10
175.013
20
-113.121
11
174.994
21
-113.136
0
LINE
8
BLACK
6
CONTINUOUS
10
174.994
20
-113.136
11
174.972
21
-113.148
0
LINE
8
BLACK
6
CONTINUOUS
10
174.972
20
-113.148
11
174.949
21
-113.155
0
LINE
8
BLACK
6
CONTINUOUS
10
174.949
20
-113.155
11
174.93
21
-113.157
0
LINE
8
BLACK
6
CONTINUOUS
10
174.93
20
-113.157
11
174.93
21
-113.157
0
LINE
8
BLACK
6
CONTINUOUS
10
174.93
20
-113.157
11
174.924
21
-113.158
0
LINE
8
BLACK
6
CONTINUOUS
10
174.924
20
-113.158
11
174.918
21
-113.157
0
LINE
8
BLACK
6
CONTINUOUS
10
174.918
20
-113.157
11
122.43
21
-113.157
0
LINE
8
BLACK
6
CONTINUOUS
10
122.43
20
-113.157
11
122.424
21
-113.158
0
LINE
8
BLACK
6
CONTINUOUS
10
122.424
20
-113.158
11
122.418
21
-113.157
0
LINE
8
BLACK
6
CONTINUOUS
10
122.418
20
-113.157
11
122.418
21
-113.157
0
LINE
8
BLACK
6
CONTINUOUS
10
122.418
20
-113.157
11
122.399
21
-113.155
0
LINE
8
BLACK
6
CONTINUOUS
10
122.399
20
-113.155
11
122.376
21
-113.148
0
LINE
8
BLACK
6
CONTINUOUS
10
122.376
20
-113.148
11
122.354
21
-113.136
0
LINE
8
BLACK
6
CONTINUOUS
10
122.354
20
-113.136
11
122.34
21
-113.125
0
LINE
8
BLACK
6
CONTINUOUS
10
122.34
20
-113.125
11
122.34
21
-113.125
0
LINE
8
BLACK
6
CONTINUOUS
10
122.34
20
-113.125
11
122.335
21
-113.121
0
LINE
8
BLACK
6
CONTINUOUS
10
122.335
20
-113.121
11
122.331
21
-113.116
0
LINE
8
BLACK
6
CONTINUOUS
10
122.331
20
-113.116
11
116.84
21
-107.625
0
LINE
8
BLACK
6
CONTINUOUS
10
116.84
20
-107.625
11
116.835
21
-107.621
0
LINE
8
BLACK
6
CONTINUOUS
10
116.835
20
-107.621
11
116.831
21
-107.616
0
LINE
8
BLACK
6
CONTINUOUS
10
116.831
20
-107.616
11
116.82
21
-107.602
0
LINE
8
BLACK
6
CONTINUOUS
10
116.82
20
-107.602
11
116.808
21
-107.58
0
LINE
8
BLACK
6
CONTINUOUS
10
116.808
20
-107.58
11
116.801
21
-107.557
0
LINE
8
BLACK
6
CONTINUOUS
10
116.801
20
-107.557
11
116.798
21
-107.532
0
LINE
8
BLACK
6
CONTINUOUS
10
116.798
20
-107.532
11
116.799
21
-107.526
0
LINE
8
BLACK
6
CONTINUOUS
10
116.799
20
-107.526
11
116.799
21
-62.7881
0
LINE
8
BLACK
6
CONTINUOUS
10
116.799
20
-62.7881
11
116.798
21
-62.782
0
LINE
8
BLACK
6
CONTINUOUS
10
116.798
20
-62.782
11
116.799
21
-62.7759
0
LINE
8
BLACK
6
CONTINUOUS
10
116.799
20
-62.7759
11
116.799
21
-62.7759
0
LINE
8
BLACK
6
CONTINUOUS
10
116.799
20
-62.7759
11
116.801
21
-62.7575
0
LINE
8
BLACK
6
CONTINUOUS
10
116.801
20
-62.7575
11
116.808
21
-62.7339
0
LINE
8
BLACK
6
CONTINUOUS
10
116.808
20
-62.7339
11
116.82
21
-62.7122
0
LINE
8
BLACK
6
CONTINUOUS
10
116.82
20
-62.7122
11
116.835
21
-62.6932
0
LINE
8
BLACK
6
CONTINUOUS
10
116.835
20
-62.6932
11
116.84
21
-62.6893
0
LINE
8
BLACK
6
CONTINUOUS
10
116.84
20
-62.6893
11
122.581
21
-56.9479
0
LINE
8
BLACK
6
CONTINUOUS
10
122.581
20
-56.9479
11
122.585
21
-56.9432
0
LINE
8
BLACK
6
CONTINUOUS
10
122.585
20
-56.9432
11
122.59
21
-56.9393
0
LINE
8
BLACK
6
CONTINUOUS
10
122.59
20
-56.9393
11
122.604
21
-56.9276
0
LINE
8
BLACK
6
CONTINUOUS
10
122.604
20
-56.9276
11
122.626
21
-56.916
0
LINE
8
BLACK
6
CONTINUOUS
10
122.626
20
-56.916
11
122.649
21
-56.9088
0
LINE
8
BLACK
6
CONTINUOUS
10
122.649
20
-56.9088
11
122.668
21
-56.907
0
LINE
8
BLACK
6
CONTINUOUS
10
122.668
20
-56.907
11
122.668
21
-56.907
0
LINE
8
BLACK
6
CONTINUOUS
10
122.668
20
-56.907
11
122.674
21
-56.9064
0
LINE
8
BLACK
6
CONTINUOUS
10
122.674
20
-56.9064
11
122.68
21
-56.907
0
LINE
8
BLACK
6
CONTINUOUS
10
122.68
20
-56.907
11
175.168
21
-56.907
0
LINE
8
BLACK
6
CONTINUOUS
10
175.168
20
-56.907
11
175.174
21
-56.9064
0
LINE
8
BLACK
6
CONTINUOUS
10
175.174
20
-56.9064
11
175.18
21
-56.907
0
LINE
8
BLACK
6
CONTINUOUS
10
175.18
20
-56.907
11
175.18
21
-56.907
0
LINE
8
BLACK
6
CONTINUOUS
10
175.18
20
-56.907
11
175.199
21
-56.9088
0
LINE
8
BLACK
6
CONTINUOUS
10
175.199
20
-56.9088
11
175.222
21
-56.916
0
LINE
8
BLACK
6
CONTINUOUS
10
175.222
20
-56.916
11
175.244
21
-56.9276
0
LINE
8
BLACK
6
CONTINUOUS
10
175.244
20
-56.9276
11
175.263
21
-56.9432
0
LINE
8
BLACK
6
CONTINUOUS
10
175.263
20
-56.9432
11
175.267
21
-56.948
0
LINE
8
BLACK
6
CONTINUOUS
10
175.267
20
-56.948
11
181.008
21
-62.6893
0
LINE
8
BLACK
6
CONTINUOUS
10
181.008
20
-62.6893
11
181.013
21
-62.6932
0
LINE
8
BLACK
6
CONTINUOUS
10
181.013
20
-62.6932
11
181.017
21
-62.6979
0
LINE
8
BLACK
6
CONTINUOUS
10
181.017
20
-62.6979
11
181.028
21
-62.7122
0
LINE
8
BLACK
6
CONTINUOUS
10
181.028
20
-62.7122
11
181.04
21
-62.7339
0
LINE
8
BLACK
6
CONTINUOUS
10
181.04
20
-62.7339
11
181.047
21
-62.7575
0
LINE
8
BLACK
6
CONTINUOUS
10
181.047
20
-62.7575
11
181.049
21
-62.7759
0
LINE
8
BLACK
6
CONTINUOUS
10
181.049
20
-62.7759
11
181.049
21
-62.7759
0
LINE
8
BLACK
6
CONTINUOUS
10
181.049
20
-62.7759
11
181.05
21
-62.782
0
LINE
8
BLACK
6
CONTINUOUS
10
181.05
20
-62.782
11
181.049
21
-62.7881
0
LINE
8
BLACK
6
CONTINUOUS
10
181.049
20
-62.7881
11
181.049
21
-107.776
0
LINE
8
BLACK
6
CONTINUOUS
10
181.049
20
-107.776
11
181.05
21
-107.782
0
LINE
8
BLACK
6
CONTINUOUS
10
181.05
20
-107.782
11
181.049
21
-107.788
0
LINE
8
BLACK
6
CONTINUOUS
10
181.049
20
-107.788
11
181.049
21
-107.788
0
LINE
8
BLACK
6
CONTINUOUS
10
181.049
20
-107.788
11
181.047
21
-107.807
0
LINE
8
BLACK
6
CONTINUOUS
10
181.047
20
-107.807
11
181.04
21
-107.83
0
LINE
8
BLACK
6
CONTINUOUS
10
181.04
20
-107.83
11
181.04
21
-107.83
0
LINE
8
BLACK
6
CONTINUOUS
10
181.04
20
-107.83
11
181.028
21
-107.852
0
LINE
8
BLACK
6
CONTINUOUS
10
181.028
20
-107.852
11
181.017
21
-107.866
0
LINE
8
BLACK
6
CONTINUOUS
10
181.017
20
-107.866
11
181.013
21
-107.871
0
LINE
8
BLACK
6
CONTINUOUS
10
181.013
20
-107.871
11
181.008
21
-107.875
0
LINE
8
BLACK
6
CONTINUOUS
10
181.008
20
-107.875
11
175.267
21
-113.616
0
LINE
8
BLACK
6
CONTINUOUS
10
175.267
20
-113.616
11
175.263
21
-113.621
0
LINE
8
BLACK
6
CONTINUOUS
10
175.263
20
-113.621
11
175.244
21
-113.636
0
LINE
8
BLACK
6
CONTINUOUS
10
175.244
20
-113.636
11
175.222
21
-113.648
0
LINE
8
BLACK
6
CONTINUOUS
10
175.222
20
-113.648
11
175.199
21
-113.655
0
LINE
8
BLACK
6
CONTINUOUS
10
175.199
20
-113.655
11
175.18
21
-113.657
0
LINE
8
BLACK
6
CONTINUOUS
10
175.18
20
-113.657
11
175.18
21
-113.657
0
LINE
8
BLACK
6
CONTINUOUS
10
175.18
20
-113.657
11
175.174
21
-113.658
0
LINE
8
BLACK
6
CONTINUOUS
10
175.174
20
-113.658
11
175.168
21
-113.657
0
LINE
8
BLACK
6
CONTINUOUS
10
175.168
20
-113.657
11
122.18
21
-113.657
0
LINE
8
BLACK
6
CONTINUOUS
10
122.18
20
-113.657
11
122.174
21
-113.658
0
LINE
8
BLACK
6
CONTINUOUS
10
122.174
20
-113.658
11
122.168
21
-113.657
0
LINE
8
BLACK
6
CONTINUOUS
10
122.168
20
-113.657
11
122.168
21
-113.657
0
LINE
8
BLACK
6
CONTINUOUS
10
122.168
20
-113.657
11
122.149
21
-113.655
0
LINE
8
BLACK
6
CONTINUOUS
10
122.149
20
-113.655
11
122.126
21
-113.648
0
LINE
8
BLACK
6
CONTINUOUS
10
122.126
20
-113.648
11
122.104
21
-113.636
0
LINE
8
BLACK
6
CONTINUOUS
10
122.104
20
-113.636
11
122.09
21
-113.625
0
LINE
8
BLACK
6
CONTINUOUS
10
122.09
20
-113.625
11
122.085
21
-113.621
0
LINE
8
BLACK
6
CONTINUOUS
10
122.085
20
-113.621
11
122.081
21
-113.616
0
LINE
8
BLACK
6
CONTINUOUS
10
122.081
20
-113.616
11
116.34
21
-107.875
0
LINE
8
BLACK
6
CONTINUOUS
10
116.34
20
-107.875
11
116.335
21
-107.871
0
LINE
8
BLACK
6
CONTINUOUS
10
116.335
20
-107.871
11
116.331
21
-107.866
0
LINE
8
BLACK
6
CONTINUOUS
10
116.331
20
-107.866
11
116.32
21
-107.852
0
LINE
8
BLACK
6
CONTINUOUS
10
116.32
20
-107.852
11
116.308
21
-107.83
0
LINE
8
BLACK
6
CONTINUOUS
10
116.308
20
-107.83
11
116.301
21
-107.807
0
LINE
8
BLACK
6
CONTINUOUS
10
116.301
20
-107.807
11
116.298
21
-107.782
0
LINE
8
BLACK
6
CONTINUOUS
10
116.298
20
-107.782
11
116.299
21
-107.776
0
LINE
8
BLACK
6
CONTINUOUS
10
116.299
20
-107.776
11
116.299
21
-62.5381
0
LINE
8
BLACK
6
CONTINUOUS
10
116.299
20
-62.5381
11
116.298
21
-62.532
0
LINE
8
BLACK
6
CONTINUOUS
10
116.298
20
-62.532
11
116.299
21
-62.5259
0
LINE
8
BLACK
6
CONTINUOUS
10
116.299
20
-62.5259
11
116.299
21
-62.5259
0
LINE
8
BLACK
6
CONTINUOUS
10
116.299
20
-62.5259
11
116.301
21
-62.5075
0
LINE
8
BLACK
6
CONTINUOUS
10
116.301
20
-62.5075
11
116.308
21
-62.4839
0
LINE
8
BLACK
6
CONTINUOUS
10
116.308
20
-62.4839
11
116.32
21
-62.4622
0
LINE
8
BLACK
6
CONTINUOUS
10
116.32
20
-62.4622
11
116.335
21
-62.4432
0
LINE
8
BLACK
6
CONTINUOUS
10
116.335
20
-62.4432
11
116.34
21
-62.4393
0
LINE
8
BLACK
6
CONTINUOUS
10
116.34
20
-62.4393
11
122.331
21
-56.4479
0
LINE
8
BLACK
6
CONTINUOUS
10
122.331
20
-56.4479
11
122.335
21
-56.4432
0
LINE
8
BLACK
6
CONTINUOUS
10
122.335
20
-56.4432
11
122.34
21
-56.4393
0
LINE
8
BLACK
6
CONTINUOUS
10
122.34
20
-56.4393
11
122.34
21
-56.4393
0
LINE
8
BLACK
6
CONTINUOUS
10
122.34
20
-56.4393
11
122.354
21
-56.4276
0
LINE
8
BLACK
6
CONTINUOUS
10
122.354
20
-56.4276
11
122.354
21
-56.4276
0
LINE
8
BLACK
6
CONTINUOUS
10
122.354
20
-56.4276
11
122.354
21
-56.4276
0
LINE
8
BLACK
6
CONTINUOUS
10
122.354
20
-56.4276
11
122.376
21
-56.416
0
LINE
8
BLACK
6
CONTINUOUS
10
122.376
20
-56.416
11
122.399
21
-56.4088
0
LINE
8
BLACK
6
CONTINUOUS
10
122.399
20
-56.4088
11
122.418
21
-56.407
0
LINE
8
BLACK
6
CONTINUOUS
10
122.418
20
-56.407
11
122.418
21
-56.407
0
LINE
8
BLACK
6
CONTINUOUS
10
122.418
20
-56.407
11
122.424
21
-56.4064
0
LINE
8
BLACK
6
CONTINUOUS
10
122.424
20
-56.4064
11
122.43
21
-56.407
0
LINE
8
BLACK
6
CONTINUOUS
10
122.43
20
-56.407
11
154.798
21
-56.407
0
LINE
8
BLACK
6
CONTINUOUS
10
154.798
20
-56.407
11
156.672
21
-54.5331
0
LINE
8
BLACK
6
CONTINUOUS
10
156.672
20
-54.5331
11
156.645
21
-54.4687
0
LINE
8
BLACK
6
CONTINUOUS
10
156.645
20
-54.4687
11
156.63
21
-54.3914
0
LINE
8
BLACK
6
CONTINUOUS
10
156.63
20
-54.3914
11
156.63
21
-54.3126
0
LINE
8
BLACK
6
CONTINUOUS
10
156.63
20
-54.3126
11
156.645
21
-54.2353
0
LINE
8
BLACK
6
CONTINUOUS
10
156.645
20
-54.2353
11
156.676
21
-54.1625
0
LINE
8
BLACK
6
CONTINUOUS
10
156.676
20
-54.1625
11
156.719
21
-54.097
0
LINE
8
BLACK
6
CONTINUOUS
10
156.719
20
-54.097
11
156.775
21
-54.0413
0
LINE
8
BLACK
6
CONTINUOUS
10
156.775
20
-54.0413
11
156.841
21
-53.9975
0
LINE
8
BLACK
6
CONTINUOUS
10
156.841
20
-53.9975
11
156.913
21
-53.9674
0
LINE
8
BLACK
6
CONTINUOUS
10
156.913
20
-53.9674
11
156.991
21
-53.952
0
LINE
8
BLACK
6
CONTINUOUS
10
156.991
20
-53.952
11
157.069
21
-53.952
0
LINE
8
BLACK
6
CONTINUOUS
10
157.069
20
-53.952
11
157.147
21
-53.9674
0
LINE
8
BLACK
6
CONTINUOUS
10
157.147
20
-53.9674
11
157.219
21
-53.9975
0
LINE
8
BLACK
6
CONTINUOUS
10
157.219
20
-53.9975
11
157.285
21
-54.0413
0
LINE
8
BLACK
6
CONTINUOUS
10
157.285
20
-54.0413
11
157.341
21
-54.097
0
LINE
8
BLACK
6
CONTINUOUS
10
157.341
20
-54.097
11
157.384
21
-54.1625
0
LINE
8
BLACK
6
CONTINUOUS
10
157.384
20
-54.1625
11
157.415
21
-54.2353
0
LINE
8
BLACK
6
CONTINUOUS
10
157.415
20
-54.2353
11
157.43
21
-54.3126
0
LINE
8
BLACK
6
CONTINUOUS
10
157.43
20
-54.3126
11
157.43
21
-54.3914
0
LINE
8
BLACK
6
CONTINUOUS
10
157.43
20
-54.3914
11
157.415
21
-54.4687
0
LINE
8
BLACK
6
CONTINUOUS
10
157.415
20
-54.4687
11
157.384
21
-54.5415
0
LINE
8
BLACK
6
CONTINUOUS
10
157.384
20
-54.5415
11
157.341
21
-54.607
0
LINE
8
BLACK
6
CONTINUOUS
10
157.341
20
-54.607
11
157.285
21
-54.6627
0
LINE
8
BLACK
6
CONTINUOUS
10
157.285
20
-54.6627
11
157.219
21
-54.7065
0
LINE
8
BLACK
6
CONTINUOUS
10
157.219
20
-54.7065
11
157.147
21
-54.7366
0
LINE
8
BLACK
6
CONTINUOUS
10
157.147
20
-54.7366
11
157.069
21
-54.752
0
LINE
8
BLACK
6
CONTINUOUS
10
157.069
20
-54.752
11
156.991
21
-54.752
0
LINE
8
BLACK
6
CONTINUOUS
10
156.991
20
-54.752
11
156.913
21
-54.7366
0
LINE
8
BLACK
6
CONTINUOUS
10
156.913
20
-54.7366
11
156.849
21
-54.7099
0
LINE
8
BLACK
6
CONTINUOUS
10
156.849
20
-54.7099
11
154.943
21
-56.616
0
LINE
8
BLACK
6
CONTINUOUS
10
154.943
20
-56.616
11
154.939
21
-56.6208
0
LINE
8
BLACK
6
CONTINUOUS
10
154.939
20
-56.6208
11
154.92
21
-56.6364
0
LINE
8
BLACK
6
CONTINUOUS
10
154.92
20
-56.6364
11
154.898
21
-56.648
0
LINE
8
BLACK
6
CONTINUOUS
10
154.898
20
-56.648
11
154.875
21
-56.6552
0
LINE
8
BLACK
6
CONTINUOUS
10
154.875
20
-56.6552
11
154.856
21
-56.657
0
LINE
8
BLACK
6
CONTINUOUS
10
154.856
20
-56.657
11
154.856
21
-56.657
0
LINE
8
BLACK
6
CONTINUOUS
10
154.856
20
-56.657
11
154.85
21
-56.6576
0
LINE
8
BLACK
6
CONTINUOUS
10
154.85
20
-56.6576
11
154.844
21
-56.657
0
LINE
8
BLACK
6
CONTINUOUS
10
154.844
20
-56.657
11
122.476
21
-56.657
0
LINE
8
BLACK
6
CONTINUOUS
10
122.476
20
-56.657
11
116.549
21
-62.5838
0
LINE
8
BLACK
6
CONTINUOUS
10
162.227
20
-53.9674
11
162.299
21
-53.9975
0
LINE
8
BLACK
6
CONTINUOUS
10
162.299
20
-53.9975
11
162.365
21
-54.0413
0
LINE
8
BLACK
6
CONTINUOUS
10
162.365
20
-54.0413
11
162.421
21
-54.097
0
LINE
8
BLACK
6
CONTINUOUS
10
162.421
20
-54.097
11
162.464
21
-54.1625
0
LINE
8
BLACK
6
CONTINUOUS
10
162.464
20
-54.1625
11
162.495
21
-54.2353
0
LINE
8
BLACK
6
CONTINUOUS
10
162.495
20
-54.2353
11
162.51
21
-54.3126
0
LINE
8
BLACK
6
CONTINUOUS
10
162.51
20
-54.3126
11
162.51
21
-54.3914
0
LINE
8
BLACK
6
CONTINUOUS
10
162.51
20
-54.3914
11
162.495
21
-54.4687
0
LINE
8
BLACK
6
CONTINUOUS
10
162.495
20
-54.4687
11
162.464
21
-54.5415
0
LINE
8
BLACK
6
CONTINUOUS
10
162.464
20
-54.5415
11
162.421
21
-54.607
0
LINE
8
BLACK
6
CONTINUOUS
10
162.421
20
-54.607
11
162.365
21
-54.6627
0
LINE
8
BLACK
6
CONTINUOUS
10
162.365
20
-54.6627
11
162.299
21
-54.7065
0
LINE
8
BLACK
6
CONTINUOUS
10
162.299
20
-54.7065
11
162.227
21
-54.7366
0
LINE
8
BLACK
6
CONTINUOUS
10
162.227
20
-54.7366
11
162.149
21
-54.752
0
LINE
8
BLACK
6
CONTINUOUS
10
162.149
20
-54.752
11
162.071
21
-54.752
0
LINE
8
BLACK
6
CONTINUOUS
10
162.071
20
-54.752
11
161.993
21
-54.7366
0
LINE
8
BLACK
6
CONTINUOUS
10
161.993
20
-54.7366
11
161.921
21
-54.7065
0
LINE
8
BLACK
6
CONTINUOUS
10
161.921
20
-54.7065
11
161.855
21
-54.6627
0
LINE
8
BLACK
6
CONTINUOUS
10
161.855
20
-54.6627
11
161.799
21
-54.607
0
LINE
8
BLACK
6
CONTINUOUS
10
161.799
20
-54.607
11
161.756
21
-54.5415
0
LINE
8
BLACK
6
CONTINUOUS
10
161.756
20
-54.5415
11
161.725
21
-54.4687
0
LINE
8
BLACK
6
CONTINUOUS
10
161.725
20
-54.4687
11
161.71
21
-54.3914
0
LINE
8
BLACK
6
CONTINUOUS
10
161.71
20
-54.3914
11
161.71
21
-54.3126
0
LINE
8
BLACK
6
CONTINUOUS
10
161.71
20
-54.3126
11
161.725
21
-54.2353
0
LINE
8
BLACK
6
CONTINUOUS
10
161.725
20
-54.2353
11
161.756
21
-54.1625
0
LINE
8
BLACK
6
CONTINUOUS
10
161.756
20
-54.1625
11
161.799
21
-54.097
0
LINE
8
BLACK
6
CONTINUOUS
10
161.799
20
-54.097
11
161.855
21
-54.0413
0
LINE
8
BLACK
6
CONTINUOUS
10
161.855
20
-54.0413
11
161.921
21
-53.9975
0
LINE
8
BLACK
6
CONTINUOUS
10
161.921
20
-53.9975
11
161.993
21
-53.9674
0
LINE
8
BLACK
6
CONTINUOUS
10
161.993
20
-53.9674
11
162.071
21
-53.952
0
LINE
8
BLACK
6
CONTINUOUS
10
162.071
20
-53.952
11
162.149
21
-53.952
0
LINE
8
BLACK
6
CONTINUOUS
10
162.149
20
-53.952
11
162.227
21
-53.9674
0
CIRCLE
8
BLACK
10
157.03
20
-54.352
40
0.2
0
CIRCLE
8
BLACK
10
162.11
20
-54.352
40
0.2
0
CIRCLE
8
BLACK
10
127.953
20
-96.266
40
0.2
  0
ENDSEC
  0
EOF
